  0
SECTION
  2
BLOCKS
  0
ENDSEC
  0
SECTION
  2
ENTITIES
  0
LINE
  8
0
 10
150
 20
100
 11
0
 21
100
  0
LINE
  8
0
 10
0
 20
100
 11
0
 21
0
  0
LINE
  8
0
 10
0
 20
0
 11
150
 21
0
  0
LINE
  8
0
 10
150
 20
0
 11
150
 21
100
  0
LINE
  8
0
 10
5.88646
 20
92.1734
 11
5.46831
 21
92.3865
  0
LINE
  8
0
 10
5.46831
 20
92.3865
 11
5.13646
 21
92.7183
  0
LINE
  8
0
 10
5.13646
 20
92.7183
 11
4.9234
 21
93.1365
  0
LINE
  8
0
 10
4.9234
 20
93.1365
 11
4.84999
 21
93.6
  0
LINE
  8
0
 10
4.84999
 20
93.6
 11
4.9234
 21
94.0635
  0
LINE
  8
0
 10
4.9234
 20
94.0635
 11
5.13646
 21
94.4817
  0
LINE
  8
0
 10
5.13646
 20
94.4817
 11
5.46831
 21
94.8135
  0
LINE
  8
0
 10
5.46831
 20
94.8135
 11
5.88646
 21
95.0266
  0
LINE
  8
0
 10
5.88646
 20
95.0266
 11
6.34999
 21
95.1
  0
LINE
  8
0
 10
6.34999
 20
95.1
 11
6.81352
 21
95.0266
  0
LINE
  8
0
 10
6.81352
 20
95.0266
 11
7.23167
 21
94.8135
  0
LINE
  8
0
 10
7.23167
 20
94.8135
 11
7.56352
 21
94.4817
  0
LINE
  8
0
 10
7.56352
 20
94.4817
 11
7.77658
 21
94.0635
  0
LINE
  8
0
 10
7.77658
 20
94.0635
 11
7.84999
 21
93.6
  0
LINE
  8
0
 10
7.84999
 20
93.6
 11
7.77658
 21
93.1365
  0
LINE
  8
0
 10
7.77658
 20
93.1365
 11
7.56352
 21
92.7183
  0
LINE
  8
0
 10
7.56352
 20
92.7183
 11
7.23167
 21
92.3865
  0
LINE
  8
0
 10
7.23167
 20
92.3865
 11
6.81352
 21
92.1734
  0
LINE
  8
0
 10
6.81352
 20
92.1734
 11
6.34999
 21
92.1
  0
LINE
  8
0
 10
6.34999
 20
92.1
 11
5.88646
 21
92.1734
  0
LINE
  8
0
 10
143.136
 20
92.1734
 11
142.718
 21
92.3865
  0
LINE
  8
0
 10
142.718
 20
92.3865
 11
142.386
 21
92.7183
  0
LINE
  8
0
 10
142.386
 20
92.7183
 11
142.173
 21
93.1365
  0
LINE
  8
0
 10
142.173
 20
93.1365
 11
142.1
 21
93.6
  0
LINE
  8
0
 10
142.1
 20
93.6
 11
142.173
 21
94.0635
  0
LINE
  8
0
 10
142.173
 20
94.0635
 11
142.386
 21
94.4817
  0
LINE
  8
0
 10
142.386
 20
94.4817
 11
142.718
 21
94.8135
  0
LINE
  8
0
 10
142.718
 20
94.8135
 11
143.136
 21
95.0266
  0
LINE
  8
0
 10
143.136
 20
95.0266
 11
143.6
 21
95.1
  0
LINE
  8
0
 10
143.6
 20
95.1
 11
144.064
 21
95.0266
  0
LINE
  8
0
 10
144.064
 20
95.0266
 11
144.482
 21
94.8135
  0
LINE
  8
0
 10
144.482
 20
94.8135
 11
144.814
 21
94.4817
  0
LINE
  8
0
 10
144.814
 20
94.4817
 11
145.027
 21
94.0635
  0
LINE
  8
0
 10
145.027
 20
94.0635
 11
145.1
 21
93.6
  0
LINE
  8
0
 10
145.1
 20
93.6
 11
145.027
 21
93.1365
  0
LINE
  8
0
 10
145.027
 20
93.1365
 11
144.814
 21
92.7183
  0
LINE
  8
0
 10
144.814
 20
92.7183
 11
144.482
 21
92.3865
  0
LINE
  8
0
 10
144.482
 20
92.3865
 11
144.064
 21
92.1734
  0
LINE
  8
0
 10
144.064
 20
92.1734
 11
143.6
 21
92.1
  0
LINE
  8
0
 10
143.6
 20
92.1
 11
143.136
 21
92.1734
  0
LINE
  8
0
 10
5.88646
 20
4.9234
 11
5.46831
 21
5.13646
  0
LINE
  8
0
 10
5.46831
 20
5.13646
 11
5.13646
 21
5.46831
  0
LINE
  8
0
 10
5.13646
 20
5.46831
 11
4.9234
 21
5.88646
  0
LINE
  8
0
 10
4.9234
 20
5.88646
 11
4.84999
 21
6.34999
  0
LINE
  8
0
 10
4.84999
 20
6.34999
 11
4.9234
 21
6.81352
  0
LINE
  8
0
 10
4.9234
 20
6.81352
 11
5.13646
 21
7.23167
  0
LINE
  8
0
 10
5.13646
 20
7.23167
 11
5.46831
 21
7.56352
  0
LINE
  8
0
 10
5.46831
 20
7.56352
 11
5.88646
 21
7.77658
  0
LINE
  8
0
 10
5.88646
 20
7.77658
 11
6.34999
 21
7.84999
  0
LINE
  8
0
 10
6.34999
 20
7.84999
 11
6.81352
 21
7.77658
  0
LINE
  8
0
 10
6.81352
 20
7.77658
 11
7.23167
 21
7.56352
  0
LINE
  8
0
 10
7.23167
 20
7.56352
 11
7.56352
 21
7.23167
  0
LINE
  8
0
 10
7.56352
 20
7.23167
 11
7.77658
 21
6.81352
  0
LINE
  8
0
 10
7.77658
 20
6.81352
 11
7.84999
 21
6.34999
  0
LINE
  8
0
 10
7.84999
 20
6.34999
 11
7.77658
 21
5.88646
  0
LINE
  8
0
 10
7.77658
 20
5.88646
 11
7.56352
 21
5.46831
  0
LINE
  8
0
 10
7.56352
 20
5.46831
 11
7.23167
 21
5.13646
  0
LINE
  8
0
 10
7.23167
 20
5.13646
 11
6.81352
 21
4.9234
  0
LINE
  8
0
 10
6.81352
 20
4.9234
 11
6.34999
 21
4.84999
  0
LINE
  8
0
 10
6.34999
 20
4.84999
 11
5.88646
 21
4.9234
  0
LINE
  8
0
 10
143.136
 20
4.9234
 11
142.718
 21
5.13646
  0
LINE
  8
0
 10
142.718
 20
5.13646
 11
142.386
 21
5.46831
  0
LINE
  8
0
 10
142.386
 20
5.46831
 11
142.173
 21
5.88646
  0
LINE
  8
0
 10
142.173
 20
5.88646
 11
142.1
 21
6.34999
  0
LINE
  8
0
 10
142.1
 20
6.34999
 11
142.173
 21
6.81352
  0
LINE
  8
0
 10
142.173
 20
6.81352
 11
142.386
 21
7.23167
  0
LINE
  8
0
 10
142.386
 20
7.23167
 11
142.718
 21
7.56352
  0
LINE
  8
0
 10
142.718
 20
7.56352
 11
143.136
 21
7.77658
  0
LINE
  8
0
 10
143.136
 20
7.77658
 11
143.6
 21
7.84999
  0
LINE
  8
0
 10
143.6
 20
7.84999
 11
144.064
 21
7.77658
  0
LINE
  8
0
 10
144.064
 20
7.77658
 11
144.482
 21
7.56352
  0
LINE
  8
0
 10
144.482
 20
7.56352
 11
144.814
 21
7.23167
  0
LINE
  8
0
 10
144.814
 20
7.23167
 11
145.027
 21
6.81352
  0
LINE
  8
0
 10
145.027
 20
6.81352
 11
145.1
 21
6.34999
  0
LINE
  8
0
 10
145.1
 20
6.34999
 11
145.027
 21
5.88646
  0
LINE
  8
0
 10
145.027
 20
5.88646
 11
144.814
 21
5.46831
  0
LINE
  8
0
 10
144.814
 20
5.46831
 11
144.482
 21
5.13646
  0
LINE
  8
0
 10
144.482
 20
5.13646
 11
144.064
 21
4.9234
  0
LINE
  8
0
 10
144.064
 20
4.9234
 11
143.6
 21
4.84999
  0
LINE
  8
0
 10
143.6
 20
4.84999
 11
143.136
 21
4.9234
  0
ENDSEC
  0
SECTION
  2
OBJECTS
  0
DICTIONARY
  0
ENDSEC
  0
EOF
