  0
SECTION
  2
BLOCKS
  0
ENDSEC
  0
SECTION
  2
ENTITIES
  0
LINE
  8
0
 10
150
 20
200.1
 11
65
 21
200.1
  0
LINE
  8
0
 10
65
 20
200.1
 11
65
 21
188.4
  0
LINE
  8
0
 10
65
 20
188.4
 11
55
 21
188.4
  0
LINE
  8
0
 10
55
 20
188.4
 11
55
 21
200.1
  0
LINE
  8
0
 10
55
 20
200.1
 11
52.4
 21
200.1
  0
LINE
  8
0
 10
52.4
 20
200.1
 11
52.4
 21
187.6
  0
LINE
  8
0
 10
52.4
 20
187.6
 11
46.4
 21
187.6
  0
LINE
  8
0
 10
46.4
 20
187.6
 11
46.4
 21
200.1
  0
LINE
  8
0
 10
46.4
 20
200.1
 11
0
 21
200.1
  0
LINE
  8
0
 10
0
 20
200.1
 11
0
 21
100.1
  0
LINE
  8
0
 10
0
 20
100.1
 11
150
 21
100.1
  0
LINE
  8
0
 10
150
 20
100.1
 11
150
 21
200.1
  0
LINE
  8
0
 10
5.88646
 20
192.273
 11
5.46831
 21
192.486
  0
LINE
  8
0
 10
5.46831
 20
192.486
 11
5.13646
 21
192.818
  0
LINE
  8
0
 10
5.13646
 20
192.818
 11
4.9234
 21
193.236
  0
LINE
  8
0
 10
4.9234
 20
193.236
 11
4.84999
 21
193.7
  0
LINE
  8
0
 10
4.84999
 20
193.7
 11
4.9234
 21
194.164
  0
LINE
  8
0
 10
4.9234
 20
194.164
 11
5.13646
 21
194.582
  0
LINE
  8
0
 10
5.13646
 20
194.582
 11
5.46831
 21
194.914
  0
LINE
  8
0
 10
5.46831
 20
194.914
 11
5.88646
 21
195.127
  0
LINE
  8
0
 10
5.88646
 20
195.127
 11
6.34999
 21
195.2
  0
LINE
  8
0
 10
6.34999
 20
195.2
 11
6.81352
 21
195.127
  0
LINE
  8
0
 10
6.81352
 20
195.127
 11
7.23167
 21
194.914
  0
LINE
  8
0
 10
7.23167
 20
194.914
 11
7.56352
 21
194.582
  0
LINE
  8
0
 10
7.56352
 20
194.582
 11
7.77658
 21
194.164
  0
LINE
  8
0
 10
7.77658
 20
194.164
 11
7.84999
 21
193.7
  0
LINE
  8
0
 10
7.84999
 20
193.7
 11
7.77658
 21
193.236
  0
LINE
  8
0
 10
7.77658
 20
193.236
 11
7.56352
 21
192.818
  0
LINE
  8
0
 10
7.56352
 20
192.818
 11
7.23167
 21
192.486
  0
LINE
  8
0
 10
7.23167
 20
192.486
 11
6.81352
 21
192.273
  0
LINE
  8
0
 10
6.81352
 20
192.273
 11
6.34999
 21
192.2
  0
LINE
  8
0
 10
6.34999
 20
192.2
 11
5.88646
 21
192.273
  0
LINE
  8
0
 10
143.136
 20
192.273
 11
142.718
 21
192.486
  0
LINE
  8
0
 10
142.718
 20
192.486
 11
142.386
 21
192.818
  0
LINE
  8
0
 10
142.386
 20
192.818
 11
142.173
 21
193.236
  0
LINE
  8
0
 10
142.173
 20
193.236
 11
142.1
 21
193.7
  0
LINE
  8
0
 10
142.1
 20
193.7
 11
142.173
 21
194.164
  0
LINE
  8
0
 10
142.173
 20
194.164
 11
142.386
 21
194.582
  0
LINE
  8
0
 10
142.386
 20
194.582
 11
142.718
 21
194.914
  0
LINE
  8
0
 10
142.718
 20
194.914
 11
143.136
 21
195.127
  0
LINE
  8
0
 10
143.136
 20
195.127
 11
143.6
 21
195.2
  0
LINE
  8
0
 10
143.6
 20
195.2
 11
144.064
 21
195.127
  0
LINE
  8
0
 10
144.064
 20
195.127
 11
144.482
 21
194.914
  0
LINE
  8
0
 10
144.482
 20
194.914
 11
144.814
 21
194.582
  0
LINE
  8
0
 10
144.814
 20
194.582
 11
145.027
 21
194.164
  0
LINE
  8
0
 10
145.027
 20
194.164
 11
145.1
 21
193.7
  0
LINE
  8
0
 10
145.1
 20
193.7
 11
145.027
 21
193.236
  0
LINE
  8
0
 10
145.027
 20
193.236
 11
144.814
 21
192.818
  0
LINE
  8
0
 10
144.814
 20
192.818
 11
144.482
 21
192.486
  0
LINE
  8
0
 10
144.482
 20
192.486
 11
144.064
 21
192.273
  0
LINE
  8
0
 10
144.064
 20
192.273
 11
143.6
 21
192.2
  0
LINE
  8
0
 10
143.6
 20
192.2
 11
143.136
 21
192.273
  0
LINE
  8
0
 10
84.382
 20
189.898
 11
83.8244
 21
190.182
  0
LINE
  8
0
 10
83.8244
 20
190.182
 11
83.382
 21
190.624
  0
LINE
  8
0
 10
83.382
 20
190.624
 11
83.0979
 21
191.182
  0
LINE
  8
0
 10
83.0979
 20
191.182
 11
83
 21
191.8
  0
LINE
  8
0
 10
83
 20
191.8
 11
83.0979
 21
192.418
  0
LINE
  8
0
 10
83.0979
 20
192.418
 11
83.382
 21
192.976
  0
LINE
  8
0
 10
83.382
 20
192.976
 11
83.8244
 21
193.418
  0
LINE
  8
0
 10
83.8244
 20
193.418
 11
84.382
 21
193.702
  0
LINE
  8
0
 10
84.382
 20
193.702
 11
85
 21
193.8
  0
LINE
  8
0
 10
85
 20
193.8
 11
85.618
 21
193.702
  0
LINE
  8
0
 10
85.618
 20
193.702
 11
86.1756
 21
193.418
  0
LINE
  8
0
 10
86.1756
 20
193.418
 11
86.618
 21
192.976
  0
LINE
  8
0
 10
86.618
 20
192.976
 11
86.9021
 21
192.418
  0
LINE
  8
0
 10
86.9021
 20
192.418
 11
87
 21
191.8
  0
LINE
  8
0
 10
87
 20
191.8
 11
86.9021
 21
191.182
  0
LINE
  8
0
 10
86.9021
 20
191.182
 11
86.618
 21
190.624
  0
LINE
  8
0
 10
86.618
 20
190.624
 11
86.1756
 21
190.182
  0
LINE
  8
0
 10
86.1756
 20
190.182
 11
85.618
 21
189.898
  0
LINE
  8
0
 10
85.618
 20
189.898
 11
85
 21
189.8
  0
LINE
  8
0
 10
85
 20
189.8
 11
84.382
 21
189.898
  0
LINE
  8
0
 10
76.382
 20
189.898
 11
75.8244
 21
190.182
  0
LINE
  8
0
 10
75.8244
 20
190.182
 11
75.382
 21
190.624
  0
LINE
  8
0
 10
75.382
 20
190.624
 11
75.0979
 21
191.182
  0
LINE
  8
0
 10
75.0979
 20
191.182
 11
75
 21
191.8
  0
LINE
  8
0
 10
75
 20
191.8
 11
75.0979
 21
192.418
  0
LINE
  8
0
 10
75.0979
 20
192.418
 11
75.382
 21
192.976
  0
LINE
  8
0
 10
75.382
 20
192.976
 11
75.8244
 21
193.418
  0
LINE
  8
0
 10
75.8244
 20
193.418
 11
76.382
 21
193.702
  0
LINE
  8
0
 10
76.382
 20
193.702
 11
77
 21
193.8
  0
LINE
  8
0
 10
77
 20
193.8
 11
77.618
 21
193.702
  0
LINE
  8
0
 10
77.618
 20
193.702
 11
78.1756
 21
193.418
  0
LINE
  8
0
 10
78.1756
 20
193.418
 11
78.618
 21
192.976
  0
LINE
  8
0
 10
78.618
 20
192.976
 11
78.9021
 21
192.418
  0
LINE
  8
0
 10
78.9021
 20
192.418
 11
79
 21
191.8
  0
LINE
  8
0
 10
79
 20
191.8
 11
78.9021
 21
191.182
  0
LINE
  8
0
 10
78.9021
 20
191.182
 11
78.618
 21
190.624
  0
LINE
  8
0
 10
78.618
 20
190.624
 11
78.1756
 21
190.182
  0
LINE
  8
0
 10
78.1756
 20
190.182
 11
77.618
 21
189.898
  0
LINE
  8
0
 10
77.618
 20
189.898
 11
77
 21
189.8
  0
LINE
  8
0
 10
77
 20
189.8
 11
76.382
 21
189.898
  0
LINE
  8
0
 10
59.5
 20
178.6
 11
59.5
 21
185.6
  0
LINE
  8
0
 10
59.5
 20
185.6
 11
69.5
 21
185.6
  0
LINE
  8
0
 10
69.5
 20
185.6
 11
69.5
 21
178.6
  0
LINE
  8
0
 10
69.5
 20
178.6
 11
59.5
 21
178.6
  0
LINE
  8
0
 10
24.4
 20
173.2
 11
24.4
 21
179.2
  0
LINE
  8
0
 10
24.4
 20
179.2
 11
36.4
 21
179.2
  0
LINE
  8
0
 10
36.4
 20
179.2
 11
36.4
 21
173.2
  0
LINE
  8
0
 10
36.4
 20
173.2
 11
24.4
 21
173.2
  0
LINE
  8
0
 10
10.5549
 20
166.545
 11
9.16107
 21
167.255
  0
LINE
  8
0
 10
9.16107
 20
167.255
 11
8.0549
 21
168.361
  0
LINE
  8
0
 10
8.0549
 20
168.361
 11
7.34471
 21
169.755
  0
LINE
  8
0
 10
7.34471
 20
169.755
 11
7.09999
 21
171.3
  0
LINE
  8
0
 10
7.09999
 20
171.3
 11
7.34471
 21
172.845
  0
LINE
  8
0
 10
7.34471
 20
172.845
 11
8.0549
 21
174.239
  0
LINE
  8
0
 10
8.0549
 20
174.239
 11
9.16107
 21
175.345
  0
LINE
  8
0
 10
9.16107
 20
175.345
 11
10.5549
 21
176.055
  0
LINE
  8
0
 10
10.5549
 20
176.055
 11
12.1
 21
176.3
  0
LINE
  8
0
 10
12.1
 20
176.3
 11
13.6451
 21
176.055
  0
LINE
  8
0
 10
13.6451
 20
176.055
 11
15.0389
 21
175.345
  0
LINE
  8
0
 10
15.0389
 20
175.345
 11
16.1451
 21
174.239
  0
LINE
  8
0
 10
16.1451
 20
174.239
 11
16.8553
 21
172.845
  0
LINE
  8
0
 10
16.8553
 20
172.845
 11
17.1
 21
171.3
  0
LINE
  8
0
 10
17.1
 20
171.3
 11
16.8553
 21
169.755
  0
LINE
  8
0
 10
16.8553
 20
169.755
 11
16.1451
 21
168.361
  0
LINE
  8
0
 10
16.1451
 20
168.361
 11
15.0389
 21
167.255
  0
LINE
  8
0
 10
15.0389
 20
167.255
 11
13.6451
 21
166.545
  0
LINE
  8
0
 10
13.6451
 20
166.545
 11
12.1
 21
166.3
  0
LINE
  8
0
 10
12.1
 20
166.3
 11
10.5549
 21
166.545
  0
LINE
  8
0
 10
80.7463
 20
108.963
 11
77.5405
 21
110.596
  0
LINE
  8
0
 10
77.5405
 20
110.596
 11
74.9963
 21
113.14
  0
LINE
  8
0
 10
74.9963
 20
113.14
 11
74.45
 21
114.213
  0
LINE
  8
0
 10
74.45
 20
114.213
 11
73.9037
 21
113.14
  0
LINE
  8
0
 10
73.9037
 20
113.14
 11
71.3595
 21
110.596
  0
LINE
  8
0
 10
71.3595
 20
110.596
 11
68.1537
 21
108.963
  0
LINE
  8
0
 10
68.1537
 20
108.963
 11
64.6
 21
108.4
  0
LINE
  8
0
 10
64.6
 20
108.4
 11
61.0463
 21
108.963
  0
LINE
  8
0
 10
61.0463
 20
108.963
 11
57.8405
 21
110.596
  0
LINE
  8
0
 10
57.8405
 20
110.596
 11
55.2963
 21
113.14
  0
LINE
  8
0
 10
55.2963
 20
113.14
 11
53.6628
 21
116.346
  0
LINE
  8
0
 10
53.6628
 20
116.346
 11
53.1
 21
119.9
  0
LINE
  8
0
 10
53.1
 20
119.9
 11
53.6628
 21
123.454
  0
LINE
  8
0
 10
53.6628
 20
123.454
 11
55.2963
 21
126.66
  0
LINE
  8
0
 10
55.2963
 20
126.66
 11
57.8405
 21
129.204
  0
LINE
  8
0
 10
57.8405
 20
129.204
 11
61.0463
 21
130.837
  0
LINE
  8
0
 10
61.0463
 20
130.837
 11
64.6
 21
131.4
  0
LINE
  8
0
 10
64.6
 20
131.4
 11
68.1537
 21
130.837
  0
LINE
  8
0
 10
68.1537
 20
130.837
 11
71.3595
 21
129.204
  0
LINE
  8
0
 10
71.3595
 20
129.204
 11
73.9037
 21
126.66
  0
LINE
  8
0
 10
73.9037
 20
126.66
 11
74.45
 21
125.587
  0
LINE
  8
0
 10
74.45
 20
125.587
 11
74.9963
 21
126.66
  0
LINE
  8
0
 10
74.9963
 20
126.66
 11
77.5405
 21
129.204
  0
LINE
  8
0
 10
77.5405
 20
129.204
 11
80.7463
 21
130.837
  0
LINE
  8
0
 10
80.7463
 20
130.837
 11
84.3
 21
131.4
  0
LINE
  8
0
 10
84.3
 20
131.4
 11
87.8537
 21
130.837
  0
LINE
  8
0
 10
87.8537
 20
130.837
 11
91.0595
 21
129.204
  0
LINE
  8
0
 10
91.0595
 20
129.204
 11
93.6037
 21
126.66
  0
LINE
  8
0
 10
93.6037
 20
126.66
 11
95.2371
 21
123.454
  0
LINE
  8
0
 10
95.2371
 20
123.454
 11
95.8
 21
119.9
  0
LINE
  8
0
 10
95.8
 20
119.9
 11
95.2371
 21
116.346
  0
LINE
  8
0
 10
95.2371
 20
116.346
 11
93.6037
 21
113.14
  0
LINE
  8
0
 10
93.6037
 20
113.14
 11
91.0595
 21
110.596
  0
LINE
  8
0
 10
91.0595
 20
110.596
 11
87.8537
 21
108.963
  0
LINE
  8
0
 10
87.8537
 20
108.963
 11
84.3
 21
108.4
  0
LINE
  8
0
 10
84.3
 20
108.4
 11
80.7463
 21
108.963
  0
LINE
  8
0
 10
128.946
 20
108.963
 11
125.74
 21
110.596
  0
LINE
  8
0
 10
125.74
 20
110.596
 11
123.196
 21
113.14
  0
LINE
  8
0
 10
123.196
 20
113.14
 11
122.65
 21
114.213
  0
LINE
  8
0
 10
122.65
 20
114.213
 11
122.104
 21
113.14
  0
LINE
  8
0
 10
122.104
 20
113.14
 11
119.56
 21
110.596
  0
LINE
  8
0
 10
119.56
 20
110.596
 11
116.354
 21
108.963
  0
LINE
  8
0
 10
116.354
 20
108.963
 11
112.8
 21
108.4
  0
LINE
  8
0
 10
112.8
 20
108.4
 11
109.246
 21
108.963
  0
LINE
  8
0
 10
109.246
 20
108.963
 11
106.04
 21
110.596
  0
LINE
  8
0
 10
106.04
 20
110.596
 11
103.496
 21
113.14
  0
LINE
  8
0
 10
103.496
 20
113.14
 11
101.863
 21
116.346
  0
LINE
  8
0
 10
101.863
 20
116.346
 11
101.3
 21
119.9
  0
LINE
  8
0
 10
101.3
 20
119.9
 11
101.863
 21
123.454
  0
LINE
  8
0
 10
101.863
 20
123.454
 11
103.496
 21
126.66
  0
LINE
  8
0
 10
103.496
 20
126.66
 11
106.04
 21
129.204
  0
LINE
  8
0
 10
106.04
 20
129.204
 11
109.246
 21
130.837
  0
LINE
  8
0
 10
109.246
 20
130.837
 11
112.8
 21
131.4
  0
LINE
  8
0
 10
112.8
 20
131.4
 11
116.354
 21
130.837
  0
LINE
  8
0
 10
116.354
 20
130.837
 11
119.56
 21
129.204
  0
LINE
  8
0
 10
119.56
 20
129.204
 11
122.104
 21
126.66
  0
LINE
  8
0
 10
122.104
 20
126.66
 11
122.65
 21
125.587
  0
LINE
  8
0
 10
122.65
 20
125.587
 11
123.196
 21
126.66
  0
LINE
  8
0
 10
123.196
 20
126.66
 11
125.74
 21
129.204
  0
LINE
  8
0
 10
125.74
 20
129.204
 11
128.946
 21
130.837
  0
LINE
  8
0
 10
128.946
 20
130.837
 11
132.5
 21
131.4
  0
LINE
  8
0
 10
132.5
 20
131.4
 11
136.054
 21
130.837
  0
LINE
  8
0
 10
136.054
 20
130.837
 11
139.26
 21
129.204
  0
LINE
  8
0
 10
139.26
 20
129.204
 11
141.804
 21
126.66
  0
LINE
  8
0
 10
141.804
 20
126.66
 11
143.437
 21
123.454
  0
LINE
  8
0
 10
143.437
 20
123.454
 11
144
 21
119.9
  0
LINE
  8
0
 10
144
 20
119.9
 11
143.437
 21
116.346
  0
LINE
  8
0
 10
143.437
 20
116.346
 11
141.804
 21
113.14
  0
LINE
  8
0
 10
141.804
 20
113.14
 11
139.26
 21
110.596
  0
LINE
  8
0
 10
139.26
 20
110.596
 11
136.054
 21
108.963
  0
LINE
  8
0
 10
136.054
 20
108.963
 11
132.5
 21
108.4
  0
LINE
  8
0
 10
132.5
 20
108.4
 11
128.946
 21
108.963
  0
LINE
  8
0
 10
32.4463
 20
108.963
 11
29.2405
 21
110.596
  0
LINE
  8
0
 10
29.2405
 20
110.596
 11
26.6963
 21
113.14
  0
LINE
  8
0
 10
26.6963
 20
113.14
 11
26.15
 21
114.213
  0
LINE
  8
0
 10
26.15
 20
114.213
 11
25.6037
 21
113.14
  0
LINE
  8
0
 10
25.6037
 20
113.14
 11
23.0595
 21
110.596
  0
LINE
  8
0
 10
23.0595
 20
110.596
 11
19.8537
 21
108.963
  0
LINE
  8
0
 10
19.8537
 20
108.963
 11
16.3
 21
108.4
  0
LINE
  8
0
 10
16.3
 20
108.4
 11
12.7463
 21
108.963
  0
LINE
  8
0
 10
12.7463
 20
108.963
 11
9.54047
 21
110.596
  0
LINE
  8
0
 10
9.54047
 20
110.596
 11
6.99629
 21
113.14
  0
LINE
  8
0
 10
6.99629
 20
113.14
 11
5.36284
 21
116.346
  0
LINE
  8
0
 10
5.36284
 20
116.346
 11
4.79999
 21
119.9
  0
LINE
  8
0
 10
4.79999
 20
119.9
 11
5.36284
 21
123.454
  0
LINE
  8
0
 10
5.36284
 20
123.454
 11
6.99629
 21
126.66
  0
LINE
  8
0
 10
6.99629
 20
126.66
 11
9.54047
 21
129.204
  0
LINE
  8
0
 10
9.54047
 20
129.204
 11
12.7463
 21
130.837
  0
LINE
  8
0
 10
12.7463
 20
130.837
 11
16.3
 21
131.4
  0
LINE
  8
0
 10
16.3
 20
131.4
 11
19.8537
 21
130.837
  0
LINE
  8
0
 10
19.8537
 20
130.837
 11
23.0595
 21
129.204
  0
LINE
  8
0
 10
23.0595
 20
129.204
 11
25.6037
 21
126.66
  0
LINE
  8
0
 10
25.6037
 20
126.66
 11
26.15
 21
125.587
  0
LINE
  8
0
 10
26.15
 20
125.587
 11
26.6963
 21
126.66
  0
LINE
  8
0
 10
26.6963
 20
126.66
 11
29.2405
 21
129.204
  0
LINE
  8
0
 10
29.2405
 20
129.204
 11
32.4463
 21
130.837
  0
LINE
  8
0
 10
32.4463
 20
130.837
 11
36
 21
131.4
  0
LINE
  8
0
 10
36
 20
131.4
 11
39.5537
 21
130.837
  0
LINE
  8
0
 10
39.5537
 20
130.837
 11
42.7595
 21
129.204
  0
LINE
  8
0
 10
42.7595
 20
129.204
 11
45.3037
 21
126.66
  0
LINE
  8
0
 10
45.3037
 20
126.66
 11
46.9371
 21
123.454
  0
LINE
  8
0
 10
46.9371
 20
123.454
 11
47.5
 21
119.9
  0
LINE
  8
0
 10
47.5
 20
119.9
 11
46.9371
 21
116.346
  0
LINE
  8
0
 10
46.9371
 20
116.346
 11
45.3037
 21
113.14
  0
LINE
  8
0
 10
45.3037
 20
113.14
 11
42.7595
 21
110.596
  0
LINE
  8
0
 10
42.7595
 20
110.596
 11
39.5537
 21
108.963
  0
LINE
  8
0
 10
39.5537
 20
108.963
 11
36
 21
108.4
  0
LINE
  8
0
 10
36
 20
108.4
 11
32.4463
 21
108.963
  0
LINE
  8
0
 10
5.88646
 20
105.023
 11
5.46831
 21
105.236
  0
LINE
  8
0
 10
5.46831
 20
105.236
 11
5.13646
 21
105.568
  0
LINE
  8
0
 10
5.13646
 20
105.568
 11
4.9234
 21
105.986
  0
LINE
  8
0
 10
4.9234
 20
105.986
 11
4.84999
 21
106.45
  0
LINE
  8
0
 10
4.84999
 20
106.45
 11
4.9234
 21
106.914
  0
LINE
  8
0
 10
4.9234
 20
106.914
 11
5.13646
 21
107.332
  0
LINE
  8
0
 10
5.13646
 20
107.332
 11
5.46831
 21
107.664
  0
LINE
  8
0
 10
5.46831
 20
107.664
 11
5.88646
 21
107.877
  0
LINE
  8
0
 10
5.88646
 20
107.877
 11
6.34999
 21
107.95
  0
LINE
  8
0
 10
6.34999
 20
107.95
 11
6.81352
 21
107.877
  0
LINE
  8
0
 10
6.81352
 20
107.877
 11
7.23167
 21
107.664
  0
LINE
  8
0
 10
7.23167
 20
107.664
 11
7.56352
 21
107.332
  0
LINE
  8
0
 10
7.56352
 20
107.332
 11
7.77658
 21
106.914
  0
LINE
  8
0
 10
7.77658
 20
106.914
 11
7.84999
 21
106.45
  0
LINE
  8
0
 10
7.84999
 20
106.45
 11
7.77658
 21
105.986
  0
LINE
  8
0
 10
7.77658
 20
105.986
 11
7.56352
 21
105.568
  0
LINE
  8
0
 10
7.56352
 20
105.568
 11
7.23167
 21
105.236
  0
LINE
  8
0
 10
7.23167
 20
105.236
 11
6.81352
 21
105.023
  0
LINE
  8
0
 10
6.81352
 20
105.023
 11
6.34999
 21
104.95
  0
LINE
  8
0
 10
6.34999
 20
104.95
 11
5.88646
 21
105.023
  0
LINE
  8
0
 10
143.136
 20
105.023
 11
142.718
 21
105.236
  0
LINE
  8
0
 10
142.718
 20
105.236
 11
142.386
 21
105.568
  0
LINE
  8
0
 10
142.386
 20
105.568
 11
142.173
 21
105.986
  0
LINE
  8
0
 10
142.173
 20
105.986
 11
142.1
 21
106.45
  0
LINE
  8
0
 10
142.1
 20
106.45
 11
142.173
 21
106.914
  0
LINE
  8
0
 10
142.173
 20
106.914
 11
142.386
 21
107.332
  0
LINE
  8
0
 10
142.386
 20
107.332
 11
142.718
 21
107.664
  0
LINE
  8
0
 10
142.718
 20
107.664
 11
143.136
 21
107.877
  0
LINE
  8
0
 10
143.136
 20
107.877
 11
143.6
 21
107.95
  0
LINE
  8
0
 10
143.6
 20
107.95
 11
144.064
 21
107.877
  0
LINE
  8
0
 10
144.064
 20
107.877
 11
144.482
 21
107.664
  0
LINE
  8
0
 10
144.482
 20
107.664
 11
144.814
 21
107.332
  0
LINE
  8
0
 10
144.814
 20
107.332
 11
145.027
 21
106.914
  0
LINE
  8
0
 10
145.027
 20
106.914
 11
145.1
 21
106.45
  0
LINE
  8
0
 10
145.1
 20
106.45
 11
145.027
 21
105.986
  0
LINE
  8
0
 10
145.027
 20
105.986
 11
144.814
 21
105.568
  0
LINE
  8
0
 10
144.814
 20
105.568
 11
144.482
 21
105.236
  0
LINE
  8
0
 10
144.482
 20
105.236
 11
144.064
 21
105.023
  0
LINE
  8
0
 10
144.064
 20
105.023
 11
143.6
 21
104.95
  0
LINE
  8
0
 10
143.6
 20
104.95
 11
143.136
 21
105.023
  0
LINE
  8
0
 10
150
 20
100
 11
0
 21
100
  0
LINE
  8
0
 10
0
 20
100
 11
0
 21
0
  0
LINE
  8
0
 10
0
 20
0
 11
150
 21
0
  0
LINE
  8
0
 10
150
 20
0
 11
150
 21
100
  0
LINE
  8
0
 10
5.88646
 20
92.1734
 11
5.46831
 21
92.3865
  0
LINE
  8
0
 10
5.46831
 20
92.3865
 11
5.13646
 21
92.7183
  0
LINE
  8
0
 10
5.13646
 20
92.7183
 11
4.9234
 21
93.1365
  0
LINE
  8
0
 10
4.9234
 20
93.1365
 11
4.84999
 21
93.6
  0
LINE
  8
0
 10
4.84999
 20
93.6
 11
4.9234
 21
94.0635
  0
LINE
  8
0
 10
4.9234
 20
94.0635
 11
5.13646
 21
94.4817
  0
LINE
  8
0
 10
5.13646
 20
94.4817
 11
5.46831
 21
94.8135
  0
LINE
  8
0
 10
5.46831
 20
94.8135
 11
5.88646
 21
95.0266
  0
LINE
  8
0
 10
5.88646
 20
95.0266
 11
6.34999
 21
95.1
  0
LINE
  8
0
 10
6.34999
 20
95.1
 11
6.81352
 21
95.0266
  0
LINE
  8
0
 10
6.81352
 20
95.0266
 11
7.23167
 21
94.8135
  0
LINE
  8
0
 10
7.23167
 20
94.8135
 11
7.56352
 21
94.4817
  0
LINE
  8
0
 10
7.56352
 20
94.4817
 11
7.77658
 21
94.0635
  0
LINE
  8
0
 10
7.77658
 20
94.0635
 11
7.84999
 21
93.6
  0
LINE
  8
0
 10
7.84999
 20
93.6
 11
7.77658
 21
93.1365
  0
LINE
  8
0
 10
7.77658
 20
93.1365
 11
7.56352
 21
92.7183
  0
LINE
  8
0
 10
7.56352
 20
92.7183
 11
7.23167
 21
92.3865
  0
LINE
  8
0
 10
7.23167
 20
92.3865
 11
6.81352
 21
92.1734
  0
LINE
  8
0
 10
6.81352
 20
92.1734
 11
6.34999
 21
92.1
  0
LINE
  8
0
 10
6.34999
 20
92.1
 11
5.88646
 21
92.1734
  0
LINE
  8
0
 10
143.136
 20
92.1734
 11
142.718
 21
92.3865
  0
LINE
  8
0
 10
142.718
 20
92.3865
 11
142.386
 21
92.7183
  0
LINE
  8
0
 10
142.386
 20
92.7183
 11
142.173
 21
93.1365
  0
LINE
  8
0
 10
142.173
 20
93.1365
 11
142.1
 21
93.6
  0
LINE
  8
0
 10
142.1
 20
93.6
 11
142.173
 21
94.0635
  0
LINE
  8
0
 10
142.173
 20
94.0635
 11
142.386
 21
94.4817
  0
LINE
  8
0
 10
142.386
 20
94.4817
 11
142.718
 21
94.8135
  0
LINE
  8
0
 10
142.718
 20
94.8135
 11
143.136
 21
95.0266
  0
LINE
  8
0
 10
143.136
 20
95.0266
 11
143.6
 21
95.1
  0
LINE
  8
0
 10
143.6
 20
95.1
 11
144.064
 21
95.0266
  0
LINE
  8
0
 10
144.064
 20
95.0266
 11
144.482
 21
94.8135
  0
LINE
  8
0
 10
144.482
 20
94.8135
 11
144.814
 21
94.4817
  0
LINE
  8
0
 10
144.814
 20
94.4817
 11
145.027
 21
94.0635
  0
LINE
  8
0
 10
145.027
 20
94.0635
 11
145.1
 21
93.6
  0
LINE
  8
0
 10
145.1
 20
93.6
 11
145.027
 21
93.1365
  0
LINE
  8
0
 10
145.027
 20
93.1365
 11
144.814
 21
92.7183
  0
LINE
  8
0
 10
144.814
 20
92.7183
 11
144.482
 21
92.3865
  0
LINE
  8
0
 10
144.482
 20
92.3865
 11
144.064
 21
92.1734
  0
LINE
  8
0
 10
144.064
 20
92.1734
 11
143.6
 21
92.1
  0
LINE
  8
0
 10
143.6
 20
92.1
 11
143.136
 21
92.1734
  0
LINE
  8
0
 10
5.88646
 20
4.9234
 11
5.46831
 21
5.13646
  0
LINE
  8
0
 10
5.46831
 20
5.13646
 11
5.13646
 21
5.46831
  0
LINE
  8
0
 10
5.13646
 20
5.46831
 11
4.9234
 21
5.88646
  0
LINE
  8
0
 10
4.9234
 20
5.88646
 11
4.84999
 21
6.34999
  0
LINE
  8
0
 10
4.84999
 20
6.34999
 11
4.9234
 21
6.81352
  0
LINE
  8
0
 10
4.9234
 20
6.81352
 11
5.13646
 21
7.23167
  0
LINE
  8
0
 10
5.13646
 20
7.23167
 11
5.46831
 21
7.56352
  0
LINE
  8
0
 10
5.46831
 20
7.56352
 11
5.88646
 21
7.77658
  0
LINE
  8
0
 10
5.88646
 20
7.77658
 11
6.34999
 21
7.84999
  0
LINE
  8
0
 10
6.34999
 20
7.84999
 11
6.81352
 21
7.77658
  0
LINE
  8
0
 10
6.81352
 20
7.77658
 11
7.23167
 21
7.56352
  0
LINE
  8
0
 10
7.23167
 20
7.56352
 11
7.56352
 21
7.23167
  0
LINE
  8
0
 10
7.56352
 20
7.23167
 11
7.77658
 21
6.81352
  0
LINE
  8
0
 10
7.77658
 20
6.81352
 11
7.84999
 21
6.34999
  0
LINE
  8
0
 10
7.84999
 20
6.34999
 11
7.77658
 21
5.88646
  0
LINE
  8
0
 10
7.77658
 20
5.88646
 11
7.56352
 21
5.46831
  0
LINE
  8
0
 10
7.56352
 20
5.46831
 11
7.23167
 21
5.13646
  0
LINE
  8
0
 10
7.23167
 20
5.13646
 11
6.81352
 21
4.9234
  0
LINE
  8
0
 10
6.81352
 20
4.9234
 11
6.34999
 21
4.84999
  0
LINE
  8
0
 10
6.34999
 20
4.84999
 11
5.88646
 21
4.9234
  0
LINE
  8
0
 10
143.136
 20
4.9234
 11
142.718
 21
5.13646
  0
LINE
  8
0
 10
142.718
 20
5.13646
 11
142.386
 21
5.46831
  0
LINE
  8
0
 10
142.386
 20
5.46831
 11
142.173
 21
5.88646
  0
LINE
  8
0
 10
142.173
 20
5.88646
 11
142.1
 21
6.34999
  0
LINE
  8
0
 10
142.1
 20
6.34999
 11
142.173
 21
6.81352
  0
LINE
  8
0
 10
142.173
 20
6.81352
 11
142.386
 21
7.23167
  0
LINE
  8
0
 10
142.386
 20
7.23167
 11
142.718
 21
7.56352
  0
LINE
  8
0
 10
142.718
 20
7.56352
 11
143.136
 21
7.77658
  0
LINE
  8
0
 10
143.136
 20
7.77658
 11
143.6
 21
7.84999
  0
LINE
  8
0
 10
143.6
 20
7.84999
 11
144.064
 21
7.77658
  0
LINE
  8
0
 10
144.064
 20
7.77658
 11
144.482
 21
7.56352
  0
LINE
  8
0
 10
144.482
 20
7.56352
 11
144.814
 21
7.23167
  0
LINE
  8
0
 10
144.814
 20
7.23167
 11
145.027
 21
6.81352
  0
LINE
  8
0
 10
145.027
 20
6.81352
 11
145.1
 21
6.34999
  0
LINE
  8
0
 10
145.1
 20
6.34999
 11
145.027
 21
5.88646
  0
LINE
  8
0
 10
145.027
 20
5.88646
 11
144.814
 21
5.46831
  0
LINE
  8
0
 10
144.814
 20
5.46831
 11
144.482
 21
5.13646
  0
LINE
  8
0
 10
144.482
 20
5.13646
 11
144.064
 21
4.9234
  0
LINE
  8
0
 10
144.064
 20
4.9234
 11
143.6
 21
4.84999
  0
LINE
  8
0
 10
143.6
 20
4.84999
 11
143.136
 21
4.9234
  0
ENDSEC
  0
SECTION
  2
OBJECTS
  0
DICTIONARY
  0
ENDSEC
  0
EOF
