  0
SECTION
  2
BLOCKS
  0
ENDSEC
  0
SECTION
  2
ENTITIES
  0
LINE
  8
0
 10
150
 20
100
 11
65
 21
100
  0
LINE
  8
0
 10
65
 20
100
 11
65
 21
88.3
  0
LINE
  8
0
 10
65
 20
88.3
 11
55
 21
88.3
  0
LINE
  8
0
 10
55
 20
88.3
 11
55
 21
100
  0
LINE
  8
0
 10
55
 20
100
 11
52.4
 21
100
  0
LINE
  8
0
 10
52.4
 20
100
 11
52.4
 21
87.5
  0
LINE
  8
0
 10
52.4
 20
87.5
 11
46.4
 21
87.5
  0
LINE
  8
0
 10
46.4
 20
87.5
 11
46.4
 21
100
  0
LINE
  8
0
 10
46.4
 20
100
 11
0
 21
100
  0
LINE
  8
0
 10
0
 20
100
 11
0
 21
0
  0
LINE
  8
0
 10
0
 20
0
 11
150
 21
0
  0
LINE
  8
0
 10
150
 20
0
 11
150
 21
100
  0
LINE
  8
0
 10
5.88646
 20
92.1734
 11
5.46831
 21
92.3865
  0
LINE
  8
0
 10
5.46831
 20
92.3865
 11
5.13646
 21
92.7183
  0
LINE
  8
0
 10
5.13646
 20
92.7183
 11
4.9234
 21
93.1365
  0
LINE
  8
0
 10
4.9234
 20
93.1365
 11
4.84999
 21
93.6
  0
LINE
  8
0
 10
4.84999
 20
93.6
 11
4.9234
 21
94.0635
  0
LINE
  8
0
 10
4.9234
 20
94.0635
 11
5.13646
 21
94.4817
  0
LINE
  8
0
 10
5.13646
 20
94.4817
 11
5.46831
 21
94.8135
  0
LINE
  8
0
 10
5.46831
 20
94.8135
 11
5.88646
 21
95.0266
  0
LINE
  8
0
 10
5.88646
 20
95.0266
 11
6.34999
 21
95.1
  0
LINE
  8
0
 10
6.34999
 20
95.1
 11
6.81352
 21
95.0266
  0
LINE
  8
0
 10
6.81352
 20
95.0266
 11
7.23167
 21
94.8135
  0
LINE
  8
0
 10
7.23167
 20
94.8135
 11
7.56352
 21
94.4817
  0
LINE
  8
0
 10
7.56352
 20
94.4817
 11
7.77658
 21
94.0635
  0
LINE
  8
0
 10
7.77658
 20
94.0635
 11
7.84999
 21
93.6
  0
LINE
  8
0
 10
7.84999
 20
93.6
 11
7.77658
 21
93.1365
  0
LINE
  8
0
 10
7.77658
 20
93.1365
 11
7.56352
 21
92.7183
  0
LINE
  8
0
 10
7.56352
 20
92.7183
 11
7.23167
 21
92.3865
  0
LINE
  8
0
 10
7.23167
 20
92.3865
 11
6.81352
 21
92.1734
  0
LINE
  8
0
 10
6.81352
 20
92.1734
 11
6.34999
 21
92.1
  0
LINE
  8
0
 10
6.34999
 20
92.1
 11
5.88646
 21
92.1734
  0
LINE
  8
0
 10
143.136
 20
92.1734
 11
142.718
 21
92.3865
  0
LINE
  8
0
 10
142.718
 20
92.3865
 11
142.386
 21
92.7183
  0
LINE
  8
0
 10
142.386
 20
92.7183
 11
142.173
 21
93.1365
  0
LINE
  8
0
 10
142.173
 20
93.1365
 11
142.1
 21
93.6
  0
LINE
  8
0
 10
142.1
 20
93.6
 11
142.173
 21
94.0635
  0
LINE
  8
0
 10
142.173
 20
94.0635
 11
142.386
 21
94.4817
  0
LINE
  8
0
 10
142.386
 20
94.4817
 11
142.718
 21
94.8135
  0
LINE
  8
0
 10
142.718
 20
94.8135
 11
143.136
 21
95.0266
  0
LINE
  8
0
 10
143.136
 20
95.0266
 11
143.6
 21
95.1
  0
LINE
  8
0
 10
143.6
 20
95.1
 11
144.064
 21
95.0266
  0
LINE
  8
0
 10
144.064
 20
95.0266
 11
144.482
 21
94.8135
  0
LINE
  8
0
 10
144.482
 20
94.8135
 11
144.814
 21
94.4817
  0
LINE
  8
0
 10
144.814
 20
94.4817
 11
145.027
 21
94.0635
  0
LINE
  8
0
 10
145.027
 20
94.0635
 11
145.1
 21
93.6
  0
LINE
  8
0
 10
145.1
 20
93.6
 11
145.027
 21
93.1365
  0
LINE
  8
0
 10
145.027
 20
93.1365
 11
144.814
 21
92.7183
  0
LINE
  8
0
 10
144.814
 20
92.7183
 11
144.482
 21
92.3865
  0
LINE
  8
0
 10
144.482
 20
92.3865
 11
144.064
 21
92.1734
  0
LINE
  8
0
 10
144.064
 20
92.1734
 11
143.6
 21
92.1
  0
LINE
  8
0
 10
143.6
 20
92.1
 11
143.136
 21
92.1734
  0
LINE
  8
0
 10
84.382
 20
89.7979
 11
83.8244
 21
90.082
  0
LINE
  8
0
 10
83.8244
 20
90.082
 11
83.382
 21
90.5244
  0
LINE
  8
0
 10
83.382
 20
90.5244
 11
83.0979
 21
91.082
  0
LINE
  8
0
 10
83.0979
 20
91.082
 11
83
 21
91.7
  0
LINE
  8
0
 10
83
 20
91.7
 11
83.0979
 21
92.318
  0
LINE
  8
0
 10
83.0979
 20
92.318
 11
83.382
 21
92.8756
  0
LINE
  8
0
 10
83.382
 20
92.8756
 11
83.8244
 21
93.318
  0
LINE
  8
0
 10
83.8244
 20
93.318
 11
84.382
 21
93.6021
  0
LINE
  8
0
 10
84.382
 20
93.6021
 11
85
 21
93.7
  0
LINE
  8
0
 10
85
 20
93.7
 11
85.618
 21
93.6021
  0
LINE
  8
0
 10
85.618
 20
93.6021
 11
86.1756
 21
93.318
  0
LINE
  8
0
 10
86.1756
 20
93.318
 11
86.618
 21
92.8756
  0
LINE
  8
0
 10
86.618
 20
92.8756
 11
86.9021
 21
92.318
  0
LINE
  8
0
 10
86.9021
 20
92.318
 11
87
 21
91.7
  0
LINE
  8
0
 10
87
 20
91.7
 11
86.9021
 21
91.082
  0
LINE
  8
0
 10
86.9021
 20
91.082
 11
86.618
 21
90.5244
  0
LINE
  8
0
 10
86.618
 20
90.5244
 11
86.1756
 21
90.082
  0
LINE
  8
0
 10
86.1756
 20
90.082
 11
85.618
 21
89.7979
  0
LINE
  8
0
 10
85.618
 20
89.7979
 11
85
 21
89.7
  0
LINE
  8
0
 10
85
 20
89.7
 11
84.382
 21
89.7979
  0
LINE
  8
0
 10
76.382
 20
89.7979
 11
75.8244
 21
90.082
  0
LINE
  8
0
 10
75.8244
 20
90.082
 11
75.382
 21
90.5244
  0
LINE
  8
0
 10
75.382
 20
90.5244
 11
75.0979
 21
91.082
  0
LINE
  8
0
 10
75.0979
 20
91.082
 11
75
 21
91.7
  0
LINE
  8
0
 10
75
 20
91.7
 11
75.0979
 21
92.318
  0
LINE
  8
0
 10
75.0979
 20
92.318
 11
75.382
 21
92.8756
  0
LINE
  8
0
 10
75.382
 20
92.8756
 11
75.8244
 21
93.318
  0
LINE
  8
0
 10
75.8244
 20
93.318
 11
76.382
 21
93.6021
  0
LINE
  8
0
 10
76.382
 20
93.6021
 11
77
 21
93.7
  0
LINE
  8
0
 10
77
 20
93.7
 11
77.618
 21
93.6021
  0
LINE
  8
0
 10
77.618
 20
93.6021
 11
78.1756
 21
93.318
  0
LINE
  8
0
 10
78.1756
 20
93.318
 11
78.618
 21
92.8756
  0
LINE
  8
0
 10
78.618
 20
92.8756
 11
78.9021
 21
92.318
  0
LINE
  8
0
 10
78.9021
 20
92.318
 11
79
 21
91.7
  0
LINE
  8
0
 10
79
 20
91.7
 11
78.9021
 21
91.082
  0
LINE
  8
0
 10
78.9021
 20
91.082
 11
78.618
 21
90.5244
  0
LINE
  8
0
 10
78.618
 20
90.5244
 11
78.1756
 21
90.082
  0
LINE
  8
0
 10
78.1756
 20
90.082
 11
77.618
 21
89.7979
  0
LINE
  8
0
 10
77.618
 20
89.7979
 11
77
 21
89.7
  0
LINE
  8
0
 10
77
 20
89.7
 11
76.382
 21
89.7979
  0
LINE
  8
0
 10
59.5
 20
78.5
 11
59.5
 21
85.5
  0
LINE
  8
0
 10
59.5
 20
85.5
 11
69.5
 21
85.5
  0
LINE
  8
0
 10
69.5
 20
85.5
 11
69.5
 21
78.5
  0
LINE
  8
0
 10
69.5
 20
78.5
 11
59.5
 21
78.5
  0
LINE
  8
0
 10
24.4
 20
73.1
 11
24.4
 21
79.1
  0
LINE
  8
0
 10
24.4
 20
79.1
 11
36.4
 21
79.1
  0
LINE
  8
0
 10
36.4
 20
79.1
 11
36.4
 21
73.1
  0
LINE
  8
0
 10
36.4
 20
73.1
 11
24.4
 21
73.1
  0
LINE
  8
0
 10
10.5549
 20
66.4447
 11
9.16107
 21
67.1549
  0
LINE
  8
0
 10
9.16107
 20
67.1549
 11
8.0549
 21
68.2611
  0
LINE
  8
0
 10
8.0549
 20
68.2611
 11
7.34471
 21
69.6549
  0
LINE
  8
0
 10
7.34471
 20
69.6549
 11
7.09999
 21
71.2
  0
LINE
  8
0
 10
7.09999
 20
71.2
 11
7.34471
 21
72.7451
  0
LINE
  8
0
 10
7.34471
 20
72.7451
 11
8.0549
 21
74.1389
  0
LINE
  8
0
 10
8.0549
 20
74.1389
 11
9.16107
 21
75.2451
  0
LINE
  8
0
 10
9.16107
 20
75.2451
 11
10.5549
 21
75.9553
  0
LINE
  8
0
 10
10.5549
 20
75.9553
 11
12.1
 21
76.2
  0
LINE
  8
0
 10
12.1
 20
76.2
 11
13.6451
 21
75.9553
  0
LINE
  8
0
 10
13.6451
 20
75.9553
 11
15.0389
 21
75.2451
  0
LINE
  8
0
 10
15.0389
 20
75.2451
 11
16.1451
 21
74.1389
  0
LINE
  8
0
 10
16.1451
 20
74.1389
 11
16.8553
 21
72.7451
  0
LINE
  8
0
 10
16.8553
 20
72.7451
 11
17.1
 21
71.2
  0
LINE
  8
0
 10
17.1
 20
71.2
 11
16.8553
 21
69.6549
  0
LINE
  8
0
 10
16.8553
 20
69.6549
 11
16.1451
 21
68.2611
  0
LINE
  8
0
 10
16.1451
 20
68.2611
 11
15.0389
 21
67.1549
  0
LINE
  8
0
 10
15.0389
 20
67.1549
 11
13.6451
 21
66.4447
  0
LINE
  8
0
 10
13.6451
 20
66.4447
 11
12.1
 21
66.2
  0
LINE
  8
0
 10
12.1
 20
66.2
 11
10.5549
 21
66.4447
  0
LINE
  8
0
 10
128.946
 20
8.86284
 11
125.74
 21
10.4963
  0
LINE
  8
0
 10
125.74
 20
10.4963
 11
123.196
 21
13.0405
  0
LINE
  8
0
 10
123.196
 20
13.0405
 11
122.65
 21
14.1127
  0
LINE
  8
0
 10
122.65
 20
14.1127
 11
122.104
 21
13.0405
  0
LINE
  8
0
 10
122.104
 20
13.0405
 11
119.56
 21
10.4963
  0
LINE
  8
0
 10
119.56
 20
10.4963
 11
116.354
 21
8.86284
  0
LINE
  8
0
 10
116.354
 20
8.86284
 11
112.8
 21
8.29999
  0
LINE
  8
0
 10
112.8
 20
8.29999
 11
109.246
 21
8.86284
  0
LINE
  8
0
 10
109.246
 20
8.86284
 11
106.04
 21
10.4963
  0
LINE
  8
0
 10
106.04
 20
10.4963
 11
103.496
 21
13.0405
  0
LINE
  8
0
 10
103.496
 20
13.0405
 11
101.863
 21
16.2463
  0
LINE
  8
0
 10
101.863
 20
16.2463
 11
101.3
 21
19.8
  0
LINE
  8
0
 10
101.3
 20
19.8
 11
101.863
 21
23.3537
  0
LINE
  8
0
 10
101.863
 20
23.3537
 11
103.496
 21
26.5595
  0
LINE
  8
0
 10
103.496
 20
26.5595
 11
106.04
 21
29.1037
  0
LINE
  8
0
 10
106.04
 20
29.1037
 11
109.246
 21
30.7371
  0
LINE
  8
0
 10
109.246
 20
30.7371
 11
112.8
 21
31.3
  0
LINE
  8
0
 10
112.8
 20
31.3
 11
116.354
 21
30.7371
  0
LINE
  8
0
 10
116.354
 20
30.7371
 11
119.56
 21
29.1037
  0
LINE
  8
0
 10
119.56
 20
29.1037
 11
122.104
 21
26.5595
  0
LINE
  8
0
 10
122.104
 20
26.5595
 11
122.65
 21
25.4873
  0
LINE
  8
0
 10
122.65
 20
25.4873
 11
123.196
 21
26.5595
  0
LINE
  8
0
 10
123.196
 20
26.5595
 11
125.74
 21
29.1037
  0
LINE
  8
0
 10
125.74
 20
29.1037
 11
128.946
 21
30.7371
  0
LINE
  8
0
 10
128.946
 20
30.7371
 11
132.5
 21
31.3
  0
LINE
  8
0
 10
132.5
 20
31.3
 11
136.054
 21
30.7371
  0
LINE
  8
0
 10
136.054
 20
30.7371
 11
139.26
 21
29.1037
  0
LINE
  8
0
 10
139.26
 20
29.1037
 11
141.804
 21
26.5595
  0
LINE
  8
0
 10
141.804
 20
26.5595
 11
143.437
 21
23.3537
  0
LINE
  8
0
 10
143.437
 20
23.3537
 11
144
 21
19.8
  0
LINE
  8
0
 10
144
 20
19.8
 11
143.437
 21
16.2463
  0
LINE
  8
0
 10
143.437
 20
16.2463
 11
141.804
 21
13.0405
  0
LINE
  8
0
 10
141.804
 20
13.0405
 11
139.26
 21
10.4963
  0
LINE
  8
0
 10
139.26
 20
10.4963
 11
136.054
 21
8.86284
  0
LINE
  8
0
 10
136.054
 20
8.86284
 11
132.5
 21
8.29999
  0
LINE
  8
0
 10
132.5
 20
8.29999
 11
128.946
 21
8.86284
  0
LINE
  8
0
 10
32.4463
 20
8.86284
 11
29.2405
 21
10.4963
  0
LINE
  8
0
 10
29.2405
 20
10.4963
 11
26.6963
 21
13.0405
  0
LINE
  8
0
 10
26.6963
 20
13.0405
 11
26.15
 21
14.1127
  0
LINE
  8
0
 10
26.15
 20
14.1127
 11
25.6037
 21
13.0405
  0
LINE
  8
0
 10
25.6037
 20
13.0405
 11
23.0595
 21
10.4963
  0
LINE
  8
0
 10
23.0595
 20
10.4963
 11
19.8537
 21
8.86284
  0
LINE
  8
0
 10
19.8537
 20
8.86284
 11
16.3
 21
8.29999
  0
LINE
  8
0
 10
16.3
 20
8.29999
 11
12.7463
 21
8.86284
  0
LINE
  8
0
 10
12.7463
 20
8.86284
 11
9.54047
 21
10.4963
  0
LINE
  8
0
 10
9.54047
 20
10.4963
 11
6.99629
 21
13.0405
  0
LINE
  8
0
 10
6.99629
 20
13.0405
 11
5.36284
 21
16.2463
  0
LINE
  8
0
 10
5.36284
 20
16.2463
 11
4.79999
 21
19.8
  0
LINE
  8
0
 10
4.79999
 20
19.8
 11
5.36284
 21
23.3537
  0
LINE
  8
0
 10
5.36284
 20
23.3537
 11
6.99629
 21
26.5595
  0
LINE
  8
0
 10
6.99629
 20
26.5595
 11
9.54047
 21
29.1037
  0
LINE
  8
0
 10
9.54047
 20
29.1037
 11
12.7463
 21
30.7371
  0
LINE
  8
0
 10
12.7463
 20
30.7371
 11
16.3
 21
31.3
  0
LINE
  8
0
 10
16.3
 20
31.3
 11
19.8537
 21
30.7371
  0
LINE
  8
0
 10
19.8537
 20
30.7371
 11
23.0595
 21
29.1037
  0
LINE
  8
0
 10
23.0595
 20
29.1037
 11
25.6037
 21
26.5595
  0
LINE
  8
0
 10
25.6037
 20
26.5595
 11
26.15
 21
25.4873
  0
LINE
  8
0
 10
26.15
 20
25.4873
 11
26.6963
 21
26.5595
  0
LINE
  8
0
 10
26.6963
 20
26.5595
 11
29.2405
 21
29.1037
  0
LINE
  8
0
 10
29.2405
 20
29.1037
 11
32.4463
 21
30.7371
  0
LINE
  8
0
 10
32.4463
 20
30.7371
 11
36
 21
31.3
  0
LINE
  8
0
 10
36
 20
31.3
 11
39.5537
 21
30.7371
  0
LINE
  8
0
 10
39.5537
 20
30.7371
 11
42.7595
 21
29.1037
  0
LINE
  8
0
 10
42.7595
 20
29.1037
 11
45.3037
 21
26.5595
  0
LINE
  8
0
 10
45.3037
 20
26.5595
 11
46.9371
 21
23.3537
  0
LINE
  8
0
 10
46.9371
 20
23.3537
 11
47.5
 21
19.8
  0
LINE
  8
0
 10
47.5
 20
19.8
 11
46.9371
 21
16.2463
  0
LINE
  8
0
 10
46.9371
 20
16.2463
 11
45.3037
 21
13.0405
  0
LINE
  8
0
 10
45.3037
 20
13.0405
 11
42.7595
 21
10.4963
  0
LINE
  8
0
 10
42.7595
 20
10.4963
 11
39.5537
 21
8.86284
  0
LINE
  8
0
 10
39.5537
 20
8.86284
 11
36
 21
8.29999
  0
LINE
  8
0
 10
36
 20
8.29999
 11
32.4463
 21
8.86284
  0
LINE
  8
0
 10
80.7463
 20
8.86284
 11
77.5405
 21
10.4963
  0
LINE
  8
0
 10
77.5405
 20
10.4963
 11
74.9963
 21
13.0405
  0
LINE
  8
0
 10
74.9963
 20
13.0405
 11
74.45
 21
14.1126
  0
LINE
  8
0
 10
74.45
 20
14.1126
 11
73.9037
 21
13.0405
  0
LINE
  8
0
 10
73.9037
 20
13.0405
 11
71.3595
 21
10.4963
  0
LINE
  8
0
 10
71.3595
 20
10.4963
 11
68.1537
 21
8.86284
  0
LINE
  8
0
 10
68.1537
 20
8.86284
 11
64.6
 21
8.29999
  0
LINE
  8
0
 10
64.6
 20
8.29999
 11
61.0463
 21
8.86284
  0
LINE
  8
0
 10
61.0463
 20
8.86284
 11
57.8405
 21
10.4963
  0
LINE
  8
0
 10
57.8405
 20
10.4963
 11
55.2963
 21
13.0405
  0
LINE
  8
0
 10
55.2963
 20
13.0405
 11
53.6628
 21
16.2463
  0
LINE
  8
0
 10
53.6628
 20
16.2463
 11
53.1
 21
19.8
  0
LINE
  8
0
 10
53.1
 20
19.8
 11
53.6628
 21
23.3537
  0
LINE
  8
0
 10
53.6628
 20
23.3537
 11
55.2963
 21
26.5595
  0
LINE
  8
0
 10
55.2963
 20
26.5595
 11
57.8405
 21
29.1037
  0
LINE
  8
0
 10
57.8405
 20
29.1037
 11
61.0463
 21
30.7371
  0
LINE
  8
0
 10
61.0463
 20
30.7371
 11
64.6
 21
31.3
  0
LINE
  8
0
 10
64.6
 20
31.3
 11
68.1537
 21
30.7371
  0
LINE
  8
0
 10
68.1537
 20
30.7371
 11
71.3595
 21
29.1037
  0
LINE
  8
0
 10
71.3595
 20
29.1037
 11
73.9037
 21
26.5595
  0
LINE
  8
0
 10
73.9037
 20
26.5595
 11
74.45
 21
25.4873
  0
LINE
  8
0
 10
74.45
 20
25.4873
 11
74.9963
 21
26.5595
  0
LINE
  8
0
 10
74.9963
 20
26.5595
 11
77.5405
 21
29.1037
  0
LINE
  8
0
 10
77.5405
 20
29.1037
 11
80.7463
 21
30.7371
  0
LINE
  8
0
 10
80.7463
 20
30.7371
 11
84.3
 21
31.3
  0
LINE
  8
0
 10
84.3
 20
31.3
 11
87.8537
 21
30.7371
  0
LINE
  8
0
 10
87.8537
 20
30.7371
 11
91.0595
 21
29.1037
  0
LINE
  8
0
 10
91.0595
 20
29.1037
 11
93.6037
 21
26.5595
  0
LINE
  8
0
 10
93.6037
 20
26.5595
 11
95.2371
 21
23.3537
  0
LINE
  8
0
 10
95.2371
 20
23.3537
 11
95.8
 21
19.8
  0
LINE
  8
0
 10
95.8
 20
19.8
 11
95.2371
 21
16.2463
  0
LINE
  8
0
 10
95.2371
 20
16.2463
 11
93.6037
 21
13.0405
  0
LINE
  8
0
 10
93.6037
 20
13.0405
 11
91.0595
 21
10.4963
  0
LINE
  8
0
 10
91.0595
 20
10.4963
 11
87.8537
 21
8.86284
  0
LINE
  8
0
 10
87.8537
 20
8.86284
 11
84.3
 21
8.29999
  0
LINE
  8
0
 10
84.3
 20
8.29999
 11
80.7463
 21
8.86284
  0
LINE
  8
0
 10
5.88646
 20
4.9234
 11
5.46831
 21
5.13646
  0
LINE
  8
0
 10
5.46831
 20
5.13646
 11
5.13646
 21
5.46831
  0
LINE
  8
0
 10
5.13646
 20
5.46831
 11
4.9234
 21
5.88646
  0
LINE
  8
0
 10
4.9234
 20
5.88646
 11
4.84999
 21
6.34999
  0
LINE
  8
0
 10
4.84999
 20
6.34999
 11
4.9234
 21
6.81352
  0
LINE
  8
0
 10
4.9234
 20
6.81352
 11
5.13646
 21
7.23167
  0
LINE
  8
0
 10
5.13646
 20
7.23167
 11
5.46831
 21
7.56352
  0
LINE
  8
0
 10
5.46831
 20
7.56352
 11
5.88646
 21
7.77658
  0
LINE
  8
0
 10
5.88646
 20
7.77658
 11
6.34999
 21
7.84999
  0
LINE
  8
0
 10
6.34999
 20
7.84999
 11
6.81352
 21
7.77658
  0
LINE
  8
0
 10
6.81352
 20
7.77658
 11
7.23167
 21
7.56352
  0
LINE
  8
0
 10
7.23167
 20
7.56352
 11
7.56352
 21
7.23167
  0
LINE
  8
0
 10
7.56352
 20
7.23167
 11
7.77658
 21
6.81352
  0
LINE
  8
0
 10
7.77658
 20
6.81352
 11
7.84999
 21
6.34999
  0
LINE
  8
0
 10
7.84999
 20
6.34999
 11
7.77658
 21
5.88646
  0
LINE
  8
0
 10
7.77658
 20
5.88646
 11
7.56352
 21
5.46831
  0
LINE
  8
0
 10
7.56352
 20
5.46831
 11
7.23167
 21
5.13646
  0
LINE
  8
0
 10
7.23167
 20
5.13646
 11
6.81352
 21
4.9234
  0
LINE
  8
0
 10
6.81352
 20
4.9234
 11
6.34999
 21
4.84999
  0
LINE
  8
0
 10
6.34999
 20
4.84999
 11
5.88646
 21
4.9234
  0
LINE
  8
0
 10
143.136
 20
4.9234
 11
142.718
 21
5.13646
  0
LINE
  8
0
 10
142.718
 20
5.13646
 11
142.386
 21
5.46831
  0
LINE
  8
0
 10
142.386
 20
5.46831
 11
142.173
 21
5.88646
  0
LINE
  8
0
 10
142.173
 20
5.88646
 11
142.1
 21
6.34999
  0
LINE
  8
0
 10
142.1
 20
6.34999
 11
142.173
 21
6.81352
  0
LINE
  8
0
 10
142.173
 20
6.81352
 11
142.386
 21
7.23167
  0
LINE
  8
0
 10
142.386
 20
7.23167
 11
142.718
 21
7.56352
  0
LINE
  8
0
 10
142.718
 20
7.56352
 11
143.136
 21
7.77658
  0
LINE
  8
0
 10
143.136
 20
7.77658
 11
143.6
 21
7.84999
  0
LINE
  8
0
 10
143.6
 20
7.84999
 11
144.064
 21
7.77658
  0
LINE
  8
0
 10
144.064
 20
7.77658
 11
144.482
 21
7.56352
  0
LINE
  8
0
 10
144.482
 20
7.56352
 11
144.814
 21
7.23167
  0
LINE
  8
0
 10
144.814
 20
7.23167
 11
145.027
 21
6.81352
  0
LINE
  8
0
 10
145.027
 20
6.81352
 11
145.1
 21
6.34999
  0
LINE
  8
0
 10
145.1
 20
6.34999
 11
145.027
 21
5.88646
  0
LINE
  8
0
 10
145.027
 20
5.88646
 11
144.814
 21
5.46831
  0
LINE
  8
0
 10
144.814
 20
5.46831
 11
144.482
 21
5.13646
  0
LINE
  8
0
 10
144.482
 20
5.13646
 11
144.064
 21
4.9234
  0
LINE
  8
0
 10
144.064
 20
4.9234
 11
143.6
 21
4.84999
  0
LINE
  8
0
 10
143.6
 20
4.84999
 11
143.136
 21
4.9234
  0
ENDSEC
  0
SECTION
  2
OBJECTS
  0
DICTIONARY
  0
ENDSEC
  0
EOF
