M48
;DRILL file {KiCad (2015-06-14 BZR 5747, Git dc9ebf3)-product} date 8/2/2015 5:59:29 PM
;FORMAT={-:-/ absolute / inch / decimal}
FMAT,2
INCH,TZ
T1C0.016
T2C0.030
T3C0.031
T4C0.035
T5C0.039
T6C0.040
T7C0.118
%
G90
G05
M72
T1
X1.855Y-5.32
X1.895Y-5.47
X1.945Y-5.195
X2.125Y-5.19
X2.1681Y-4.3032
X2.2Y-5.28
X2.205Y-5.15
X2.299Y-4.4253
X2.3868Y-4.7534
X2.6425Y-3.855
X2.695Y-4.295
X2.7375Y-2.9025
X2.75Y-4.83
X2.7575Y-3.8225
X2.775Y-4.
X2.785Y-3.795
X2.83Y-3.8225
X2.8375Y-3.855
X2.8575Y-3.795
X2.87Y-5.16
X2.9502Y-4.1679
X3.045Y-5.165
X3.045Y-5.355
X3.115Y-2.85
X3.2153Y-4.3648
X3.2934Y-4.3021
X3.3352Y-4.7575
X3.4496Y-4.7256
X3.5948Y-4.7256
X3.6168Y-3.0262
X3.6501Y-3.0264
X3.755Y-5.27
X3.759Y-2.8335
X3.7674Y-2.8647
X3.85Y-5.17
X3.924Y-3.5832
X3.976Y-3.6568
X4.015Y-5.17
X4.0162Y-3.6532
X4.0525Y-3.235
X4.0932Y-3.8632
X4.1325Y-3.28
X4.1416Y-3.695
X4.1592Y-3.9318
X4.2025Y-3.235
X4.203Y-3.928
X4.2064Y-4.2576
X4.235Y-4.4975
X4.2425Y-3.2825
X4.2702Y-3.7944
X4.2858Y-3.6266
X4.2872Y-4.7536
X4.3044Y-3.7896
X4.306Y-3.6526
X4.312Y-4.3576
X4.3375Y-3.655
X4.345Y-3.2075
X4.425Y-3.5275
X4.43Y-3.5925
X4.4596Y-3.9148
X4.5192Y-3.9392
X4.5714Y-3.6228
X4.6038Y-2.811
X4.6368Y-3.9966
X4.6375Y-4.4075
X4.68Y-5.39
X4.715Y-4.02
X4.749Y-3.663
X4.77Y-5.135
X4.7808Y-3.6716
X4.784Y-3.936
X4.83Y-3.927
X4.8532Y-2.97
X4.87Y-3.9532
X4.8744Y-4.1918
X4.93Y-5.14
X4.9422Y-2.8776
X5.0704Y-4.3712
X5.1496Y-4.3016
X5.2368Y-4.7544
X5.2938Y-3.5118
X5.64Y-5.28
X5.755Y-5.15
X5.89Y-5.155
X6.0368Y-4.276
X6.13Y-4.475
X6.1608Y-4.3872
X6.1871Y-4.7543
X6.2336Y-2.9256
X6.246Y-2.856
X6.2856Y-3.084
X6.3492Y-3.0168
X6.3706Y-2.8546
X6.4719Y-3.0487
X6.4746Y-3.2703
X6.545Y-4.3925
X6.59Y-5.425
X6.6175Y-4.0825
X6.675Y-5.17
X6.774Y-4.2432
X6.825Y-5.17
X6.9392Y-2.8656
X7.0147Y-4.4462
X7.084Y-4.3769
X7.1373Y-4.7547
T2
X3.8257Y-3.56
X3.8257Y-3.66
X3.8257Y-3.76
X3.8257Y-3.86
X3.8257Y-3.96
X3.8257Y-4.06
T3
X1.925Y-4.605
X1.925Y-4.905
X2.025Y-4.605
X2.025Y-4.905
X2.125Y-4.605
X2.125Y-4.905
X2.225Y-4.605
X2.225Y-4.905
X2.325Y-4.605
X2.325Y-4.905
X2.425Y-4.605
X2.425Y-4.905
X2.525Y-4.605
X2.525Y-4.905
X2.625Y-4.605
X2.625Y-4.905
X2.875Y-4.605
X2.875Y-4.905
X2.975Y-4.605
X2.975Y-4.905
X3.075Y-4.605
X3.075Y-4.905
X3.175Y-4.605
X3.175Y-4.905
X3.275Y-4.605
X3.275Y-4.905
X3.375Y-4.605
X3.375Y-4.905
X3.475Y-4.605
X3.475Y-4.905
X3.575Y-4.605
X3.575Y-4.905
X3.825Y-4.605
X3.825Y-4.905
X3.925Y-4.605
X3.925Y-4.905
X4.025Y-4.605
X4.025Y-4.905
X4.125Y-4.605
X4.125Y-4.905
X4.225Y-4.605
X4.225Y-4.905
X4.325Y-4.605
X4.325Y-4.905
X4.425Y-4.605
X4.425Y-4.905
X4.525Y-4.605
X4.525Y-4.905
X4.775Y-4.605
X4.775Y-4.905
X4.875Y-4.605
X4.875Y-4.905
X4.975Y-4.605
X4.975Y-4.905
X5.075Y-4.605
X5.075Y-4.905
X5.175Y-4.605
X5.175Y-4.905
X5.275Y-4.605
X5.275Y-4.905
X5.375Y-4.605
X5.375Y-4.905
X5.475Y-4.605
X5.475Y-4.905
X5.725Y-4.605
X5.725Y-4.905
X5.825Y-4.605
X5.825Y-4.905
X5.925Y-4.605
X5.925Y-4.905
X6.025Y-4.605
X6.025Y-4.905
X6.125Y-4.605
X6.125Y-4.905
X6.225Y-4.605
X6.225Y-4.905
X6.325Y-4.605
X6.325Y-4.905
X6.425Y-4.605
X6.425Y-4.905
X6.675Y-4.605
X6.675Y-4.905
X6.775Y-4.605
X6.775Y-4.905
X6.875Y-4.605
X6.875Y-4.905
X6.975Y-4.605
X6.975Y-4.905
X7.075Y-4.605
X7.075Y-4.905
X7.175Y-4.605
X7.175Y-4.905
X7.275Y-4.605
X7.275Y-4.905
X7.375Y-4.605
X7.375Y-4.905
T4
X2.1555Y-5.4534
X2.1685Y-5.5609
X2.1941Y-5.3519
X2.2303Y-5.6499
X2.2752Y-5.2802
X2.326Y-5.7003
X2.3803Y-5.2542
X2.4346Y-5.7003
X2.4854Y-5.2802
X2.5303Y-5.6499
X2.5665Y-5.3519
X2.5921Y-5.5609
X2.6051Y-5.4534
X2.9305Y-5.4534
X2.9435Y-5.5609
X2.9691Y-5.3519
X3.0053Y-5.6499
X3.0502Y-5.2802
X3.101Y-5.7003
X3.1553Y-5.2542
X3.2096Y-5.7003
X3.2604Y-5.2802
X3.3053Y-5.6499
X3.3415Y-5.3519
X3.3671Y-5.5609
X3.3801Y-5.4534
X4.0555Y-5.4534
X4.0685Y-5.5609
X4.0941Y-5.3519
X4.1303Y-5.6499
X4.1752Y-5.2802
X4.226Y-5.7003
X4.2803Y-5.2542
X4.3346Y-5.7003
X4.3854Y-5.2802
X4.4303Y-5.6499
X4.4665Y-5.3519
X4.4921Y-5.5609
X4.5051Y-5.4534
X4.8305Y-5.4534
X4.8435Y-5.5609
X4.8691Y-5.3519
X4.9053Y-5.6499
X4.9502Y-5.2802
X5.001Y-5.7003
X5.0553Y-5.2542
X5.1096Y-5.7003
X5.1604Y-5.2802
X5.2053Y-5.6499
X5.2415Y-5.3519
X5.2671Y-5.5609
X5.2801Y-5.4534
X5.9555Y-5.4534
X5.9685Y-5.5609
X5.9941Y-5.3519
X6.0303Y-5.6499
X6.0752Y-5.2802
X6.126Y-5.7003
X6.1803Y-5.2542
X6.2346Y-5.7003
X6.2854Y-5.2802
X6.3303Y-5.6499
X6.3665Y-5.3519
X6.3921Y-5.5609
X6.4051Y-5.4534
X6.7305Y-5.4534
X6.7435Y-5.5609
X6.7691Y-5.3519
X6.8053Y-5.6499
X6.8502Y-5.2802
X6.901Y-5.7003
X6.9553Y-5.2542
X7.0096Y-5.7003
X7.0604Y-5.2802
X7.1053Y-5.6499
X7.1415Y-5.3519
X7.1671Y-5.5609
X7.1801Y-5.4534
T5
X2.8325Y-3.2475
X2.9325Y-3.2475
X3.0325Y-3.2475
X3.695Y-2.48
X3.695Y-2.58
X3.695Y-2.68
T6
X4.1725Y-2.9825
X4.1725Y-3.0825
X4.2725Y-2.9825
X4.2725Y-3.0825
X4.3725Y-2.9825
X4.3725Y-3.0825
T7
X1.9824Y-2.5731
X1.9824Y-6.0099
X7.3876Y-2.573
X7.3876Y-6.0096
T5
X3.905Y-2.5716G85X3.905Y-2.6503
G05
X4.1293Y-2.4929G85X4.0507Y-2.4929
G05
X4.1293Y-2.7291G85X4.0507Y-2.7291
G05
T0
M30
