G04 #@! TF.FileFunction,Legend,Bot*
%FSLAX46Y46*%
G04 Gerber Fmt 4.6, Leading zero omitted, Abs format (unit mm)*
G04 Created by KiCad (PCBNEW (2015-06-14 BZR 5747, Git dc9ebf3)-product) date 8/2/2015 5:58:45 PM*
%MOMM*%
G01*
G04 APERTURE LIST*
%ADD10C,0.100000*%
%ADD11C,0.150000*%
G04 APERTURE END LIST*
D10*
D11*
X162934000Y-68581000D02*
X177934000Y-68581000D01*
X162934000Y-84581000D02*
X177934000Y-84581000D01*
X162906786Y-84555399D02*
G75*
G02X162934000Y-68581000I7527214J7974399D01*
G01*
X177961214Y-68606601D02*
G75*
G02X177934000Y-84581000I-7527214J-7974399D01*
G01*
X137174000Y-111774000D02*
X107174000Y-111774000D01*
X107174000Y-81774000D02*
X107174000Y-111774000D01*
X107174000Y-81774000D02*
X137174000Y-81774000D01*
X137174000Y-111774000D02*
X137174000Y-81774000D01*
X171372095Y-86143381D02*
X171372095Y-85143381D01*
X170991142Y-85143381D01*
X170895904Y-85191000D01*
X170848285Y-85238619D01*
X170800666Y-85333857D01*
X170800666Y-85476714D01*
X170848285Y-85571952D01*
X170895904Y-85619571D01*
X170991142Y-85667190D01*
X171372095Y-85667190D01*
X170467333Y-85143381D02*
X169848285Y-85143381D01*
X170181619Y-85524333D01*
X170038761Y-85524333D01*
X169943523Y-85571952D01*
X169895904Y-85619571D01*
X169848285Y-85714810D01*
X169848285Y-85952905D01*
X169895904Y-86048143D01*
X169943523Y-86095762D01*
X170038761Y-86143381D01*
X170324476Y-86143381D01*
X170419714Y-86095762D01*
X170467333Y-86048143D01*
X122795905Y-79856381D02*
X122795905Y-80665905D01*
X122748286Y-80761143D01*
X122700667Y-80808762D01*
X122605429Y-80856381D01*
X122414952Y-80856381D01*
X122319714Y-80808762D01*
X122272095Y-80761143D01*
X122224476Y-80665905D01*
X122224476Y-79856381D01*
X121795905Y-79951619D02*
X121748286Y-79904000D01*
X121653048Y-79856381D01*
X121414952Y-79856381D01*
X121319714Y-79904000D01*
X121272095Y-79951619D01*
X121224476Y-80046857D01*
X121224476Y-80142095D01*
X121272095Y-80284952D01*
X121843524Y-80856381D01*
X121224476Y-80856381D01*
M02*
