G04 #@! TF.FileFunction,Soldermask,Bot*
%FSLAX46Y46*%
G04 Gerber Fmt 4.6, Leading zero omitted, Abs format (unit mm)*
G04 Created by KiCad (PCBNEW (2015-06-14 BZR 5747, Git dc9ebf3)-product) date 8/2/2015 5:58:45 PM*
%MOMM*%
G01*
G04 APERTURE LIST*
%ADD10C,0.100000*%
%ADD11O,1.600000X2.300000*%
%ADD12C,1.524000*%
%ADD13R,3.500120X3.500120*%
%ADD14R,1.727200X1.727200*%
%ADD15O,1.727200X1.727200*%
%ADD16R,4.200000X4.200000*%
%ADD17O,1.501140X2.499360*%
%ADD18O,2.499360X1.501140*%
G04 APERTURE END LIST*
D10*
D11*
X163195000Y-116967000D03*
X160655000Y-116967000D03*
X158115000Y-116967000D03*
X155575000Y-116967000D03*
X153035000Y-116967000D03*
X150495000Y-116967000D03*
X147955000Y-116967000D03*
X145415000Y-116967000D03*
X145415000Y-124587000D03*
X147955000Y-124587000D03*
X150495000Y-124587000D03*
X153035000Y-124587000D03*
X155575000Y-124587000D03*
X158115000Y-124587000D03*
X160655000Y-124587000D03*
X163195000Y-124587000D03*
X187325000Y-116967000D03*
X184785000Y-116967000D03*
X182245000Y-116967000D03*
X179705000Y-116967000D03*
X177165000Y-116967000D03*
X174625000Y-116967000D03*
X172085000Y-116967000D03*
X169545000Y-116967000D03*
X169545000Y-124587000D03*
X172085000Y-124587000D03*
X174625000Y-124587000D03*
X177165000Y-124587000D03*
X179705000Y-124587000D03*
X182245000Y-124587000D03*
X184785000Y-124587000D03*
X187325000Y-124587000D03*
X66675000Y-116967000D03*
X64135000Y-116967000D03*
X61595000Y-116967000D03*
X59055000Y-116967000D03*
X56515000Y-116967000D03*
X53975000Y-116967000D03*
X51435000Y-116967000D03*
X48895000Y-116967000D03*
X48895000Y-124587000D03*
X51435000Y-124587000D03*
X53975000Y-124587000D03*
X56515000Y-124587000D03*
X59055000Y-124587000D03*
X61595000Y-124587000D03*
X64135000Y-124587000D03*
X66675000Y-124587000D03*
X90805000Y-116967000D03*
X88265000Y-116967000D03*
X85725000Y-116967000D03*
X83185000Y-116967000D03*
X80645000Y-116967000D03*
X78105000Y-116967000D03*
X75565000Y-116967000D03*
X73025000Y-116967000D03*
X73025000Y-124587000D03*
X75565000Y-124587000D03*
X78105000Y-124587000D03*
X80645000Y-124587000D03*
X83185000Y-124587000D03*
X85725000Y-124587000D03*
X88265000Y-124587000D03*
X90805000Y-124587000D03*
X114935000Y-116967000D03*
X112395000Y-116967000D03*
X109855000Y-116967000D03*
X107315000Y-116967000D03*
X104775000Y-116967000D03*
X102235000Y-116967000D03*
X99695000Y-116967000D03*
X97155000Y-116967000D03*
X97155000Y-124587000D03*
X99695000Y-124587000D03*
X102235000Y-124587000D03*
X104775000Y-124587000D03*
X107315000Y-124587000D03*
X109855000Y-124587000D03*
X112395000Y-124587000D03*
X114935000Y-124587000D03*
X139065000Y-116967000D03*
X136525000Y-116967000D03*
X133985000Y-116967000D03*
X131445000Y-116967000D03*
X128905000Y-116967000D03*
X126365000Y-116967000D03*
X123825000Y-116967000D03*
X121285000Y-116967000D03*
X121285000Y-124587000D03*
X123825000Y-124587000D03*
X126365000Y-124587000D03*
X128905000Y-124587000D03*
X131445000Y-124587000D03*
X133985000Y-124587000D03*
X136525000Y-124587000D03*
X139065000Y-124587000D03*
D12*
X60460000Y-133457000D03*
X57790000Y-134117000D03*
X55730000Y-135937000D03*
X54750000Y-138517000D03*
X55080000Y-141247000D03*
X56650000Y-143507000D03*
X59080000Y-144787000D03*
X61840000Y-144787000D03*
X64270000Y-143507000D03*
X65840000Y-141247000D03*
X66170000Y-138517000D03*
X65190000Y-135937000D03*
X63130000Y-134117000D03*
X80145000Y-133457000D03*
X77475000Y-134117000D03*
X75415000Y-135937000D03*
X74435000Y-138517000D03*
X74765000Y-141247000D03*
X76335000Y-143507000D03*
X78765000Y-144787000D03*
X81525000Y-144787000D03*
X83955000Y-143507000D03*
X85525000Y-141247000D03*
X85855000Y-138517000D03*
X84875000Y-135937000D03*
X82815000Y-134117000D03*
X108720000Y-133457000D03*
X106050000Y-134117000D03*
X103990000Y-135937000D03*
X103010000Y-138517000D03*
X103340000Y-141247000D03*
X104910000Y-143507000D03*
X107340000Y-144787000D03*
X110100000Y-144787000D03*
X112530000Y-143507000D03*
X114100000Y-141247000D03*
X114430000Y-138517000D03*
X113450000Y-135937000D03*
X111390000Y-134117000D03*
X128405000Y-133457000D03*
X125735000Y-134117000D03*
X123675000Y-135937000D03*
X122695000Y-138517000D03*
X123025000Y-141247000D03*
X124595000Y-143507000D03*
X127025000Y-144787000D03*
X129785000Y-144787000D03*
X132215000Y-143507000D03*
X133785000Y-141247000D03*
X134115000Y-138517000D03*
X133135000Y-135937000D03*
X131075000Y-134117000D03*
X156980000Y-133457000D03*
X154310000Y-134117000D03*
X152250000Y-135937000D03*
X151270000Y-138517000D03*
X151600000Y-141247000D03*
X153170000Y-143507000D03*
X155600000Y-144787000D03*
X158360000Y-144787000D03*
X160790000Y-143507000D03*
X162360000Y-141247000D03*
X162690000Y-138517000D03*
X161710000Y-135937000D03*
X159650000Y-134117000D03*
X176665000Y-133457000D03*
X173995000Y-134117000D03*
X171935000Y-135937000D03*
X170955000Y-138517000D03*
X171285000Y-141247000D03*
X172855000Y-143507000D03*
X175285000Y-144787000D03*
X178045000Y-144787000D03*
X180475000Y-143507000D03*
X182045000Y-141247000D03*
X182375000Y-138517000D03*
X181395000Y-135937000D03*
X179335000Y-134117000D03*
D13*
X103886000Y-69319140D03*
X103886000Y-63319660D03*
X99187000Y-66319400D03*
D14*
X105981500Y-78295500D03*
D15*
X105981500Y-75755500D03*
X108521500Y-78295500D03*
X108521500Y-75755500D03*
X111061500Y-78295500D03*
X111061500Y-75755500D03*
D16*
X155284000Y-76581000D03*
X185584000Y-76581000D03*
D12*
X97174000Y-103124000D03*
X97174000Y-100584000D03*
X97174000Y-98044000D03*
X97174000Y-95504000D03*
X97174000Y-92964000D03*
X97174000Y-90424000D03*
D17*
X74485500Y-82486500D03*
X77025500Y-82486500D03*
X71945500Y-82486500D03*
D18*
X93853000Y-65532000D03*
X93853000Y-68072000D03*
X93853000Y-62992000D03*
M02*
