G04 #@! TF.FileFunction,Legend,Top*
%FSLAX46Y46*%
G04 Gerber Fmt 4.6, Leading zero omitted, Abs format (unit mm)*
G04 Created by KiCad (PCBNEW (2015-06-14 BZR 5747, Git dc9ebf3)-product) date 8/2/2015 5:58:45 PM*
%MOMM*%
G01*
G04 APERTURE LIST*
%ADD10C,0.100000*%
%ADD11C,0.300000*%
%ADD12C,0.150000*%
G04 APERTURE END LIST*
D10*
D11*
X140640529Y-91493324D02*
X140640529Y-87493324D01*
X141497672Y-91493324D01*
X141497672Y-87493324D01*
X142211958Y-91493324D02*
X142211958Y-88826657D01*
X142211958Y-87493324D02*
X142140529Y-87683800D01*
X142211958Y-87874276D01*
X142283386Y-87683800D01*
X142211958Y-87493324D01*
X142211958Y-87874276D01*
X142783387Y-91493324D02*
X143569101Y-88826657D01*
X142783387Y-88826657D02*
X143569101Y-91493324D01*
X144140530Y-91493324D02*
X144140530Y-88826657D01*
X144140530Y-87493324D02*
X144069101Y-87683800D01*
X144140530Y-87874276D01*
X144211958Y-87683800D01*
X144140530Y-87493324D01*
X144140530Y-87874276D01*
X145426244Y-91302848D02*
X145283387Y-91493324D01*
X144997673Y-91493324D01*
X144854816Y-91302848D01*
X144783387Y-90921895D01*
X144783387Y-89398086D01*
X144854816Y-89017133D01*
X144997673Y-88826657D01*
X145283387Y-88826657D01*
X145426244Y-89017133D01*
X145497673Y-89398086D01*
X145497673Y-89779038D01*
X144783387Y-90159990D01*
X147069101Y-87493324D02*
X147926244Y-87493324D01*
X147497673Y-91493324D02*
X147497673Y-87493324D01*
X149069101Y-88826657D02*
X149069101Y-91493324D01*
X148426244Y-88826657D02*
X148426244Y-90921895D01*
X148497672Y-91302848D01*
X148640530Y-91493324D01*
X148854815Y-91493324D01*
X148997672Y-91302848D01*
X149069101Y-91112371D01*
X149783387Y-91493324D02*
X149783387Y-87493324D01*
X149783387Y-89017133D02*
X149926244Y-88826657D01*
X150211958Y-88826657D01*
X150354815Y-89017133D01*
X150426244Y-89207610D01*
X150497673Y-89588562D01*
X150497673Y-90731419D01*
X150426244Y-91112371D01*
X150354815Y-91302848D01*
X150211958Y-91493324D01*
X149926244Y-91493324D01*
X149783387Y-91302848D01*
X151711958Y-91302848D02*
X151569101Y-91493324D01*
X151283387Y-91493324D01*
X151140530Y-91302848D01*
X151069101Y-90921895D01*
X151069101Y-89398086D01*
X151140530Y-89017133D01*
X151283387Y-88826657D01*
X151569101Y-88826657D01*
X151711958Y-89017133D01*
X151783387Y-89398086D01*
X151783387Y-89779038D01*
X151069101Y-90159990D01*
X154426244Y-91112371D02*
X154354815Y-91302848D01*
X154140529Y-91493324D01*
X153997672Y-91493324D01*
X153783387Y-91302848D01*
X153640529Y-90921895D01*
X153569101Y-90540943D01*
X153497672Y-89779038D01*
X153497672Y-89207610D01*
X153569101Y-88445705D01*
X153640529Y-88064752D01*
X153783387Y-87683800D01*
X153997672Y-87493324D01*
X154140529Y-87493324D01*
X154354815Y-87683800D01*
X154426244Y-87874276D01*
X155283387Y-91493324D02*
X155140529Y-91302848D01*
X155069101Y-90921895D01*
X155069101Y-87493324D01*
X156069101Y-91493324D02*
X155926243Y-91302848D01*
X155854815Y-91112371D01*
X155783386Y-90731419D01*
X155783386Y-89588562D01*
X155854815Y-89207610D01*
X155926243Y-89017133D01*
X156069101Y-88826657D01*
X156283386Y-88826657D01*
X156426243Y-89017133D01*
X156497672Y-89207610D01*
X156569101Y-89588562D01*
X156569101Y-90731419D01*
X156497672Y-91112371D01*
X156426243Y-91302848D01*
X156283386Y-91493324D01*
X156069101Y-91493324D01*
X157854815Y-91302848D02*
X157711958Y-91493324D01*
X157426244Y-91493324D01*
X157283386Y-91302848D01*
X157211958Y-91112371D01*
X157140529Y-90731419D01*
X157140529Y-89588562D01*
X157211958Y-89207610D01*
X157283386Y-89017133D01*
X157426244Y-88826657D01*
X157711958Y-88826657D01*
X157854815Y-89017133D01*
X158497672Y-91493324D02*
X158497672Y-87493324D01*
X158640529Y-89969514D02*
X159069100Y-91493324D01*
X159069100Y-88826657D02*
X158497672Y-90350467D01*
X160640529Y-87493324D02*
X161140529Y-91493324D01*
X161640529Y-87493324D01*
X162926243Y-91493324D02*
X162069100Y-91493324D01*
X162497672Y-91493324D02*
X162497672Y-87493324D01*
X162354815Y-88064752D01*
X162211957Y-88445705D01*
X162069100Y-88636181D01*
X163569100Y-91112371D02*
X163640528Y-91302848D01*
X163569100Y-91493324D01*
X163497671Y-91302848D01*
X163569100Y-91112371D01*
X163569100Y-91493324D01*
X164569100Y-87493324D02*
X164711957Y-87493324D01*
X164854814Y-87683800D01*
X164926243Y-87874276D01*
X164997672Y-88255229D01*
X165069100Y-89017133D01*
X165069100Y-89969514D01*
X164997672Y-90731419D01*
X164926243Y-91112371D01*
X164854814Y-91302848D01*
X164711957Y-91493324D01*
X164569100Y-91493324D01*
X164426243Y-91302848D01*
X164354814Y-91112371D01*
X164283386Y-90731419D01*
X164211957Y-89969514D01*
X164211957Y-89017133D01*
X164283386Y-88255229D01*
X164354814Y-87874276D01*
X164426243Y-87683800D01*
X164569100Y-87493324D01*
X146140529Y-93774276D02*
X146211958Y-93583800D01*
X146354815Y-93393324D01*
X146711958Y-93393324D01*
X146854815Y-93583800D01*
X146926244Y-93774276D01*
X146997672Y-94155229D01*
X146997672Y-94536181D01*
X146926244Y-95107610D01*
X146069101Y-97393324D01*
X146997672Y-97393324D01*
X148640529Y-94726657D02*
X148997672Y-97393324D01*
X149354814Y-94726657D02*
X148997672Y-97393324D01*
X148854814Y-98345705D01*
X148783386Y-98536181D01*
X148640529Y-98726657D01*
X150497671Y-97202848D02*
X150354814Y-97393324D01*
X150069100Y-97393324D01*
X149926243Y-97202848D01*
X149854814Y-96821895D01*
X149854814Y-95298086D01*
X149926243Y-94917133D01*
X150069100Y-94726657D01*
X150354814Y-94726657D01*
X150497671Y-94917133D01*
X150569100Y-95298086D01*
X150569100Y-95679038D01*
X149854814Y-96059990D01*
X151854814Y-97393324D02*
X151854814Y-95298086D01*
X151783385Y-94917133D01*
X151640528Y-94726657D01*
X151354814Y-94726657D01*
X151211957Y-94917133D01*
X151854814Y-97202848D02*
X151711957Y-97393324D01*
X151354814Y-97393324D01*
X151211957Y-97202848D01*
X151140528Y-96821895D01*
X151140528Y-96440943D01*
X151211957Y-96059990D01*
X151354814Y-95869514D01*
X151711957Y-95869514D01*
X151854814Y-95679038D01*
X152569100Y-97393324D02*
X152569100Y-94726657D01*
X152569100Y-95488562D02*
X152640528Y-95107610D01*
X152711957Y-94917133D01*
X152854814Y-94726657D01*
X152997671Y-94726657D01*
X153426242Y-97202848D02*
X153569099Y-97393324D01*
X153854814Y-97393324D01*
X153997671Y-97202848D01*
X154069099Y-96821895D01*
X154069099Y-96631419D01*
X153997671Y-96250467D01*
X153854814Y-96059990D01*
X153640528Y-96059990D01*
X153497671Y-95869514D01*
X153426242Y-95488562D01*
X153426242Y-95298086D01*
X153497671Y-94917133D01*
X153640528Y-94726657D01*
X153854814Y-94726657D01*
X153997671Y-94917133D01*
X156069100Y-97393324D02*
X155926242Y-97202848D01*
X155854814Y-96821895D01*
X155854814Y-93393324D01*
X157283385Y-97393324D02*
X157283385Y-95298086D01*
X157211956Y-94917133D01*
X157069099Y-94726657D01*
X156783385Y-94726657D01*
X156640528Y-94917133D01*
X157283385Y-97202848D02*
X157140528Y-97393324D01*
X156783385Y-97393324D01*
X156640528Y-97202848D01*
X156569099Y-96821895D01*
X156569099Y-96440943D01*
X156640528Y-96059990D01*
X156783385Y-95869514D01*
X157140528Y-95869514D01*
X157283385Y-95679038D01*
X157783385Y-94726657D02*
X158354814Y-94726657D01*
X157997671Y-93393324D02*
X157997671Y-96821895D01*
X158069099Y-97202848D01*
X158211957Y-97393324D01*
X158354814Y-97393324D01*
X159426242Y-97202848D02*
X159283385Y-97393324D01*
X158997671Y-97393324D01*
X158854814Y-97202848D01*
X158783385Y-96821895D01*
X158783385Y-95298086D01*
X158854814Y-94917133D01*
X158997671Y-94726657D01*
X159283385Y-94726657D01*
X159426242Y-94917133D01*
X159497671Y-95298086D01*
X159497671Y-95679038D01*
X158783385Y-96059990D01*
D12*
X81812500Y-76001500D02*
X81812500Y-75001500D01*
X80112500Y-75001500D02*
X80112500Y-76001500D01*
X119722000Y-90098500D02*
X119722000Y-89098500D01*
X118022000Y-89098500D02*
X118022000Y-90098500D01*
X102005500Y-90225500D02*
X102005500Y-89225500D01*
X100305500Y-89225500D02*
X100305500Y-90225500D01*
X68635500Y-69317500D02*
X67635500Y-69317500D01*
X67635500Y-71017500D02*
X68635500Y-71017500D01*
X153805000Y-121627000D02*
X154805000Y-121627000D01*
X154805000Y-119927000D02*
X153805000Y-119927000D01*
X177935000Y-121627000D02*
X178935000Y-121627000D01*
X178935000Y-119927000D02*
X177935000Y-119927000D01*
X75780000Y-103497000D02*
X75780000Y-102497000D01*
X74080000Y-102497000D02*
X74080000Y-103497000D01*
X124675000Y-104132000D02*
X124675000Y-103132000D01*
X122975000Y-103132000D02*
X122975000Y-104132000D01*
X172935000Y-105402000D02*
X172935000Y-104402000D01*
X171235000Y-104402000D02*
X171235000Y-105402000D01*
X57285000Y-121627000D02*
X58285000Y-121627000D01*
X58285000Y-119927000D02*
X57285000Y-119927000D01*
X81415000Y-121627000D02*
X82415000Y-121627000D01*
X82415000Y-119927000D02*
X81415000Y-119927000D01*
X105545000Y-121627000D02*
X106545000Y-121627000D01*
X106545000Y-119927000D02*
X105545000Y-119927000D01*
X129675000Y-121627000D02*
X130675000Y-121627000D01*
X130675000Y-119927000D02*
X129675000Y-119927000D01*
X126735840Y-93426280D02*
X126735840Y-93101160D01*
X126735840Y-93101160D02*
X127236220Y-93101160D01*
X127236220Y-93426280D02*
X127236220Y-93101160D01*
X126735840Y-93426280D02*
X127236220Y-93426280D01*
X126735840Y-94048580D02*
X126735840Y-93898720D01*
X126735840Y-93898720D02*
X126987300Y-93898720D01*
X126987300Y-94048580D02*
X126987300Y-93898720D01*
X126735840Y-94048580D02*
X126987300Y-94048580D01*
X126735840Y-93553280D02*
X126735840Y-93403420D01*
X126735840Y-93403420D02*
X126987300Y-93403420D01*
X126987300Y-93553280D02*
X126987300Y-93403420D01*
X126735840Y-93553280D02*
X126987300Y-93553280D01*
X126735840Y-93924120D02*
X126735840Y-93527880D01*
X126735840Y-93527880D02*
X126911100Y-93527880D01*
X126911100Y-93924120D02*
X126911100Y-93527880D01*
X126735840Y-93924120D02*
X126911100Y-93924120D01*
X125239780Y-93426280D02*
X125239780Y-93101160D01*
X125239780Y-93101160D02*
X125740160Y-93101160D01*
X125740160Y-93426280D02*
X125740160Y-93101160D01*
X125239780Y-93426280D02*
X125740160Y-93426280D01*
X125239780Y-94350840D02*
X125239780Y-94025720D01*
X125239780Y-94025720D02*
X125740160Y-94025720D01*
X125740160Y-94350840D02*
X125740160Y-94025720D01*
X125239780Y-94350840D02*
X125740160Y-94350840D01*
X125488700Y-93553280D02*
X125488700Y-93403420D01*
X125488700Y-93403420D02*
X125740160Y-93403420D01*
X125740160Y-93553280D02*
X125740160Y-93403420D01*
X125488700Y-93553280D02*
X125740160Y-93553280D01*
X125488700Y-94048580D02*
X125488700Y-93898720D01*
X125488700Y-93898720D02*
X125740160Y-93898720D01*
X125740160Y-94048580D02*
X125740160Y-93898720D01*
X125488700Y-94048580D02*
X125740160Y-94048580D01*
X125564900Y-93924120D02*
X125564900Y-93527880D01*
X125564900Y-93527880D02*
X125740160Y-93527880D01*
X125740160Y-93924120D02*
X125740160Y-93527880D01*
X125564900Y-93924120D02*
X125740160Y-93924120D01*
X126238000Y-93825060D02*
X126238000Y-93626940D01*
X126238000Y-93626940D02*
X126436120Y-93626940D01*
X126436120Y-93825060D02*
X126436120Y-93626940D01*
X126238000Y-93825060D02*
X126436120Y-93825060D01*
X126735840Y-94325440D02*
X126735840Y-94025720D01*
X126735840Y-94025720D02*
X127035560Y-94025720D01*
X127035560Y-94325440D02*
X127035560Y-94025720D01*
X126735840Y-94325440D02*
X127035560Y-94325440D01*
X127162560Y-94350840D02*
X127162560Y-94124780D01*
X127162560Y-94124780D02*
X127236220Y-94124780D01*
X127236220Y-94350840D02*
X127236220Y-94124780D01*
X127162560Y-94350840D02*
X127236220Y-94350840D01*
X126761240Y-93151960D02*
X125714760Y-93151960D01*
X125740160Y-94300040D02*
X127162560Y-94300040D01*
X127158202Y-94175580D02*
G75*
G03X127158202Y-94175580I-71842J0D01*
G01*
X127236220Y-94073980D02*
G75*
G02X127236220Y-93378020I0J347980D01*
G01*
X125239780Y-93378020D02*
G75*
G02X125239780Y-94073980I0J-347980D01*
G01*
X126735840Y-90568780D02*
X126735840Y-90243660D01*
X126735840Y-90243660D02*
X127236220Y-90243660D01*
X127236220Y-90568780D02*
X127236220Y-90243660D01*
X126735840Y-90568780D02*
X127236220Y-90568780D01*
X126735840Y-91191080D02*
X126735840Y-91041220D01*
X126735840Y-91041220D02*
X126987300Y-91041220D01*
X126987300Y-91191080D02*
X126987300Y-91041220D01*
X126735840Y-91191080D02*
X126987300Y-91191080D01*
X126735840Y-90695780D02*
X126735840Y-90545920D01*
X126735840Y-90545920D02*
X126987300Y-90545920D01*
X126987300Y-90695780D02*
X126987300Y-90545920D01*
X126735840Y-90695780D02*
X126987300Y-90695780D01*
X126735840Y-91066620D02*
X126735840Y-90670380D01*
X126735840Y-90670380D02*
X126911100Y-90670380D01*
X126911100Y-91066620D02*
X126911100Y-90670380D01*
X126735840Y-91066620D02*
X126911100Y-91066620D01*
X125239780Y-90568780D02*
X125239780Y-90243660D01*
X125239780Y-90243660D02*
X125740160Y-90243660D01*
X125740160Y-90568780D02*
X125740160Y-90243660D01*
X125239780Y-90568780D02*
X125740160Y-90568780D01*
X125239780Y-91493340D02*
X125239780Y-91168220D01*
X125239780Y-91168220D02*
X125740160Y-91168220D01*
X125740160Y-91493340D02*
X125740160Y-91168220D01*
X125239780Y-91493340D02*
X125740160Y-91493340D01*
X125488700Y-90695780D02*
X125488700Y-90545920D01*
X125488700Y-90545920D02*
X125740160Y-90545920D01*
X125740160Y-90695780D02*
X125740160Y-90545920D01*
X125488700Y-90695780D02*
X125740160Y-90695780D01*
X125488700Y-91191080D02*
X125488700Y-91041220D01*
X125488700Y-91041220D02*
X125740160Y-91041220D01*
X125740160Y-91191080D02*
X125740160Y-91041220D01*
X125488700Y-91191080D02*
X125740160Y-91191080D01*
X125564900Y-91066620D02*
X125564900Y-90670380D01*
X125564900Y-90670380D02*
X125740160Y-90670380D01*
X125740160Y-91066620D02*
X125740160Y-90670380D01*
X125564900Y-91066620D02*
X125740160Y-91066620D01*
X126238000Y-90967560D02*
X126238000Y-90769440D01*
X126238000Y-90769440D02*
X126436120Y-90769440D01*
X126436120Y-90967560D02*
X126436120Y-90769440D01*
X126238000Y-90967560D02*
X126436120Y-90967560D01*
X126735840Y-91467940D02*
X126735840Y-91168220D01*
X126735840Y-91168220D02*
X127035560Y-91168220D01*
X127035560Y-91467940D02*
X127035560Y-91168220D01*
X126735840Y-91467940D02*
X127035560Y-91467940D01*
X127162560Y-91493340D02*
X127162560Y-91267280D01*
X127162560Y-91267280D02*
X127236220Y-91267280D01*
X127236220Y-91493340D02*
X127236220Y-91267280D01*
X127162560Y-91493340D02*
X127236220Y-91493340D01*
X126761240Y-90294460D02*
X125714760Y-90294460D01*
X125740160Y-91442540D02*
X127162560Y-91442540D01*
X127158202Y-91318080D02*
G75*
G03X127158202Y-91318080I-71842J0D01*
G01*
X127236220Y-91216480D02*
G75*
G02X127236220Y-90520520I0J347980D01*
G01*
X125239780Y-90520520D02*
G75*
G02X125239780Y-91216480I0J-347980D01*
G01*
X170688000Y-74803000D02*
X175768000Y-74803000D01*
X175768000Y-74803000D02*
X175768000Y-79375000D01*
X175768000Y-79375000D02*
X170688000Y-79375000D01*
X170688000Y-79375000D02*
X170688000Y-74803000D01*
X170688000Y-76327000D02*
X171196000Y-76327000D01*
X171196000Y-76327000D02*
X171196000Y-77597000D01*
X171196000Y-77597000D02*
X170688000Y-77597000D01*
X71945500Y-76898500D02*
X71945500Y-71818500D01*
X71945500Y-71818500D02*
X76517500Y-71818500D01*
X76517500Y-71818500D02*
X76517500Y-76898500D01*
X76517500Y-76898500D02*
X71945500Y-76898500D01*
X73469500Y-76898500D02*
X73469500Y-76390500D01*
X73469500Y-76390500D02*
X74739500Y-76390500D01*
X74739500Y-76390500D02*
X74739500Y-76898500D01*
X165490000Y-117102000D02*
X164220000Y-117102000D01*
X165490000Y-124452000D02*
X164220000Y-124452000D01*
X143120000Y-124452000D02*
X144390000Y-124452000D01*
X143120000Y-117102000D02*
X144390000Y-117102000D01*
X165490000Y-117102000D02*
X165490000Y-124452000D01*
X143120000Y-117102000D02*
X143120000Y-124452000D01*
X164220000Y-117102000D02*
X164220000Y-115817000D01*
X189620000Y-117102000D02*
X188350000Y-117102000D01*
X189620000Y-124452000D02*
X188350000Y-124452000D01*
X167250000Y-124452000D02*
X168520000Y-124452000D01*
X167250000Y-117102000D02*
X168520000Y-117102000D01*
X189620000Y-117102000D02*
X189620000Y-124452000D01*
X167250000Y-117102000D02*
X167250000Y-124452000D01*
X188350000Y-117102000D02*
X188350000Y-115817000D01*
X71559000Y-105070000D02*
X71559000Y-100670000D01*
X66109000Y-106645000D02*
X66109000Y-100670000D01*
X120835000Y-105197000D02*
X120835000Y-100797000D01*
X115385000Y-106772000D02*
X115385000Y-100797000D01*
X169095000Y-107102000D02*
X169095000Y-102702000D01*
X163645000Y-108677000D02*
X163645000Y-102702000D01*
X68970000Y-117102000D02*
X67700000Y-117102000D01*
X68970000Y-124452000D02*
X67700000Y-124452000D01*
X46600000Y-124452000D02*
X47870000Y-124452000D01*
X46600000Y-117102000D02*
X47870000Y-117102000D01*
X68970000Y-117102000D02*
X68970000Y-124452000D01*
X46600000Y-117102000D02*
X46600000Y-124452000D01*
X67700000Y-117102000D02*
X67700000Y-115817000D01*
X93100000Y-117102000D02*
X91830000Y-117102000D01*
X93100000Y-124452000D02*
X91830000Y-124452000D01*
X70730000Y-124452000D02*
X72000000Y-124452000D01*
X70730000Y-117102000D02*
X72000000Y-117102000D01*
X93100000Y-117102000D02*
X93100000Y-124452000D01*
X70730000Y-117102000D02*
X70730000Y-124452000D01*
X91830000Y-117102000D02*
X91830000Y-115817000D01*
X117230000Y-117102000D02*
X115960000Y-117102000D01*
X117230000Y-124452000D02*
X115960000Y-124452000D01*
X94860000Y-124452000D02*
X96130000Y-124452000D01*
X94860000Y-117102000D02*
X96130000Y-117102000D01*
X117230000Y-117102000D02*
X117230000Y-124452000D01*
X94860000Y-117102000D02*
X94860000Y-124452000D01*
X115960000Y-117102000D02*
X115960000Y-115817000D01*
X141360000Y-117102000D02*
X140090000Y-117102000D01*
X141360000Y-124452000D02*
X140090000Y-124452000D01*
X118990000Y-124452000D02*
X120260000Y-124452000D01*
X118990000Y-117102000D02*
X120260000Y-117102000D01*
X141360000Y-117102000D02*
X141360000Y-124452000D01*
X118990000Y-117102000D02*
X118990000Y-124452000D01*
X140090000Y-117102000D02*
X140090000Y-115817000D01*
X165135000Y-74055000D02*
X166335000Y-74055000D01*
X166335000Y-75805000D02*
X165135000Y-75805000D01*
X165135000Y-78500000D02*
X166335000Y-78500000D01*
X166335000Y-80250000D02*
X165135000Y-80250000D01*
X132108500Y-94601000D02*
X130908500Y-94601000D01*
X130908500Y-92851000D02*
X132108500Y-92851000D01*
X132108500Y-91680000D02*
X130908500Y-91680000D01*
X130908500Y-89930000D02*
X132108500Y-89930000D01*
X156097000Y-153762000D02*
X156097000Y-152562000D01*
X157847000Y-152562000D02*
X157847000Y-153762000D01*
X175909000Y-153762000D02*
X175909000Y-152562000D01*
X177659000Y-152562000D02*
X177659000Y-153762000D01*
X59577000Y-153889000D02*
X59577000Y-152689000D01*
X61327000Y-152689000D02*
X61327000Y-153889000D01*
X79262000Y-153889000D02*
X79262000Y-152689000D01*
X81012000Y-152689000D02*
X81012000Y-153889000D01*
X107837000Y-153762000D02*
X107837000Y-152562000D01*
X109587000Y-152562000D02*
X109587000Y-153762000D01*
X127522000Y-153762000D02*
X127522000Y-152562000D01*
X129272000Y-152562000D02*
X129272000Y-153762000D01*
X52650000Y-147467000D02*
G75*
G03X68720000Y-147017000I7810000J8260000D01*
G01*
X69460000Y-139207000D02*
G75*
G03X69460000Y-139207000I-9000000J0D01*
G01*
X72335000Y-147467000D02*
G75*
G03X88405000Y-147017000I7810000J8260000D01*
G01*
X89145000Y-139207000D02*
G75*
G03X89145000Y-139207000I-9000000J0D01*
G01*
X100910000Y-147467000D02*
G75*
G03X116980000Y-147017000I7810000J8260000D01*
G01*
X117720000Y-139207000D02*
G75*
G03X117720000Y-139207000I-9000000J0D01*
G01*
X120595000Y-147467000D02*
G75*
G03X136665000Y-147017000I7810000J8260000D01*
G01*
X137405000Y-139207000D02*
G75*
G03X137405000Y-139207000I-9000000J0D01*
G01*
X149170000Y-147467000D02*
G75*
G03X165240000Y-147017000I7810000J8260000D01*
G01*
X165980000Y-139207000D02*
G75*
G03X165980000Y-139207000I-9000000J0D01*
G01*
X168855000Y-147467000D02*
G75*
G03X184925000Y-147017000I7810000J8260000D01*
G01*
X185665000Y-139207000D02*
G75*
G03X185665000Y-139207000I-9000000J0D01*
G01*
X108386880Y-59118500D02*
X99385120Y-59118500D01*
X108386880Y-55618380D02*
X99385120Y-55618380D01*
X99385120Y-55618380D02*
X99385120Y-70119240D01*
X99385120Y-70119240D02*
X108386880Y-70119240D01*
X108386880Y-70119240D02*
X108386880Y-55618380D01*
X107251500Y-79565500D02*
X112331500Y-79565500D01*
X104431500Y-79845500D02*
X104431500Y-78295500D01*
X104711500Y-77025500D02*
X107251500Y-77025500D01*
X107251500Y-77025500D02*
X107251500Y-79565500D01*
X112331500Y-79565500D02*
X112331500Y-74485500D01*
X112331500Y-74485500D02*
X107251500Y-74485500D01*
X104431500Y-79845500D02*
X105981500Y-79845500D01*
X104711500Y-74485500D02*
X104711500Y-77025500D01*
X107251500Y-74485500D02*
X104711500Y-74485500D01*
X63516500Y-81657500D02*
X63516500Y-76457500D01*
X67166500Y-76457500D02*
X67166500Y-81657500D01*
X61344500Y-63008500D02*
X66544500Y-63008500D01*
X66544500Y-66658500D02*
X61344500Y-66658500D01*
X74393500Y-61799500D02*
X75593500Y-61799500D01*
X75593500Y-63549500D02*
X74393500Y-63549500D01*
X179158000Y-77716000D02*
X179158000Y-76716000D01*
X177458000Y-76716000D02*
X177458000Y-77716000D01*
X113664469Y-93759500D02*
G75*
G03X113664469Y-93759500I-196469J0D01*
G01*
X113228000Y-93479500D02*
X106228000Y-93479500D01*
X106228000Y-93479500D02*
X106228000Y-86479500D01*
X106228000Y-86479500D02*
X113228000Y-86479500D01*
X113228000Y-86479500D02*
X113228000Y-93479500D01*
X83073240Y-82656680D02*
X86471760Y-82656680D01*
X86471760Y-74406760D02*
X86471760Y-80406240D01*
X83073240Y-74406760D02*
X83073240Y-80406240D01*
X82069940Y-83159600D02*
X83169760Y-83159600D01*
X82570320Y-83759040D02*
X82570320Y-82560160D01*
X89618820Y-85041740D02*
X95216980Y-85041740D01*
X95318580Y-82542380D02*
X95318580Y-73540620D01*
X89720420Y-73540620D02*
X89720420Y-82542380D01*
X88618060Y-84394040D02*
X89717880Y-84394040D01*
X89118440Y-84993480D02*
X89118440Y-83794600D01*
X60896500Y-86804500D02*
X60896500Y-88836500D01*
X60769500Y-89217500D02*
X60769500Y-86296500D01*
X60642500Y-86042500D02*
X60642500Y-89598500D01*
X60515500Y-89979500D02*
X60515500Y-85661500D01*
X60388500Y-85407500D02*
X60388500Y-90233500D01*
X60261500Y-90360500D02*
X60261500Y-85280500D01*
X61023500Y-87820500D02*
G75*
G03X61023500Y-87820500I-4953000J0D01*
G01*
X61277500Y-93027500D02*
X61277500Y-82613500D01*
X61277500Y-82613500D02*
X51625500Y-82613500D01*
X51625500Y-82613500D02*
X50863500Y-83375500D01*
X50863500Y-83375500D02*
X50863500Y-92265500D01*
X50863500Y-92265500D02*
X51625500Y-93027500D01*
X51625500Y-93027500D02*
X61277500Y-93027500D01*
X51498500Y-87820500D02*
X52260500Y-87820500D01*
X51879500Y-88201500D02*
X51879500Y-87439500D01*
X70947280Y-90741500D02*
X71648320Y-90741500D01*
X69997320Y-90741500D02*
X69448680Y-90741500D01*
X69997320Y-90741500D02*
X69997320Y-91541600D01*
X69997320Y-90741500D02*
X69997320Y-89941400D01*
X69997320Y-90741500D02*
X70947280Y-89941400D01*
X70947280Y-89941400D02*
X70947280Y-91541600D01*
X70947280Y-91541600D02*
X69997320Y-90741500D01*
X69448680Y-89491820D02*
X69349620Y-89491820D01*
X69448680Y-91991180D02*
X69349620Y-91991180D01*
X71747380Y-89491820D02*
X69397880Y-89491820D01*
X71747380Y-91991180D02*
X69499480Y-91991180D01*
X90014500Y-94091500D02*
X80874500Y-94091500D01*
X80874500Y-94091500D02*
X80874500Y-87341500D01*
X80874500Y-87341500D02*
X90124500Y-87381500D01*
X90124500Y-87381500D02*
X90164500Y-94091500D01*
X76009500Y-85534500D02*
X76009500Y-84391500D01*
X72961500Y-85534500D02*
X72961500Y-84391500D01*
X69151500Y-84391500D02*
X69151500Y-80708500D01*
X69151500Y-80708500D02*
X79819500Y-80708500D01*
X79819500Y-80708500D02*
X79819500Y-84391500D01*
X69151500Y-85534500D02*
X69151500Y-84391500D01*
X69151500Y-84391500D02*
X79819500Y-84391500D01*
X79819500Y-84391500D02*
X79819500Y-85534500D01*
X74485500Y-85534500D02*
X79819500Y-85534500D01*
X74485500Y-85534500D02*
X69151500Y-85534500D01*
X115795500Y-77611000D02*
X116995500Y-77611000D01*
X116995500Y-79361000D02*
X115795500Y-79361000D01*
X122718214Y-67310000D02*
G75*
G03X122718214Y-67310000I-1750714J0D01*
G01*
X124192500Y-70535000D02*
X124067500Y-70535000D01*
X117742500Y-70535000D02*
X117867500Y-70535000D01*
X117742500Y-64085000D02*
X117867500Y-64085000D01*
X124067500Y-64085000D02*
X124192500Y-64085000D01*
X122367500Y-70535000D02*
X119567500Y-70535000D01*
X124192500Y-64085000D02*
X124192500Y-70535000D01*
X122367500Y-64085000D02*
X119567500Y-64085000D01*
X117742500Y-64085000D02*
X117742500Y-70535000D01*
X130719214Y-67310000D02*
G75*
G03X130719214Y-67310000I-1750714J0D01*
G01*
X132193500Y-70535000D02*
X132068500Y-70535000D01*
X125743500Y-70535000D02*
X125868500Y-70535000D01*
X125743500Y-64085000D02*
X125868500Y-64085000D01*
X132068500Y-64085000D02*
X132193500Y-64085000D01*
X130368500Y-70535000D02*
X127568500Y-70535000D01*
X132193500Y-64085000D02*
X132193500Y-70535000D01*
X130368500Y-64085000D02*
X127568500Y-64085000D01*
X125743500Y-64085000D02*
X125743500Y-70535000D01*
X90805000Y-67056000D02*
X91948000Y-67056000D01*
X90805000Y-64008000D02*
X91948000Y-64008000D01*
X91948000Y-60198000D02*
X95631000Y-60198000D01*
X95631000Y-60198000D02*
X95631000Y-70866000D01*
X95631000Y-70866000D02*
X91948000Y-70866000D01*
X90805000Y-60198000D02*
X91948000Y-60198000D01*
X91948000Y-60198000D02*
X91948000Y-70866000D01*
X91948000Y-70866000D02*
X90805000Y-70866000D01*
X90805000Y-65532000D02*
X90805000Y-70866000D01*
X90805000Y-65532000D02*
X90805000Y-60198000D01*
X55675500Y-79623500D02*
X60275500Y-79623500D01*
X60275500Y-74173500D02*
X55675500Y-74173500D01*
D10*
G36*
X159565271Y-65013109D02*
X159440152Y-65211862D01*
X159393466Y-65261066D01*
X159267974Y-65427480D01*
X159224133Y-65554265D01*
X159193048Y-65702073D01*
X159109540Y-65963528D01*
X158988226Y-66296780D01*
X158843724Y-66659978D01*
X158809006Y-66742733D01*
X158723525Y-66948233D01*
X158638997Y-67155491D01*
X158527282Y-67363492D01*
X158352392Y-67621511D01*
X158247455Y-67756878D01*
X158026137Y-68094833D01*
X157954133Y-68373525D01*
X157895214Y-68617806D01*
X157711102Y-68924944D01*
X157588440Y-69084472D01*
X157394146Y-69336050D01*
X157242129Y-69553587D01*
X157167764Y-69684900D01*
X157081998Y-69809725D01*
X157027573Y-69833066D01*
X156952534Y-69902721D01*
X156843917Y-70075058D01*
X156730021Y-70295137D01*
X156639146Y-70508018D01*
X156599590Y-70658759D01*
X156599466Y-70664203D01*
X156538457Y-70783630D01*
X156380657Y-70969985D01*
X156163911Y-71187493D01*
X155926063Y-71400380D01*
X155704957Y-71572873D01*
X155538437Y-71669199D01*
X155535023Y-71670418D01*
X155255843Y-71714489D01*
X154873756Y-71700161D01*
X154778133Y-71688582D01*
X154472600Y-71657604D01*
X154061778Y-71630184D01*
X153609714Y-71610128D01*
X153339800Y-71603113D01*
X152941852Y-71590432D01*
X152592441Y-71569029D01*
X152335186Y-71542170D01*
X152227390Y-71519841D01*
X152060964Y-71506972D01*
X151892762Y-71619389D01*
X151846390Y-71666770D01*
X151640635Y-71857733D01*
X151398515Y-72043655D01*
X151398515Y-67160024D01*
X151360274Y-67040156D01*
X151293941Y-66979638D01*
X151156508Y-66966551D01*
X150904969Y-66988972D01*
X150817371Y-66998940D01*
X150349591Y-67084610D01*
X149982221Y-67214313D01*
X149726182Y-67374223D01*
X149592398Y-67550513D01*
X149591790Y-67729356D01*
X149735281Y-67896926D01*
X150003585Y-68029121D01*
X150303156Y-68115470D01*
X150539477Y-68123977D01*
X150798289Y-68057269D01*
X150808332Y-68053771D01*
X151056575Y-67902118D01*
X151261532Y-67664411D01*
X151386839Y-67395718D01*
X151398515Y-67160024D01*
X151398515Y-72043655D01*
X151391206Y-72049268D01*
X151140939Y-72213285D01*
X150932669Y-72321696D01*
X150809704Y-72346595D01*
X150599800Y-72353721D01*
X150418800Y-72479014D01*
X150418800Y-70953206D01*
X150402230Y-70871590D01*
X150325960Y-70908888D01*
X150263966Y-70962944D01*
X150068185Y-71074516D01*
X149926436Y-71103066D01*
X149766536Y-71165100D01*
X149633803Y-71367877D01*
X149615602Y-71409739D01*
X149524819Y-71633139D01*
X149495482Y-71741881D01*
X149522986Y-71777229D01*
X149574228Y-71780400D01*
X149665164Y-71710302D01*
X149741702Y-71568113D01*
X149822058Y-71418534D01*
X149887773Y-71375275D01*
X150019463Y-71344094D01*
X150193875Y-71230822D01*
X150347939Y-71085587D01*
X150418587Y-70958519D01*
X150418800Y-70953206D01*
X150418800Y-72479014D01*
X150367195Y-72514737D01*
X150127219Y-72818524D01*
X150100640Y-72860812D01*
X149843996Y-73277912D01*
X150046663Y-73677715D01*
X150212486Y-73975992D01*
X150394636Y-74262547D01*
X150463359Y-74358126D01*
X150622677Y-74633868D01*
X150745136Y-75003792D01*
X150833469Y-75484650D01*
X150890412Y-76093190D01*
X150918699Y-76846165D01*
X150922486Y-77170692D01*
X150929276Y-77733272D01*
X150944146Y-78160886D01*
X150970273Y-78487830D01*
X151010831Y-78748399D01*
X151068995Y-78976890D01*
X151098133Y-79067669D01*
X151187127Y-79350605D01*
X151247817Y-79579439D01*
X151265466Y-79686051D01*
X151316711Y-79815562D01*
X151448253Y-80017156D01*
X151561800Y-80162399D01*
X151726357Y-80370352D01*
X151833955Y-80527407D01*
X151858133Y-80581928D01*
X151814152Y-80684976D01*
X151702721Y-80871873D01*
X151633904Y-80976085D01*
X151469429Y-81239418D01*
X151331722Y-81496044D01*
X151302222Y-81561130D01*
X151126985Y-81794835D01*
X150829787Y-82008165D01*
X150457823Y-82172906D01*
X150152471Y-82248525D01*
X149902382Y-82265303D01*
X149724477Y-82199811D01*
X149610885Y-82106368D01*
X149437690Y-81903510D01*
X149420224Y-81766847D01*
X149558436Y-81696620D01*
X149701790Y-81686400D01*
X149936152Y-81651965D01*
X150047944Y-81563495D01*
X150154493Y-81456521D01*
X150353538Y-81355936D01*
X150385426Y-81344776D01*
X150621603Y-81218250D01*
X150789805Y-81039242D01*
X150864572Y-80849524D01*
X150820447Y-80690870D01*
X150797570Y-80668549D01*
X150690624Y-80535581D01*
X150670522Y-80469533D01*
X150617956Y-80351946D01*
X150487919Y-80166187D01*
X150415881Y-80077733D01*
X150258899Y-79901068D01*
X150165166Y-79839565D01*
X150089414Y-79878397D01*
X150028121Y-79950733D01*
X149995466Y-80000802D01*
X149995466Y-78277184D01*
X149944257Y-77877547D01*
X149803540Y-77401861D01*
X149592681Y-76903771D01*
X149386235Y-76535375D01*
X149386235Y-72031474D01*
X149363603Y-71884211D01*
X149339738Y-71831443D01*
X149339738Y-71236471D01*
X149280595Y-71127764D01*
X149159357Y-71138909D01*
X149156177Y-71140840D01*
X149087791Y-71250930D01*
X149066286Y-71416821D01*
X149092421Y-71561730D01*
X149151528Y-71611066D01*
X149245643Y-71541466D01*
X149312015Y-71420566D01*
X149339738Y-71236471D01*
X149339738Y-71831443D01*
X149320285Y-71788431D01*
X149285717Y-71789448D01*
X149247272Y-71887577D01*
X149201430Y-72055566D01*
X149195299Y-72228664D01*
X149255283Y-72293676D01*
X149341418Y-72225831D01*
X149372182Y-72161400D01*
X149386235Y-72031474D01*
X149386235Y-76535375D01*
X149331143Y-76437066D01*
X149163239Y-76154156D01*
X149065711Y-75906548D01*
X149064133Y-75897565D01*
X149064133Y-72367696D01*
X149016824Y-72196484D01*
X148889358Y-72166422D01*
X148856205Y-72181659D01*
X148856205Y-71252878D01*
X148817775Y-71161508D01*
X148695760Y-71130051D01*
X148570428Y-71219424D01*
X148485344Y-71387742D01*
X148471466Y-71494433D01*
X148514073Y-71656541D01*
X148616478Y-71683193D01*
X148740556Y-71577083D01*
X148800596Y-71471186D01*
X148856205Y-71252878D01*
X148856205Y-72181659D01*
X148815798Y-72200232D01*
X148741418Y-72342015D01*
X148759829Y-72498450D01*
X148816123Y-72650516D01*
X148892336Y-72658913D01*
X148940621Y-72624171D01*
X149047202Y-72459313D01*
X149064133Y-72367696D01*
X149064133Y-75897565D01*
X149015113Y-75618540D01*
X148995034Y-75351842D01*
X148972264Y-75029192D01*
X148938933Y-74834640D01*
X148880315Y-74727005D01*
X148781686Y-74665104D01*
X148744114Y-74650061D01*
X148627573Y-74636830D01*
X148627573Y-72748909D01*
X148556056Y-72604468D01*
X148503413Y-72567120D01*
X148412892Y-72604693D01*
X148357987Y-72736456D01*
X148355365Y-72888328D01*
X148410442Y-72980345D01*
X148545221Y-72994700D01*
X148626139Y-72883933D01*
X148627573Y-72748909D01*
X148627573Y-74636830D01*
X148534654Y-74626282D01*
X148415468Y-74745113D01*
X148388096Y-74917784D01*
X148339549Y-75065560D01*
X148302133Y-75130376D01*
X148302133Y-71229745D01*
X148238643Y-71105423D01*
X148099073Y-71072809D01*
X147960202Y-71149333D01*
X147900823Y-71335220D01*
X147918821Y-71504133D01*
X147977751Y-71738066D01*
X148139942Y-71538186D01*
X148256603Y-71361086D01*
X148302133Y-71229745D01*
X148302133Y-75130376D01*
X148220107Y-75272473D01*
X148175133Y-75336400D01*
X148105314Y-75422623D01*
X148105314Y-72854502D01*
X148031496Y-72747282D01*
X147912116Y-72754238D01*
X147836582Y-72825796D01*
X147763656Y-73008050D01*
X147799078Y-73159100D01*
X147924486Y-73219733D01*
X148036298Y-73149100D01*
X148093171Y-73041877D01*
X148105314Y-72854502D01*
X148105314Y-75422623D01*
X148047297Y-75494272D01*
X147971983Y-75557519D01*
X147963466Y-75547939D01*
X147923581Y-75570128D01*
X147820401Y-75705463D01*
X147713390Y-75866909D01*
X147490902Y-76146108D01*
X147410188Y-76222399D01*
X147410188Y-72901585D01*
X147396875Y-72878787D01*
X147396875Y-71086135D01*
X147333481Y-70932590D01*
X147230959Y-70882267D01*
X147191873Y-70897328D01*
X147141187Y-71005551D01*
X147117113Y-71208234D01*
X147116800Y-71235063D01*
X147153894Y-71449320D01*
X147239605Y-71528058D01*
X147335578Y-71463233D01*
X147395756Y-71293566D01*
X147396875Y-71086135D01*
X147396875Y-72878787D01*
X147329229Y-72762946D01*
X147187689Y-72731494D01*
X147049066Y-72813333D01*
X146965717Y-72867403D01*
X146946170Y-72792166D01*
X146931541Y-72714667D01*
X146870311Y-72784856D01*
X146862800Y-72796400D01*
X146785119Y-72964487D01*
X146820604Y-73035928D01*
X146898126Y-73022471D01*
X147027781Y-73045554D01*
X147064802Y-73098079D01*
X147170365Y-73203211D01*
X147309912Y-73202939D01*
X147392297Y-73113900D01*
X147410188Y-72901585D01*
X147410188Y-76222399D01*
X147201524Y-76419632D01*
X147040694Y-76539652D01*
X146701141Y-76805242D01*
X146701141Y-70977197D01*
X146643614Y-70792891D01*
X146538173Y-70686049D01*
X146503767Y-70679733D01*
X146461193Y-70751871D01*
X146441863Y-70921131D01*
X146446673Y-71116785D01*
X146476517Y-71268103D01*
X146495911Y-71300622D01*
X146575831Y-71350667D01*
X146638518Y-71280411D01*
X146684342Y-71167605D01*
X146701141Y-70977197D01*
X146701141Y-76805242D01*
X146692170Y-76812259D01*
X146692170Y-72376090D01*
X146673925Y-72301454D01*
X146592906Y-72353611D01*
X146556448Y-72389132D01*
X146472939Y-72535365D01*
X146482365Y-72627981D01*
X146563436Y-72664068D01*
X146644761Y-72577773D01*
X146690477Y-72412149D01*
X146692170Y-72376090D01*
X146692170Y-76812259D01*
X146690509Y-76813559D01*
X146507521Y-77064438D01*
X146491349Y-77293582D01*
X146641613Y-77502283D01*
X146736487Y-77572731D01*
X146905819Y-77731252D01*
X146989084Y-77874144D01*
X147069790Y-78012299D01*
X147133725Y-78045733D01*
X147224679Y-78104637D01*
X147394764Y-78259594D01*
X147613049Y-78477970D01*
X147848604Y-78727130D01*
X148070497Y-78974441D01*
X148247800Y-79187267D01*
X148343650Y-79322299D01*
X148439146Y-79473076D01*
X148592327Y-79701070D01*
X148704300Y-79862854D01*
X148857414Y-80104807D01*
X148958878Y-80309918D01*
X148983019Y-80399477D01*
X149016583Y-80402815D01*
X149101793Y-80277980D01*
X149221067Y-80051337D01*
X149236298Y-80019675D01*
X149375273Y-79747085D01*
X149498484Y-79538122D01*
X149578419Y-79438848D01*
X149693610Y-79298828D01*
X149812871Y-79048156D01*
X149915773Y-78743731D01*
X149981890Y-78442452D01*
X149995466Y-78277184D01*
X149995466Y-80000802D01*
X149898279Y-80149817D01*
X149774719Y-80392713D01*
X149773626Y-80395233D01*
X149676864Y-80577831D01*
X149594174Y-80668281D01*
X149584587Y-80670400D01*
X149497240Y-80742948D01*
X149395173Y-80922705D01*
X149305663Y-81152833D01*
X149259520Y-81347733D01*
X149185371Y-81512686D01*
X149032187Y-81712125D01*
X148848232Y-81894766D01*
X148681770Y-82009322D01*
X148622098Y-82025066D01*
X148520052Y-82071044D01*
X148333470Y-82188526D01*
X148204030Y-82279066D01*
X147958440Y-82428108D01*
X147731096Y-82519481D01*
X147645371Y-82533066D01*
X147498727Y-82557413D01*
X147486090Y-82651047D01*
X147497095Y-82681233D01*
X147553232Y-82836809D01*
X147640011Y-83094634D01*
X147726525Y-83361180D01*
X147892917Y-83769880D01*
X148079117Y-84013439D01*
X148112664Y-84038513D01*
X148299010Y-84185907D01*
X148529799Y-84397281D01*
X148646818Y-84514519D01*
X148924181Y-84755056D01*
X149250060Y-84973202D01*
X149374159Y-85038805D01*
X149783800Y-85232639D01*
X146692348Y-85235856D01*
X146692348Y-80933728D01*
X146614286Y-80819882D01*
X146437530Y-80725477D01*
X146437530Y-67390190D01*
X146429405Y-67202731D01*
X146271919Y-66983143D01*
X145980618Y-66750966D01*
X145730552Y-66593755D01*
X145530337Y-66483760D01*
X145430285Y-66446400D01*
X145342532Y-66395756D01*
X145338800Y-66375844D01*
X145271063Y-66302237D01*
X145232966Y-66293092D01*
X145092666Y-66276234D01*
X144850185Y-66246529D01*
X144684057Y-66226012D01*
X144376997Y-66209800D01*
X144214176Y-66268149D01*
X144180341Y-66418737D01*
X144260235Y-66679244D01*
X144270878Y-66704875D01*
X144517231Y-67101646D01*
X144863122Y-67404198D01*
X145272508Y-67597761D01*
X145709348Y-67667561D01*
X146137598Y-67598828D01*
X146291300Y-67532943D01*
X146437530Y-67390190D01*
X146437530Y-80725477D01*
X146401637Y-80706307D01*
X146349603Y-80684232D01*
X146349603Y-71786137D01*
X146331157Y-71728535D01*
X146234966Y-71730557D01*
X146105717Y-71820707D01*
X146100800Y-71826588D01*
X146100800Y-70776336D01*
X146046237Y-70598244D01*
X145922074Y-70459041D01*
X145829866Y-70425733D01*
X145773194Y-70493788D01*
X145766232Y-70649366D01*
X145804426Y-70819590D01*
X145860353Y-70913420D01*
X145993730Y-70974812D01*
X146083623Y-70888728D01*
X146100800Y-70776336D01*
X146100800Y-71826588D01*
X146002028Y-71944743D01*
X145982519Y-72048422D01*
X145983555Y-72050184D01*
X146091243Y-72101506D01*
X146231146Y-72019830D01*
X146303423Y-71927588D01*
X146349603Y-71786137D01*
X146349603Y-80684232D01*
X146227800Y-80632559D01*
X145957272Y-80507597D01*
X145931466Y-80493465D01*
X145931466Y-71389033D01*
X145917178Y-71240024D01*
X145856005Y-71234013D01*
X145804466Y-71272400D01*
X145696875Y-71416547D01*
X145677466Y-71494433D01*
X145745463Y-71597628D01*
X145804466Y-71611066D01*
X145906269Y-71536921D01*
X145931466Y-71389033D01*
X145931466Y-80493465D01*
X145717070Y-80376064D01*
X145677466Y-80350753D01*
X145592800Y-80309920D01*
X145592800Y-70928736D01*
X145560206Y-70811666D01*
X145508133Y-70806733D01*
X145459293Y-70883532D01*
X145459293Y-70335371D01*
X145409375Y-70225504D01*
X145331568Y-70218535D01*
X145269378Y-70323231D01*
X145257884Y-70472620D01*
X145297499Y-70581710D01*
X145329741Y-70595066D01*
X145424367Y-70528554D01*
X145444269Y-70489233D01*
X145459293Y-70335371D01*
X145459293Y-70883532D01*
X145430229Y-70929235D01*
X145423466Y-70981063D01*
X145470805Y-71090490D01*
X145508133Y-71103066D01*
X145576258Y-71031940D01*
X145592800Y-70928736D01*
X145592800Y-80309920D01*
X145447378Y-80239787D01*
X145254133Y-80194450D01*
X145169466Y-80186468D01*
X145169466Y-70129400D01*
X145140484Y-69970285D01*
X145084800Y-69917733D01*
X145018612Y-69985244D01*
X145001988Y-70130215D01*
X145041568Y-70266304D01*
X145056577Y-70284622D01*
X145133951Y-70334856D01*
X145165315Y-70256606D01*
X145169466Y-70129400D01*
X145169466Y-80186468D01*
X145050319Y-80175237D01*
X144758690Y-80142013D01*
X144568563Y-80118239D01*
X144094659Y-80056712D01*
X144044202Y-80511722D01*
X144001766Y-80868618D01*
X143953810Y-81236087D01*
X143935706Y-81364459D01*
X143908100Y-81605716D01*
X143925040Y-81723537D01*
X143997325Y-81760423D01*
X144036733Y-81762079D01*
X144395231Y-81794702D01*
X144670645Y-81913001D01*
X144916644Y-82146789D01*
X145052439Y-82326282D01*
X145352944Y-82808411D01*
X145529155Y-83221642D01*
X145578088Y-83555074D01*
X145496755Y-83797805D01*
X145465298Y-83833805D01*
X145199205Y-84004715D01*
X144912257Y-84008781D01*
X144607694Y-83846768D01*
X144324692Y-83563824D01*
X144142930Y-83376070D01*
X143990450Y-83274550D01*
X143931856Y-83268264D01*
X143845888Y-83350435D01*
X143706947Y-83526849D01*
X143549897Y-83747450D01*
X143409607Y-83962184D01*
X143320941Y-84120994D01*
X143306800Y-84165613D01*
X143386898Y-84172515D01*
X143608923Y-84178317D01*
X143945469Y-84182644D01*
X144369131Y-84185118D01*
X144755216Y-84185508D01*
X146203633Y-84184066D01*
X146155144Y-83772935D01*
X146110970Y-83511422D01*
X146054120Y-83316104D01*
X146026564Y-83264935D01*
X145956127Y-83112166D01*
X145884712Y-82854067D01*
X145823615Y-82550811D01*
X145784132Y-82262570D01*
X145777561Y-82049515D01*
X145788115Y-81994814D01*
X145904803Y-81857035D01*
X146046325Y-81775682D01*
X146209377Y-81662426D01*
X146402110Y-81458132D01*
X146507841Y-81316407D01*
X146651604Y-81086389D01*
X146692348Y-80933728D01*
X146692348Y-85235856D01*
X145095599Y-85237519D01*
X144069676Y-85238056D01*
X143201215Y-85237169D01*
X142478347Y-85234572D01*
X142337213Y-85233472D01*
X142337213Y-76045738D01*
X142331752Y-75926832D01*
X142229492Y-75908763D01*
X142034634Y-76018298D01*
X142008016Y-76038016D01*
X141785041Y-76173494D01*
X141473512Y-76323096D01*
X141190133Y-76436039D01*
X140639800Y-76631966D01*
X140651993Y-77695692D01*
X140665285Y-78200879D01*
X140691453Y-78555189D01*
X140729821Y-78751633D01*
X140757826Y-78790631D01*
X140845372Y-78890629D01*
X140851466Y-78931461D01*
X140903722Y-79026141D01*
X141022958Y-79151303D01*
X141152878Y-79255929D01*
X141237184Y-79288996D01*
X141241912Y-79285311D01*
X141265495Y-79203811D01*
X141320955Y-78994980D01*
X141398595Y-78695635D01*
X141445796Y-78511400D01*
X141554340Y-78133045D01*
X141675784Y-77782522D01*
X141789330Y-77517830D01*
X141825299Y-77453066D01*
X141951989Y-77212862D01*
X142081222Y-76907737D01*
X142198302Y-76581982D01*
X142288531Y-76279886D01*
X142337213Y-76045738D01*
X142337213Y-85233472D01*
X141889206Y-85229981D01*
X141421922Y-85223111D01*
X141064628Y-85213678D01*
X140805455Y-85201395D01*
X140632538Y-85185979D01*
X140534006Y-85167144D01*
X140497992Y-85144606D01*
X140502947Y-85127271D01*
X140532226Y-85035184D01*
X140451873Y-84924320D01*
X140259314Y-84777089D01*
X140034663Y-84592870D01*
X139934500Y-84422104D01*
X139920133Y-84304352D01*
X139995613Y-84064812D01*
X140185336Y-83880153D01*
X140434223Y-83803162D01*
X140443191Y-83803066D01*
X140568368Y-83728419D01*
X140744371Y-83517060D01*
X140933198Y-83225216D01*
X141144310Y-82814839D01*
X141229635Y-82483003D01*
X141189214Y-82194926D01*
X141023090Y-81915831D01*
X140934857Y-81813400D01*
X140760766Y-81580328D01*
X140586530Y-81280388D01*
X140519241Y-81139028D01*
X140406060Y-80896017D01*
X140311253Y-80723411D01*
X140272199Y-80673362D01*
X140131800Y-80531731D01*
X139973414Y-80313561D01*
X139835655Y-80079927D01*
X139757139Y-79891900D01*
X139750800Y-79848723D01*
X139704748Y-79674874D01*
X139589442Y-79445160D01*
X139539133Y-79366121D01*
X139410879Y-79166203D01*
X139335682Y-79027863D01*
X139327466Y-79001140D01*
X139278320Y-78901235D01*
X139211413Y-78814400D01*
X139095879Y-78615593D01*
X138971807Y-78296381D01*
X138853154Y-77904191D01*
X138753872Y-77486449D01*
X138687917Y-77090584D01*
X138678519Y-77003265D01*
X138655387Y-76691670D01*
X138668975Y-76478259D01*
X138736175Y-76293045D01*
X138873882Y-76066045D01*
X138922412Y-75992904D01*
X139149462Y-75676959D01*
X139406992Y-75353475D01*
X139548457Y-75191766D01*
X139787642Y-74931278D01*
X140026107Y-74668904D01*
X140126973Y-74556766D01*
X140344358Y-74341900D01*
X140568886Y-74160798D01*
X140613806Y-74131144D01*
X140785726Y-73973467D01*
X140851466Y-73810271D01*
X140912500Y-73545578D01*
X141081977Y-73207581D01*
X141339458Y-72832810D01*
X141521816Y-72612138D01*
X141861531Y-72294776D01*
X142232352Y-72097490D01*
X142299249Y-72073926D01*
X142638942Y-71920663D01*
X142856595Y-71716005D01*
X142889895Y-71665522D01*
X143012401Y-71448637D01*
X143037222Y-71327890D01*
X142961786Y-71259325D01*
X142864087Y-71223915D01*
X142719980Y-71146851D01*
X142489629Y-70991977D01*
X142214120Y-70790664D01*
X141934539Y-70574280D01*
X141691972Y-70374193D01*
X141527507Y-70221772D01*
X141486930Y-70172484D01*
X141369037Y-70104752D01*
X141240424Y-70087066D01*
X141032363Y-70032549D01*
X140861754Y-69926655D01*
X140641067Y-69793984D01*
X140404299Y-69715813D01*
X140222440Y-69688627D01*
X139927346Y-69651091D01*
X139566893Y-69608564D01*
X139188960Y-69566405D01*
X138841423Y-69529974D01*
X138572161Y-69504630D01*
X138438466Y-69495763D01*
X138301935Y-69434213D01*
X138116674Y-69285117D01*
X137935361Y-69096542D01*
X137816769Y-68928466D01*
X137737741Y-68703355D01*
X137718800Y-68558671D01*
X137695602Y-68451733D01*
X137615884Y-68317516D01*
X137464462Y-68139706D01*
X137226148Y-67901985D01*
X136885758Y-67588041D01*
X136477244Y-67224778D01*
X136054446Y-66803412D01*
X135751013Y-66394605D01*
X135583458Y-66021641D01*
X135565015Y-65938400D01*
X135531634Y-65837981D01*
X135460621Y-65652770D01*
X135456353Y-65642066D01*
X135265373Y-65030559D01*
X135128578Y-64305092D01*
X135055185Y-63514958D01*
X135054047Y-63490505D01*
X135014806Y-62965072D01*
X134952040Y-62606817D01*
X134885278Y-62440907D01*
X134784029Y-62241497D01*
X134675355Y-61961764D01*
X134629035Y-61818061D01*
X134523046Y-61540844D01*
X134395454Y-61313762D01*
X134332976Y-61240163D01*
X134169006Y-61031047D01*
X134162958Y-60854085D01*
X134305245Y-60716629D01*
X134586282Y-60626031D01*
X134996484Y-60589644D01*
X135178800Y-60591384D01*
X135622475Y-60614578D01*
X136124187Y-60655533D01*
X136650459Y-60709890D01*
X137167814Y-60773289D01*
X137642774Y-60841370D01*
X138041865Y-60909774D01*
X138331609Y-60974141D01*
X138460124Y-61018718D01*
X138607606Y-61083658D01*
X138863951Y-61186145D01*
X139178780Y-61306148D01*
X139242800Y-61329921D01*
X139591954Y-61467888D01*
X139918971Y-61612221D01*
X140158029Y-61733708D01*
X140174133Y-61743217D01*
X140489290Y-61931844D01*
X140718501Y-62064507D01*
X140920077Y-62173925D01*
X141152326Y-62292814D01*
X141165057Y-62299225D01*
X141388690Y-62435561D01*
X141540653Y-62572081D01*
X141570040Y-62620893D01*
X141668757Y-62753827D01*
X141866787Y-62934777D01*
X142116816Y-63127062D01*
X142371527Y-63294003D01*
X142564393Y-63391766D01*
X142770943Y-63507669D01*
X142943434Y-63644277D01*
X143139037Y-63770130D01*
X143366252Y-63774007D01*
X143560800Y-63713231D01*
X143698368Y-63680339D01*
X143957610Y-63634485D01*
X144292156Y-63583576D01*
X144443883Y-63562602D01*
X144882127Y-63490806D01*
X145182019Y-63402432D01*
X145374534Y-63279785D01*
X145490651Y-63105168D01*
X145545285Y-62933425D01*
X145584026Y-62798753D01*
X145643129Y-62678453D01*
X145746963Y-62541249D01*
X145919896Y-62355868D01*
X146186299Y-62091035D01*
X146251147Y-62027535D01*
X146450480Y-61842117D01*
X146615062Y-61733065D01*
X146805048Y-61676419D01*
X147080594Y-61648220D01*
X147224814Y-61639728D01*
X147536525Y-61613018D01*
X147782558Y-61574365D01*
X147913050Y-61531781D01*
X147916900Y-61528546D01*
X148111330Y-61452993D01*
X148379028Y-61519553D01*
X148706839Y-61724718D01*
X148734718Y-61746578D01*
X148971331Y-61912178D01*
X149180893Y-62020991D01*
X149275800Y-62045604D01*
X149453213Y-62083685D01*
X149630972Y-62207451D01*
X149841338Y-62442891D01*
X149956578Y-62594008D01*
X150178321Y-62868553D01*
X150424990Y-63139228D01*
X150492471Y-63206265D01*
X150675058Y-63409474D01*
X150741960Y-63578353D01*
X150733818Y-63710038D01*
X150727241Y-63971659D01*
X150795123Y-64191724D01*
X150916995Y-64317566D01*
X150974632Y-64329733D01*
X151131261Y-64389860D01*
X151251895Y-64494595D01*
X151410202Y-64606298D01*
X151668258Y-64718620D01*
X151869673Y-64780376D01*
X152160157Y-64844953D01*
X152373858Y-64854910D01*
X152595633Y-64806091D01*
X152801006Y-64734762D01*
X153320327Y-64548728D01*
X153732802Y-64416816D01*
X154088625Y-64329808D01*
X154437988Y-64278483D01*
X154831085Y-64253622D01*
X155318111Y-64246005D01*
X155463522Y-64245713D01*
X155896297Y-64248967D01*
X156266522Y-64258347D01*
X156542223Y-64272540D01*
X156691425Y-64290232D01*
X156707643Y-64296799D01*
X156814152Y-64328677D01*
X157036087Y-64357583D01*
X157250921Y-64373020D01*
X158027525Y-64424709D01*
X158640847Y-64495522D01*
X159096085Y-64587613D01*
X159398436Y-64703139D01*
X159553098Y-64844252D01*
X159565271Y-65013109D01*
X159565271Y-65013109D01*
X159565271Y-65013109D01*
G37*
X159565271Y-65013109D02*
X159440152Y-65211862D01*
X159393466Y-65261066D01*
X159267974Y-65427480D01*
X159224133Y-65554265D01*
X159193048Y-65702073D01*
X159109540Y-65963528D01*
X158988226Y-66296780D01*
X158843724Y-66659978D01*
X158809006Y-66742733D01*
X158723525Y-66948233D01*
X158638997Y-67155491D01*
X158527282Y-67363492D01*
X158352392Y-67621511D01*
X158247455Y-67756878D01*
X158026137Y-68094833D01*
X157954133Y-68373525D01*
X157895214Y-68617806D01*
X157711102Y-68924944D01*
X157588440Y-69084472D01*
X157394146Y-69336050D01*
X157242129Y-69553587D01*
X157167764Y-69684900D01*
X157081998Y-69809725D01*
X157027573Y-69833066D01*
X156952534Y-69902721D01*
X156843917Y-70075058D01*
X156730021Y-70295137D01*
X156639146Y-70508018D01*
X156599590Y-70658759D01*
X156599466Y-70664203D01*
X156538457Y-70783630D01*
X156380657Y-70969985D01*
X156163911Y-71187493D01*
X155926063Y-71400380D01*
X155704957Y-71572873D01*
X155538437Y-71669199D01*
X155535023Y-71670418D01*
X155255843Y-71714489D01*
X154873756Y-71700161D01*
X154778133Y-71688582D01*
X154472600Y-71657604D01*
X154061778Y-71630184D01*
X153609714Y-71610128D01*
X153339800Y-71603113D01*
X152941852Y-71590432D01*
X152592441Y-71569029D01*
X152335186Y-71542170D01*
X152227390Y-71519841D01*
X152060964Y-71506972D01*
X151892762Y-71619389D01*
X151846390Y-71666770D01*
X151640635Y-71857733D01*
X151398515Y-72043655D01*
X151398515Y-67160024D01*
X151360274Y-67040156D01*
X151293941Y-66979638D01*
X151156508Y-66966551D01*
X150904969Y-66988972D01*
X150817371Y-66998940D01*
X150349591Y-67084610D01*
X149982221Y-67214313D01*
X149726182Y-67374223D01*
X149592398Y-67550513D01*
X149591790Y-67729356D01*
X149735281Y-67896926D01*
X150003585Y-68029121D01*
X150303156Y-68115470D01*
X150539477Y-68123977D01*
X150798289Y-68057269D01*
X150808332Y-68053771D01*
X151056575Y-67902118D01*
X151261532Y-67664411D01*
X151386839Y-67395718D01*
X151398515Y-67160024D01*
X151398515Y-72043655D01*
X151391206Y-72049268D01*
X151140939Y-72213285D01*
X150932669Y-72321696D01*
X150809704Y-72346595D01*
X150599800Y-72353721D01*
X150418800Y-72479014D01*
X150418800Y-70953206D01*
X150402230Y-70871590D01*
X150325960Y-70908888D01*
X150263966Y-70962944D01*
X150068185Y-71074516D01*
X149926436Y-71103066D01*
X149766536Y-71165100D01*
X149633803Y-71367877D01*
X149615602Y-71409739D01*
X149524819Y-71633139D01*
X149495482Y-71741881D01*
X149522986Y-71777229D01*
X149574228Y-71780400D01*
X149665164Y-71710302D01*
X149741702Y-71568113D01*
X149822058Y-71418534D01*
X149887773Y-71375275D01*
X150019463Y-71344094D01*
X150193875Y-71230822D01*
X150347939Y-71085587D01*
X150418587Y-70958519D01*
X150418800Y-70953206D01*
X150418800Y-72479014D01*
X150367195Y-72514737D01*
X150127219Y-72818524D01*
X150100640Y-72860812D01*
X149843996Y-73277912D01*
X150046663Y-73677715D01*
X150212486Y-73975992D01*
X150394636Y-74262547D01*
X150463359Y-74358126D01*
X150622677Y-74633868D01*
X150745136Y-75003792D01*
X150833469Y-75484650D01*
X150890412Y-76093190D01*
X150918699Y-76846165D01*
X150922486Y-77170692D01*
X150929276Y-77733272D01*
X150944146Y-78160886D01*
X150970273Y-78487830D01*
X151010831Y-78748399D01*
X151068995Y-78976890D01*
X151098133Y-79067669D01*
X151187127Y-79350605D01*
X151247817Y-79579439D01*
X151265466Y-79686051D01*
X151316711Y-79815562D01*
X151448253Y-80017156D01*
X151561800Y-80162399D01*
X151726357Y-80370352D01*
X151833955Y-80527407D01*
X151858133Y-80581928D01*
X151814152Y-80684976D01*
X151702721Y-80871873D01*
X151633904Y-80976085D01*
X151469429Y-81239418D01*
X151331722Y-81496044D01*
X151302222Y-81561130D01*
X151126985Y-81794835D01*
X150829787Y-82008165D01*
X150457823Y-82172906D01*
X150152471Y-82248525D01*
X149902382Y-82265303D01*
X149724477Y-82199811D01*
X149610885Y-82106368D01*
X149437690Y-81903510D01*
X149420224Y-81766847D01*
X149558436Y-81696620D01*
X149701790Y-81686400D01*
X149936152Y-81651965D01*
X150047944Y-81563495D01*
X150154493Y-81456521D01*
X150353538Y-81355936D01*
X150385426Y-81344776D01*
X150621603Y-81218250D01*
X150789805Y-81039242D01*
X150864572Y-80849524D01*
X150820447Y-80690870D01*
X150797570Y-80668549D01*
X150690624Y-80535581D01*
X150670522Y-80469533D01*
X150617956Y-80351946D01*
X150487919Y-80166187D01*
X150415881Y-80077733D01*
X150258899Y-79901068D01*
X150165166Y-79839565D01*
X150089414Y-79878397D01*
X150028121Y-79950733D01*
X149995466Y-80000802D01*
X149995466Y-78277184D01*
X149944257Y-77877547D01*
X149803540Y-77401861D01*
X149592681Y-76903771D01*
X149386235Y-76535375D01*
X149386235Y-72031474D01*
X149363603Y-71884211D01*
X149339738Y-71831443D01*
X149339738Y-71236471D01*
X149280595Y-71127764D01*
X149159357Y-71138909D01*
X149156177Y-71140840D01*
X149087791Y-71250930D01*
X149066286Y-71416821D01*
X149092421Y-71561730D01*
X149151528Y-71611066D01*
X149245643Y-71541466D01*
X149312015Y-71420566D01*
X149339738Y-71236471D01*
X149339738Y-71831443D01*
X149320285Y-71788431D01*
X149285717Y-71789448D01*
X149247272Y-71887577D01*
X149201430Y-72055566D01*
X149195299Y-72228664D01*
X149255283Y-72293676D01*
X149341418Y-72225831D01*
X149372182Y-72161400D01*
X149386235Y-72031474D01*
X149386235Y-76535375D01*
X149331143Y-76437066D01*
X149163239Y-76154156D01*
X149065711Y-75906548D01*
X149064133Y-75897565D01*
X149064133Y-72367696D01*
X149016824Y-72196484D01*
X148889358Y-72166422D01*
X148856205Y-72181659D01*
X148856205Y-71252878D01*
X148817775Y-71161508D01*
X148695760Y-71130051D01*
X148570428Y-71219424D01*
X148485344Y-71387742D01*
X148471466Y-71494433D01*
X148514073Y-71656541D01*
X148616478Y-71683193D01*
X148740556Y-71577083D01*
X148800596Y-71471186D01*
X148856205Y-71252878D01*
X148856205Y-72181659D01*
X148815798Y-72200232D01*
X148741418Y-72342015D01*
X148759829Y-72498450D01*
X148816123Y-72650516D01*
X148892336Y-72658913D01*
X148940621Y-72624171D01*
X149047202Y-72459313D01*
X149064133Y-72367696D01*
X149064133Y-75897565D01*
X149015113Y-75618540D01*
X148995034Y-75351842D01*
X148972264Y-75029192D01*
X148938933Y-74834640D01*
X148880315Y-74727005D01*
X148781686Y-74665104D01*
X148744114Y-74650061D01*
X148627573Y-74636830D01*
X148627573Y-72748909D01*
X148556056Y-72604468D01*
X148503413Y-72567120D01*
X148412892Y-72604693D01*
X148357987Y-72736456D01*
X148355365Y-72888328D01*
X148410442Y-72980345D01*
X148545221Y-72994700D01*
X148626139Y-72883933D01*
X148627573Y-72748909D01*
X148627573Y-74636830D01*
X148534654Y-74626282D01*
X148415468Y-74745113D01*
X148388096Y-74917784D01*
X148339549Y-75065560D01*
X148302133Y-75130376D01*
X148302133Y-71229745D01*
X148238643Y-71105423D01*
X148099073Y-71072809D01*
X147960202Y-71149333D01*
X147900823Y-71335220D01*
X147918821Y-71504133D01*
X147977751Y-71738066D01*
X148139942Y-71538186D01*
X148256603Y-71361086D01*
X148302133Y-71229745D01*
X148302133Y-75130376D01*
X148220107Y-75272473D01*
X148175133Y-75336400D01*
X148105314Y-75422623D01*
X148105314Y-72854502D01*
X148031496Y-72747282D01*
X147912116Y-72754238D01*
X147836582Y-72825796D01*
X147763656Y-73008050D01*
X147799078Y-73159100D01*
X147924486Y-73219733D01*
X148036298Y-73149100D01*
X148093171Y-73041877D01*
X148105314Y-72854502D01*
X148105314Y-75422623D01*
X148047297Y-75494272D01*
X147971983Y-75557519D01*
X147963466Y-75547939D01*
X147923581Y-75570128D01*
X147820401Y-75705463D01*
X147713390Y-75866909D01*
X147490902Y-76146108D01*
X147410188Y-76222399D01*
X147410188Y-72901585D01*
X147396875Y-72878787D01*
X147396875Y-71086135D01*
X147333481Y-70932590D01*
X147230959Y-70882267D01*
X147191873Y-70897328D01*
X147141187Y-71005551D01*
X147117113Y-71208234D01*
X147116800Y-71235063D01*
X147153894Y-71449320D01*
X147239605Y-71528058D01*
X147335578Y-71463233D01*
X147395756Y-71293566D01*
X147396875Y-71086135D01*
X147396875Y-72878787D01*
X147329229Y-72762946D01*
X147187689Y-72731494D01*
X147049066Y-72813333D01*
X146965717Y-72867403D01*
X146946170Y-72792166D01*
X146931541Y-72714667D01*
X146870311Y-72784856D01*
X146862800Y-72796400D01*
X146785119Y-72964487D01*
X146820604Y-73035928D01*
X146898126Y-73022471D01*
X147027781Y-73045554D01*
X147064802Y-73098079D01*
X147170365Y-73203211D01*
X147309912Y-73202939D01*
X147392297Y-73113900D01*
X147410188Y-72901585D01*
X147410188Y-76222399D01*
X147201524Y-76419632D01*
X147040694Y-76539652D01*
X146701141Y-76805242D01*
X146701141Y-70977197D01*
X146643614Y-70792891D01*
X146538173Y-70686049D01*
X146503767Y-70679733D01*
X146461193Y-70751871D01*
X146441863Y-70921131D01*
X146446673Y-71116785D01*
X146476517Y-71268103D01*
X146495911Y-71300622D01*
X146575831Y-71350667D01*
X146638518Y-71280411D01*
X146684342Y-71167605D01*
X146701141Y-70977197D01*
X146701141Y-76805242D01*
X146692170Y-76812259D01*
X146692170Y-72376090D01*
X146673925Y-72301454D01*
X146592906Y-72353611D01*
X146556448Y-72389132D01*
X146472939Y-72535365D01*
X146482365Y-72627981D01*
X146563436Y-72664068D01*
X146644761Y-72577773D01*
X146690477Y-72412149D01*
X146692170Y-72376090D01*
X146692170Y-76812259D01*
X146690509Y-76813559D01*
X146507521Y-77064438D01*
X146491349Y-77293582D01*
X146641613Y-77502283D01*
X146736487Y-77572731D01*
X146905819Y-77731252D01*
X146989084Y-77874144D01*
X147069790Y-78012299D01*
X147133725Y-78045733D01*
X147224679Y-78104637D01*
X147394764Y-78259594D01*
X147613049Y-78477970D01*
X147848604Y-78727130D01*
X148070497Y-78974441D01*
X148247800Y-79187267D01*
X148343650Y-79322299D01*
X148439146Y-79473076D01*
X148592327Y-79701070D01*
X148704300Y-79862854D01*
X148857414Y-80104807D01*
X148958878Y-80309918D01*
X148983019Y-80399477D01*
X149016583Y-80402815D01*
X149101793Y-80277980D01*
X149221067Y-80051337D01*
X149236298Y-80019675D01*
X149375273Y-79747085D01*
X149498484Y-79538122D01*
X149578419Y-79438848D01*
X149693610Y-79298828D01*
X149812871Y-79048156D01*
X149915773Y-78743731D01*
X149981890Y-78442452D01*
X149995466Y-78277184D01*
X149995466Y-80000802D01*
X149898279Y-80149817D01*
X149774719Y-80392713D01*
X149773626Y-80395233D01*
X149676864Y-80577831D01*
X149594174Y-80668281D01*
X149584587Y-80670400D01*
X149497240Y-80742948D01*
X149395173Y-80922705D01*
X149305663Y-81152833D01*
X149259520Y-81347733D01*
X149185371Y-81512686D01*
X149032187Y-81712125D01*
X148848232Y-81894766D01*
X148681770Y-82009322D01*
X148622098Y-82025066D01*
X148520052Y-82071044D01*
X148333470Y-82188526D01*
X148204030Y-82279066D01*
X147958440Y-82428108D01*
X147731096Y-82519481D01*
X147645371Y-82533066D01*
X147498727Y-82557413D01*
X147486090Y-82651047D01*
X147497095Y-82681233D01*
X147553232Y-82836809D01*
X147640011Y-83094634D01*
X147726525Y-83361180D01*
X147892917Y-83769880D01*
X148079117Y-84013439D01*
X148112664Y-84038513D01*
X148299010Y-84185907D01*
X148529799Y-84397281D01*
X148646818Y-84514519D01*
X148924181Y-84755056D01*
X149250060Y-84973202D01*
X149374159Y-85038805D01*
X149783800Y-85232639D01*
X146692348Y-85235856D01*
X146692348Y-80933728D01*
X146614286Y-80819882D01*
X146437530Y-80725477D01*
X146437530Y-67390190D01*
X146429405Y-67202731D01*
X146271919Y-66983143D01*
X145980618Y-66750966D01*
X145730552Y-66593755D01*
X145530337Y-66483760D01*
X145430285Y-66446400D01*
X145342532Y-66395756D01*
X145338800Y-66375844D01*
X145271063Y-66302237D01*
X145232966Y-66293092D01*
X145092666Y-66276234D01*
X144850185Y-66246529D01*
X144684057Y-66226012D01*
X144376997Y-66209800D01*
X144214176Y-66268149D01*
X144180341Y-66418737D01*
X144260235Y-66679244D01*
X144270878Y-66704875D01*
X144517231Y-67101646D01*
X144863122Y-67404198D01*
X145272508Y-67597761D01*
X145709348Y-67667561D01*
X146137598Y-67598828D01*
X146291300Y-67532943D01*
X146437530Y-67390190D01*
X146437530Y-80725477D01*
X146401637Y-80706307D01*
X146349603Y-80684232D01*
X146349603Y-71786137D01*
X146331157Y-71728535D01*
X146234966Y-71730557D01*
X146105717Y-71820707D01*
X146100800Y-71826588D01*
X146100800Y-70776336D01*
X146046237Y-70598244D01*
X145922074Y-70459041D01*
X145829866Y-70425733D01*
X145773194Y-70493788D01*
X145766232Y-70649366D01*
X145804426Y-70819590D01*
X145860353Y-70913420D01*
X145993730Y-70974812D01*
X146083623Y-70888728D01*
X146100800Y-70776336D01*
X146100800Y-71826588D01*
X146002028Y-71944743D01*
X145982519Y-72048422D01*
X145983555Y-72050184D01*
X146091243Y-72101506D01*
X146231146Y-72019830D01*
X146303423Y-71927588D01*
X146349603Y-71786137D01*
X146349603Y-80684232D01*
X146227800Y-80632559D01*
X145957272Y-80507597D01*
X145931466Y-80493465D01*
X145931466Y-71389033D01*
X145917178Y-71240024D01*
X145856005Y-71234013D01*
X145804466Y-71272400D01*
X145696875Y-71416547D01*
X145677466Y-71494433D01*
X145745463Y-71597628D01*
X145804466Y-71611066D01*
X145906269Y-71536921D01*
X145931466Y-71389033D01*
X145931466Y-80493465D01*
X145717070Y-80376064D01*
X145677466Y-80350753D01*
X145592800Y-80309920D01*
X145592800Y-70928736D01*
X145560206Y-70811666D01*
X145508133Y-70806733D01*
X145459293Y-70883532D01*
X145459293Y-70335371D01*
X145409375Y-70225504D01*
X145331568Y-70218535D01*
X145269378Y-70323231D01*
X145257884Y-70472620D01*
X145297499Y-70581710D01*
X145329741Y-70595066D01*
X145424367Y-70528554D01*
X145444269Y-70489233D01*
X145459293Y-70335371D01*
X145459293Y-70883532D01*
X145430229Y-70929235D01*
X145423466Y-70981063D01*
X145470805Y-71090490D01*
X145508133Y-71103066D01*
X145576258Y-71031940D01*
X145592800Y-70928736D01*
X145592800Y-80309920D01*
X145447378Y-80239787D01*
X145254133Y-80194450D01*
X145169466Y-80186468D01*
X145169466Y-70129400D01*
X145140484Y-69970285D01*
X145084800Y-69917733D01*
X145018612Y-69985244D01*
X145001988Y-70130215D01*
X145041568Y-70266304D01*
X145056577Y-70284622D01*
X145133951Y-70334856D01*
X145165315Y-70256606D01*
X145169466Y-70129400D01*
X145169466Y-80186468D01*
X145050319Y-80175237D01*
X144758690Y-80142013D01*
X144568563Y-80118239D01*
X144094659Y-80056712D01*
X144044202Y-80511722D01*
X144001766Y-80868618D01*
X143953810Y-81236087D01*
X143935706Y-81364459D01*
X143908100Y-81605716D01*
X143925040Y-81723537D01*
X143997325Y-81760423D01*
X144036733Y-81762079D01*
X144395231Y-81794702D01*
X144670645Y-81913001D01*
X144916644Y-82146789D01*
X145052439Y-82326282D01*
X145352944Y-82808411D01*
X145529155Y-83221642D01*
X145578088Y-83555074D01*
X145496755Y-83797805D01*
X145465298Y-83833805D01*
X145199205Y-84004715D01*
X144912257Y-84008781D01*
X144607694Y-83846768D01*
X144324692Y-83563824D01*
X144142930Y-83376070D01*
X143990450Y-83274550D01*
X143931856Y-83268264D01*
X143845888Y-83350435D01*
X143706947Y-83526849D01*
X143549897Y-83747450D01*
X143409607Y-83962184D01*
X143320941Y-84120994D01*
X143306800Y-84165613D01*
X143386898Y-84172515D01*
X143608923Y-84178317D01*
X143945469Y-84182644D01*
X144369131Y-84185118D01*
X144755216Y-84185508D01*
X146203633Y-84184066D01*
X146155144Y-83772935D01*
X146110970Y-83511422D01*
X146054120Y-83316104D01*
X146026564Y-83264935D01*
X145956127Y-83112166D01*
X145884712Y-82854067D01*
X145823615Y-82550811D01*
X145784132Y-82262570D01*
X145777561Y-82049515D01*
X145788115Y-81994814D01*
X145904803Y-81857035D01*
X146046325Y-81775682D01*
X146209377Y-81662426D01*
X146402110Y-81458132D01*
X146507841Y-81316407D01*
X146651604Y-81086389D01*
X146692348Y-80933728D01*
X146692348Y-85235856D01*
X145095599Y-85237519D01*
X144069676Y-85238056D01*
X143201215Y-85237169D01*
X142478347Y-85234572D01*
X142337213Y-85233472D01*
X142337213Y-76045738D01*
X142331752Y-75926832D01*
X142229492Y-75908763D01*
X142034634Y-76018298D01*
X142008016Y-76038016D01*
X141785041Y-76173494D01*
X141473512Y-76323096D01*
X141190133Y-76436039D01*
X140639800Y-76631966D01*
X140651993Y-77695692D01*
X140665285Y-78200879D01*
X140691453Y-78555189D01*
X140729821Y-78751633D01*
X140757826Y-78790631D01*
X140845372Y-78890629D01*
X140851466Y-78931461D01*
X140903722Y-79026141D01*
X141022958Y-79151303D01*
X141152878Y-79255929D01*
X141237184Y-79288996D01*
X141241912Y-79285311D01*
X141265495Y-79203811D01*
X141320955Y-78994980D01*
X141398595Y-78695635D01*
X141445796Y-78511400D01*
X141554340Y-78133045D01*
X141675784Y-77782522D01*
X141789330Y-77517830D01*
X141825299Y-77453066D01*
X141951989Y-77212862D01*
X142081222Y-76907737D01*
X142198302Y-76581982D01*
X142288531Y-76279886D01*
X142337213Y-76045738D01*
X142337213Y-85233472D01*
X141889206Y-85229981D01*
X141421922Y-85223111D01*
X141064628Y-85213678D01*
X140805455Y-85201395D01*
X140632538Y-85185979D01*
X140534006Y-85167144D01*
X140497992Y-85144606D01*
X140502947Y-85127271D01*
X140532226Y-85035184D01*
X140451873Y-84924320D01*
X140259314Y-84777089D01*
X140034663Y-84592870D01*
X139934500Y-84422104D01*
X139920133Y-84304352D01*
X139995613Y-84064812D01*
X140185336Y-83880153D01*
X140434223Y-83803162D01*
X140443191Y-83803066D01*
X140568368Y-83728419D01*
X140744371Y-83517060D01*
X140933198Y-83225216D01*
X141144310Y-82814839D01*
X141229635Y-82483003D01*
X141189214Y-82194926D01*
X141023090Y-81915831D01*
X140934857Y-81813400D01*
X140760766Y-81580328D01*
X140586530Y-81280388D01*
X140519241Y-81139028D01*
X140406060Y-80896017D01*
X140311253Y-80723411D01*
X140272199Y-80673362D01*
X140131800Y-80531731D01*
X139973414Y-80313561D01*
X139835655Y-80079927D01*
X139757139Y-79891900D01*
X139750800Y-79848723D01*
X139704748Y-79674874D01*
X139589442Y-79445160D01*
X139539133Y-79366121D01*
X139410879Y-79166203D01*
X139335682Y-79027863D01*
X139327466Y-79001140D01*
X139278320Y-78901235D01*
X139211413Y-78814400D01*
X139095879Y-78615593D01*
X138971807Y-78296381D01*
X138853154Y-77904191D01*
X138753872Y-77486449D01*
X138687917Y-77090584D01*
X138678519Y-77003265D01*
X138655387Y-76691670D01*
X138668975Y-76478259D01*
X138736175Y-76293045D01*
X138873882Y-76066045D01*
X138922412Y-75992904D01*
X139149462Y-75676959D01*
X139406992Y-75353475D01*
X139548457Y-75191766D01*
X139787642Y-74931278D01*
X140026107Y-74668904D01*
X140126973Y-74556766D01*
X140344358Y-74341900D01*
X140568886Y-74160798D01*
X140613806Y-74131144D01*
X140785726Y-73973467D01*
X140851466Y-73810271D01*
X140912500Y-73545578D01*
X141081977Y-73207581D01*
X141339458Y-72832810D01*
X141521816Y-72612138D01*
X141861531Y-72294776D01*
X142232352Y-72097490D01*
X142299249Y-72073926D01*
X142638942Y-71920663D01*
X142856595Y-71716005D01*
X142889895Y-71665522D01*
X143012401Y-71448637D01*
X143037222Y-71327890D01*
X142961786Y-71259325D01*
X142864087Y-71223915D01*
X142719980Y-71146851D01*
X142489629Y-70991977D01*
X142214120Y-70790664D01*
X141934539Y-70574280D01*
X141691972Y-70374193D01*
X141527507Y-70221772D01*
X141486930Y-70172484D01*
X141369037Y-70104752D01*
X141240424Y-70087066D01*
X141032363Y-70032549D01*
X140861754Y-69926655D01*
X140641067Y-69793984D01*
X140404299Y-69715813D01*
X140222440Y-69688627D01*
X139927346Y-69651091D01*
X139566893Y-69608564D01*
X139188960Y-69566405D01*
X138841423Y-69529974D01*
X138572161Y-69504630D01*
X138438466Y-69495763D01*
X138301935Y-69434213D01*
X138116674Y-69285117D01*
X137935361Y-69096542D01*
X137816769Y-68928466D01*
X137737741Y-68703355D01*
X137718800Y-68558671D01*
X137695602Y-68451733D01*
X137615884Y-68317516D01*
X137464462Y-68139706D01*
X137226148Y-67901985D01*
X136885758Y-67588041D01*
X136477244Y-67224778D01*
X136054446Y-66803412D01*
X135751013Y-66394605D01*
X135583458Y-66021641D01*
X135565015Y-65938400D01*
X135531634Y-65837981D01*
X135460621Y-65652770D01*
X135456353Y-65642066D01*
X135265373Y-65030559D01*
X135128578Y-64305092D01*
X135055185Y-63514958D01*
X135054047Y-63490505D01*
X135014806Y-62965072D01*
X134952040Y-62606817D01*
X134885278Y-62440907D01*
X134784029Y-62241497D01*
X134675355Y-61961764D01*
X134629035Y-61818061D01*
X134523046Y-61540844D01*
X134395454Y-61313762D01*
X134332976Y-61240163D01*
X134169006Y-61031047D01*
X134162958Y-60854085D01*
X134305245Y-60716629D01*
X134586282Y-60626031D01*
X134996484Y-60589644D01*
X135178800Y-60591384D01*
X135622475Y-60614578D01*
X136124187Y-60655533D01*
X136650459Y-60709890D01*
X137167814Y-60773289D01*
X137642774Y-60841370D01*
X138041865Y-60909774D01*
X138331609Y-60974141D01*
X138460124Y-61018718D01*
X138607606Y-61083658D01*
X138863951Y-61186145D01*
X139178780Y-61306148D01*
X139242800Y-61329921D01*
X139591954Y-61467888D01*
X139918971Y-61612221D01*
X140158029Y-61733708D01*
X140174133Y-61743217D01*
X140489290Y-61931844D01*
X140718501Y-62064507D01*
X140920077Y-62173925D01*
X141152326Y-62292814D01*
X141165057Y-62299225D01*
X141388690Y-62435561D01*
X141540653Y-62572081D01*
X141570040Y-62620893D01*
X141668757Y-62753827D01*
X141866787Y-62934777D01*
X142116816Y-63127062D01*
X142371527Y-63294003D01*
X142564393Y-63391766D01*
X142770943Y-63507669D01*
X142943434Y-63644277D01*
X143139037Y-63770130D01*
X143366252Y-63774007D01*
X143560800Y-63713231D01*
X143698368Y-63680339D01*
X143957610Y-63634485D01*
X144292156Y-63583576D01*
X144443883Y-63562602D01*
X144882127Y-63490806D01*
X145182019Y-63402432D01*
X145374534Y-63279785D01*
X145490651Y-63105168D01*
X145545285Y-62933425D01*
X145584026Y-62798753D01*
X145643129Y-62678453D01*
X145746963Y-62541249D01*
X145919896Y-62355868D01*
X146186299Y-62091035D01*
X146251147Y-62027535D01*
X146450480Y-61842117D01*
X146615062Y-61733065D01*
X146805048Y-61676419D01*
X147080594Y-61648220D01*
X147224814Y-61639728D01*
X147536525Y-61613018D01*
X147782558Y-61574365D01*
X147913050Y-61531781D01*
X147916900Y-61528546D01*
X148111330Y-61452993D01*
X148379028Y-61519553D01*
X148706839Y-61724718D01*
X148734718Y-61746578D01*
X148971331Y-61912178D01*
X149180893Y-62020991D01*
X149275800Y-62045604D01*
X149453213Y-62083685D01*
X149630972Y-62207451D01*
X149841338Y-62442891D01*
X149956578Y-62594008D01*
X150178321Y-62868553D01*
X150424990Y-63139228D01*
X150492471Y-63206265D01*
X150675058Y-63409474D01*
X150741960Y-63578353D01*
X150733818Y-63710038D01*
X150727241Y-63971659D01*
X150795123Y-64191724D01*
X150916995Y-64317566D01*
X150974632Y-64329733D01*
X151131261Y-64389860D01*
X151251895Y-64494595D01*
X151410202Y-64606298D01*
X151668258Y-64718620D01*
X151869673Y-64780376D01*
X152160157Y-64844953D01*
X152373858Y-64854910D01*
X152595633Y-64806091D01*
X152801006Y-64734762D01*
X153320327Y-64548728D01*
X153732802Y-64416816D01*
X154088625Y-64329808D01*
X154437988Y-64278483D01*
X154831085Y-64253622D01*
X155318111Y-64246005D01*
X155463522Y-64245713D01*
X155896297Y-64248967D01*
X156266522Y-64258347D01*
X156542223Y-64272540D01*
X156691425Y-64290232D01*
X156707643Y-64296799D01*
X156814152Y-64328677D01*
X157036087Y-64357583D01*
X157250921Y-64373020D01*
X158027525Y-64424709D01*
X158640847Y-64495522D01*
X159096085Y-64587613D01*
X159398436Y-64703139D01*
X159553098Y-64844252D01*
X159565271Y-65013109D01*
X159565271Y-65013109D01*
G36*
X149995466Y-71230066D02*
X149953133Y-71272400D01*
X149910800Y-71230066D01*
X149953133Y-71187733D01*
X149995466Y-71230066D01*
X149995466Y-71230066D01*
X149995466Y-71230066D01*
G37*
X149995466Y-71230066D02*
X149953133Y-71272400D01*
X149910800Y-71230066D01*
X149953133Y-71187733D01*
X149995466Y-71230066D01*
X149995466Y-71230066D01*
D12*
X83419643Y-75668166D02*
X83467262Y-75715785D01*
X83514881Y-75858642D01*
X83514881Y-75953880D01*
X83467262Y-76096738D01*
X83372024Y-76191976D01*
X83276786Y-76239595D01*
X83086310Y-76287214D01*
X82943452Y-76287214D01*
X82752976Y-76239595D01*
X82657738Y-76191976D01*
X82562500Y-76096738D01*
X82514881Y-75953880D01*
X82514881Y-75858642D01*
X82562500Y-75715785D01*
X82610119Y-75668166D01*
X82610119Y-75287214D02*
X82562500Y-75239595D01*
X82514881Y-75144357D01*
X82514881Y-74906261D01*
X82562500Y-74811023D01*
X82610119Y-74763404D01*
X82705357Y-74715785D01*
X82800595Y-74715785D01*
X82943452Y-74763404D01*
X83514881Y-75334833D01*
X83514881Y-74715785D01*
X118705334Y-93130643D02*
X118657715Y-93178262D01*
X118514858Y-93225881D01*
X118419620Y-93225881D01*
X118276762Y-93178262D01*
X118181524Y-93083024D01*
X118133905Y-92987786D01*
X118086286Y-92797310D01*
X118086286Y-92654452D01*
X118133905Y-92463976D01*
X118181524Y-92368738D01*
X118276762Y-92273500D01*
X118419620Y-92225881D01*
X118514858Y-92225881D01*
X118657715Y-92273500D01*
X118705334Y-92321119D01*
X119038667Y-92225881D02*
X119657715Y-92225881D01*
X119324381Y-92606833D01*
X119467239Y-92606833D01*
X119562477Y-92654452D01*
X119610096Y-92702071D01*
X119657715Y-92797310D01*
X119657715Y-93035405D01*
X119610096Y-93130643D01*
X119562477Y-93178262D01*
X119467239Y-93225881D01*
X119181524Y-93225881D01*
X119086286Y-93178262D01*
X119038667Y-93130643D01*
X100988834Y-93257643D02*
X100941215Y-93305262D01*
X100798358Y-93352881D01*
X100703120Y-93352881D01*
X100560262Y-93305262D01*
X100465024Y-93210024D01*
X100417405Y-93114786D01*
X100369786Y-92924310D01*
X100369786Y-92781452D01*
X100417405Y-92590976D01*
X100465024Y-92495738D01*
X100560262Y-92400500D01*
X100703120Y-92352881D01*
X100798358Y-92352881D01*
X100941215Y-92400500D01*
X100988834Y-92448119D01*
X101845977Y-92686214D02*
X101845977Y-93352881D01*
X101607881Y-92305262D02*
X101369786Y-93019548D01*
X101988834Y-93019548D01*
X67968834Y-68424643D02*
X67921215Y-68472262D01*
X67778358Y-68519881D01*
X67683120Y-68519881D01*
X67540262Y-68472262D01*
X67445024Y-68377024D01*
X67397405Y-68281786D01*
X67349786Y-68091310D01*
X67349786Y-67948452D01*
X67397405Y-67757976D01*
X67445024Y-67662738D01*
X67540262Y-67567500D01*
X67683120Y-67519881D01*
X67778358Y-67519881D01*
X67921215Y-67567500D01*
X67968834Y-67615119D01*
X68825977Y-67519881D02*
X68635500Y-67519881D01*
X68540262Y-67567500D01*
X68492643Y-67615119D01*
X68397405Y-67757976D01*
X68349786Y-67948452D01*
X68349786Y-68329405D01*
X68397405Y-68424643D01*
X68445024Y-68472262D01*
X68540262Y-68519881D01*
X68730739Y-68519881D01*
X68825977Y-68472262D01*
X68873596Y-68424643D01*
X68921215Y-68329405D01*
X68921215Y-68091310D01*
X68873596Y-67996071D01*
X68825977Y-67948452D01*
X68730739Y-67900833D01*
X68540262Y-67900833D01*
X68445024Y-67948452D01*
X68397405Y-67996071D01*
X68349786Y-68091310D01*
X153662143Y-123234143D02*
X153614524Y-123281762D01*
X153471667Y-123329381D01*
X153376429Y-123329381D01*
X153233571Y-123281762D01*
X153138333Y-123186524D01*
X153090714Y-123091286D01*
X153043095Y-122900810D01*
X153043095Y-122757952D01*
X153090714Y-122567476D01*
X153138333Y-122472238D01*
X153233571Y-122377000D01*
X153376429Y-122329381D01*
X153471667Y-122329381D01*
X153614524Y-122377000D01*
X153662143Y-122424619D01*
X154614524Y-123329381D02*
X154043095Y-123329381D01*
X154328809Y-123329381D02*
X154328809Y-122329381D01*
X154233571Y-122472238D01*
X154138333Y-122567476D01*
X154043095Y-122615095D01*
X155233571Y-122329381D02*
X155328810Y-122329381D01*
X155424048Y-122377000D01*
X155471667Y-122424619D01*
X155519286Y-122519857D01*
X155566905Y-122710333D01*
X155566905Y-122948429D01*
X155519286Y-123138905D01*
X155471667Y-123234143D01*
X155424048Y-123281762D01*
X155328810Y-123329381D01*
X155233571Y-123329381D01*
X155138333Y-123281762D01*
X155090714Y-123234143D01*
X155043095Y-123138905D01*
X154995476Y-122948429D01*
X154995476Y-122710333D01*
X155043095Y-122519857D01*
X155090714Y-122424619D01*
X155138333Y-122377000D01*
X155233571Y-122329381D01*
X177792143Y-123234143D02*
X177744524Y-123281762D01*
X177601667Y-123329381D01*
X177506429Y-123329381D01*
X177363571Y-123281762D01*
X177268333Y-123186524D01*
X177220714Y-123091286D01*
X177173095Y-122900810D01*
X177173095Y-122757952D01*
X177220714Y-122567476D01*
X177268333Y-122472238D01*
X177363571Y-122377000D01*
X177506429Y-122329381D01*
X177601667Y-122329381D01*
X177744524Y-122377000D01*
X177792143Y-122424619D01*
X178744524Y-123329381D02*
X178173095Y-123329381D01*
X178458809Y-123329381D02*
X178458809Y-122329381D01*
X178363571Y-122472238D01*
X178268333Y-122567476D01*
X178173095Y-122615095D01*
X179696905Y-123329381D02*
X179125476Y-123329381D01*
X179411190Y-123329381D02*
X179411190Y-122329381D01*
X179315952Y-122472238D01*
X179220714Y-122567476D01*
X179125476Y-122615095D01*
X77387143Y-103639857D02*
X77434762Y-103687476D01*
X77482381Y-103830333D01*
X77482381Y-103925571D01*
X77434762Y-104068429D01*
X77339524Y-104163667D01*
X77244286Y-104211286D01*
X77053810Y-104258905D01*
X76910952Y-104258905D01*
X76720476Y-104211286D01*
X76625238Y-104163667D01*
X76530000Y-104068429D01*
X76482381Y-103925571D01*
X76482381Y-103830333D01*
X76530000Y-103687476D01*
X76577619Y-103639857D01*
X77482381Y-102687476D02*
X77482381Y-103258905D01*
X77482381Y-102973191D02*
X76482381Y-102973191D01*
X76625238Y-103068429D01*
X76720476Y-103163667D01*
X76768095Y-103258905D01*
X76577619Y-102306524D02*
X76530000Y-102258905D01*
X76482381Y-102163667D01*
X76482381Y-101925571D01*
X76530000Y-101830333D01*
X76577619Y-101782714D01*
X76672857Y-101735095D01*
X76768095Y-101735095D01*
X76910952Y-101782714D01*
X77482381Y-102354143D01*
X77482381Y-101735095D01*
X126282143Y-104274857D02*
X126329762Y-104322476D01*
X126377381Y-104465333D01*
X126377381Y-104560571D01*
X126329762Y-104703429D01*
X126234524Y-104798667D01*
X126139286Y-104846286D01*
X125948810Y-104893905D01*
X125805952Y-104893905D01*
X125615476Y-104846286D01*
X125520238Y-104798667D01*
X125425000Y-104703429D01*
X125377381Y-104560571D01*
X125377381Y-104465333D01*
X125425000Y-104322476D01*
X125472619Y-104274857D01*
X126377381Y-103322476D02*
X126377381Y-103893905D01*
X126377381Y-103608191D02*
X125377381Y-103608191D01*
X125520238Y-103703429D01*
X125615476Y-103798667D01*
X125663095Y-103893905D01*
X125377381Y-102989143D02*
X125377381Y-102370095D01*
X125758333Y-102703429D01*
X125758333Y-102560571D01*
X125805952Y-102465333D01*
X125853571Y-102417714D01*
X125948810Y-102370095D01*
X126186905Y-102370095D01*
X126282143Y-102417714D01*
X126329762Y-102465333D01*
X126377381Y-102560571D01*
X126377381Y-102846286D01*
X126329762Y-102941524D01*
X126282143Y-102989143D01*
X174542143Y-105544857D02*
X174589762Y-105592476D01*
X174637381Y-105735333D01*
X174637381Y-105830571D01*
X174589762Y-105973429D01*
X174494524Y-106068667D01*
X174399286Y-106116286D01*
X174208810Y-106163905D01*
X174065952Y-106163905D01*
X173875476Y-106116286D01*
X173780238Y-106068667D01*
X173685000Y-105973429D01*
X173637381Y-105830571D01*
X173637381Y-105735333D01*
X173685000Y-105592476D01*
X173732619Y-105544857D01*
X174637381Y-104592476D02*
X174637381Y-105163905D01*
X174637381Y-104878191D02*
X173637381Y-104878191D01*
X173780238Y-104973429D01*
X173875476Y-105068667D01*
X173923095Y-105163905D01*
X173970714Y-103735333D02*
X174637381Y-103735333D01*
X173589762Y-103973429D02*
X174304048Y-104211524D01*
X174304048Y-103592476D01*
X57142143Y-123234143D02*
X57094524Y-123281762D01*
X56951667Y-123329381D01*
X56856429Y-123329381D01*
X56713571Y-123281762D01*
X56618333Y-123186524D01*
X56570714Y-123091286D01*
X56523095Y-122900810D01*
X56523095Y-122757952D01*
X56570714Y-122567476D01*
X56618333Y-122472238D01*
X56713571Y-122377000D01*
X56856429Y-122329381D01*
X56951667Y-122329381D01*
X57094524Y-122377000D01*
X57142143Y-122424619D01*
X58094524Y-123329381D02*
X57523095Y-123329381D01*
X57808809Y-123329381D02*
X57808809Y-122329381D01*
X57713571Y-122472238D01*
X57618333Y-122567476D01*
X57523095Y-122615095D01*
X58999286Y-122329381D02*
X58523095Y-122329381D01*
X58475476Y-122805571D01*
X58523095Y-122757952D01*
X58618333Y-122710333D01*
X58856429Y-122710333D01*
X58951667Y-122757952D01*
X58999286Y-122805571D01*
X59046905Y-122900810D01*
X59046905Y-123138905D01*
X58999286Y-123234143D01*
X58951667Y-123281762D01*
X58856429Y-123329381D01*
X58618333Y-123329381D01*
X58523095Y-123281762D01*
X58475476Y-123234143D01*
X81272143Y-123234143D02*
X81224524Y-123281762D01*
X81081667Y-123329381D01*
X80986429Y-123329381D01*
X80843571Y-123281762D01*
X80748333Y-123186524D01*
X80700714Y-123091286D01*
X80653095Y-122900810D01*
X80653095Y-122757952D01*
X80700714Y-122567476D01*
X80748333Y-122472238D01*
X80843571Y-122377000D01*
X80986429Y-122329381D01*
X81081667Y-122329381D01*
X81224524Y-122377000D01*
X81272143Y-122424619D01*
X82224524Y-123329381D02*
X81653095Y-123329381D01*
X81938809Y-123329381D02*
X81938809Y-122329381D01*
X81843571Y-122472238D01*
X81748333Y-122567476D01*
X81653095Y-122615095D01*
X83081667Y-122329381D02*
X82891190Y-122329381D01*
X82795952Y-122377000D01*
X82748333Y-122424619D01*
X82653095Y-122567476D01*
X82605476Y-122757952D01*
X82605476Y-123138905D01*
X82653095Y-123234143D01*
X82700714Y-123281762D01*
X82795952Y-123329381D01*
X82986429Y-123329381D01*
X83081667Y-123281762D01*
X83129286Y-123234143D01*
X83176905Y-123138905D01*
X83176905Y-122900810D01*
X83129286Y-122805571D01*
X83081667Y-122757952D01*
X82986429Y-122710333D01*
X82795952Y-122710333D01*
X82700714Y-122757952D01*
X82653095Y-122805571D01*
X82605476Y-122900810D01*
X105402143Y-123234143D02*
X105354524Y-123281762D01*
X105211667Y-123329381D01*
X105116429Y-123329381D01*
X104973571Y-123281762D01*
X104878333Y-123186524D01*
X104830714Y-123091286D01*
X104783095Y-122900810D01*
X104783095Y-122757952D01*
X104830714Y-122567476D01*
X104878333Y-122472238D01*
X104973571Y-122377000D01*
X105116429Y-122329381D01*
X105211667Y-122329381D01*
X105354524Y-122377000D01*
X105402143Y-122424619D01*
X106354524Y-123329381D02*
X105783095Y-123329381D01*
X106068809Y-123329381D02*
X106068809Y-122329381D01*
X105973571Y-122472238D01*
X105878333Y-122567476D01*
X105783095Y-122615095D01*
X106687857Y-122329381D02*
X107354524Y-122329381D01*
X106925952Y-123329381D01*
X129532143Y-123234143D02*
X129484524Y-123281762D01*
X129341667Y-123329381D01*
X129246429Y-123329381D01*
X129103571Y-123281762D01*
X129008333Y-123186524D01*
X128960714Y-123091286D01*
X128913095Y-122900810D01*
X128913095Y-122757952D01*
X128960714Y-122567476D01*
X129008333Y-122472238D01*
X129103571Y-122377000D01*
X129246429Y-122329381D01*
X129341667Y-122329381D01*
X129484524Y-122377000D01*
X129532143Y-122424619D01*
X130484524Y-123329381D02*
X129913095Y-123329381D01*
X130198809Y-123329381D02*
X130198809Y-122329381D01*
X130103571Y-122472238D01*
X130008333Y-122567476D01*
X129913095Y-122615095D01*
X131055952Y-122757952D02*
X130960714Y-122710333D01*
X130913095Y-122662714D01*
X130865476Y-122567476D01*
X130865476Y-122519857D01*
X130913095Y-122424619D01*
X130960714Y-122377000D01*
X131055952Y-122329381D01*
X131246429Y-122329381D01*
X131341667Y-122377000D01*
X131389286Y-122424619D01*
X131436905Y-122519857D01*
X131436905Y-122567476D01*
X131389286Y-122662714D01*
X131341667Y-122710333D01*
X131246429Y-122757952D01*
X131055952Y-122757952D01*
X130960714Y-122805571D01*
X130913095Y-122853190D01*
X130865476Y-122948429D01*
X130865476Y-123138905D01*
X130913095Y-123234143D01*
X130960714Y-123281762D01*
X131055952Y-123329381D01*
X131246429Y-123329381D01*
X131341667Y-123281762D01*
X131389286Y-123234143D01*
X131436905Y-123138905D01*
X131436905Y-122948429D01*
X131389286Y-122853190D01*
X131341667Y-122805571D01*
X131246429Y-122757952D01*
X125499905Y-95448381D02*
X125499905Y-94448381D01*
X125738000Y-94448381D01*
X125880858Y-94496000D01*
X125976096Y-94591238D01*
X126023715Y-94686476D01*
X126071334Y-94876952D01*
X126071334Y-95019810D01*
X126023715Y-95210286D01*
X125976096Y-95305524D01*
X125880858Y-95400762D01*
X125738000Y-95448381D01*
X125499905Y-95448381D01*
X126452286Y-94543619D02*
X126499905Y-94496000D01*
X126595143Y-94448381D01*
X126833239Y-94448381D01*
X126928477Y-94496000D01*
X126976096Y-94543619D01*
X127023715Y-94638857D01*
X127023715Y-94734095D01*
X126976096Y-94876952D01*
X126404667Y-95448381D01*
X127023715Y-95448381D01*
X125436405Y-89860381D02*
X125436405Y-88860381D01*
X125674500Y-88860381D01*
X125817358Y-88908000D01*
X125912596Y-89003238D01*
X125960215Y-89098476D01*
X126007834Y-89288952D01*
X126007834Y-89431810D01*
X125960215Y-89622286D01*
X125912596Y-89717524D01*
X125817358Y-89812762D01*
X125674500Y-89860381D01*
X125436405Y-89860381D01*
X126341167Y-88860381D02*
X126960215Y-88860381D01*
X126626881Y-89241333D01*
X126769739Y-89241333D01*
X126864977Y-89288952D01*
X126912596Y-89336571D01*
X126960215Y-89431810D01*
X126960215Y-89669905D01*
X126912596Y-89765143D01*
X126864977Y-89812762D01*
X126769739Y-89860381D01*
X126484024Y-89860381D01*
X126388786Y-89812762D01*
X126341167Y-89765143D01*
X172251810Y-76271381D02*
X172251810Y-75271381D01*
X173299429Y-76176143D02*
X173251810Y-76223762D01*
X173108953Y-76271381D01*
X173013715Y-76271381D01*
X172870857Y-76223762D01*
X172775619Y-76128524D01*
X172728000Y-76033286D01*
X172680381Y-75842810D01*
X172680381Y-75699952D01*
X172728000Y-75509476D01*
X172775619Y-75414238D01*
X172870857Y-75319000D01*
X173013715Y-75271381D01*
X173108953Y-75271381D01*
X173251810Y-75319000D01*
X173299429Y-75366619D01*
X174251810Y-76271381D02*
X173680381Y-76271381D01*
X173966095Y-76271381D02*
X173966095Y-75271381D01*
X173870857Y-75414238D01*
X173775619Y-75509476D01*
X173680381Y-75557095D01*
X73413881Y-75334690D02*
X72413881Y-75334690D01*
X73318643Y-74287071D02*
X73366262Y-74334690D01*
X73413881Y-74477547D01*
X73413881Y-74572785D01*
X73366262Y-74715643D01*
X73271024Y-74810881D01*
X73175786Y-74858500D01*
X72985310Y-74906119D01*
X72842452Y-74906119D01*
X72651976Y-74858500D01*
X72556738Y-74810881D01*
X72461500Y-74715643D01*
X72413881Y-74572785D01*
X72413881Y-74477547D01*
X72461500Y-74334690D01*
X72509119Y-74287071D01*
X72509119Y-73906119D02*
X72461500Y-73858500D01*
X72413881Y-73763262D01*
X72413881Y-73525166D01*
X72461500Y-73429928D01*
X72509119Y-73382309D01*
X72604357Y-73334690D01*
X72699595Y-73334690D01*
X72842452Y-73382309D01*
X73413881Y-73953738D01*
X73413881Y-73334690D01*
X168867381Y-117943190D02*
X167867381Y-117943190D01*
X168772143Y-116895571D02*
X168819762Y-116943190D01*
X168867381Y-117086047D01*
X168867381Y-117181285D01*
X168819762Y-117324143D01*
X168724524Y-117419381D01*
X168629286Y-117467000D01*
X168438810Y-117514619D01*
X168295952Y-117514619D01*
X168105476Y-117467000D01*
X168010238Y-117419381D01*
X167915000Y-117324143D01*
X167867381Y-117181285D01*
X167867381Y-117086047D01*
X167915000Y-116943190D01*
X167962619Y-116895571D01*
X168200714Y-116038428D02*
X168867381Y-116038428D01*
X167819762Y-116276524D02*
X168534048Y-116514619D01*
X168534048Y-115895571D01*
X192997381Y-117943190D02*
X191997381Y-117943190D01*
X192902143Y-116895571D02*
X192949762Y-116943190D01*
X192997381Y-117086047D01*
X192997381Y-117181285D01*
X192949762Y-117324143D01*
X192854524Y-117419381D01*
X192759286Y-117467000D01*
X192568810Y-117514619D01*
X192425952Y-117514619D01*
X192235476Y-117467000D01*
X192140238Y-117419381D01*
X192045000Y-117324143D01*
X191997381Y-117181285D01*
X191997381Y-117086047D01*
X192045000Y-116943190D01*
X192092619Y-116895571D01*
X191997381Y-115990809D02*
X191997381Y-116467000D01*
X192473571Y-116514619D01*
X192425952Y-116467000D01*
X192378333Y-116371762D01*
X192378333Y-116133666D01*
X192425952Y-116038428D01*
X192473571Y-115990809D01*
X192568810Y-115943190D01*
X192806905Y-115943190D01*
X192902143Y-115990809D01*
X192949762Y-116038428D01*
X192997381Y-116133666D01*
X192997381Y-116371762D01*
X192949762Y-116467000D01*
X192902143Y-116514619D01*
X65736381Y-103846190D02*
X64736381Y-103846190D01*
X65641143Y-102798571D02*
X65688762Y-102846190D01*
X65736381Y-102989047D01*
X65736381Y-103084285D01*
X65688762Y-103227143D01*
X65593524Y-103322381D01*
X65498286Y-103370000D01*
X65307810Y-103417619D01*
X65164952Y-103417619D01*
X64974476Y-103370000D01*
X64879238Y-103322381D01*
X64784000Y-103227143D01*
X64736381Y-103084285D01*
X64736381Y-102989047D01*
X64784000Y-102846190D01*
X64831619Y-102798571D01*
X64736381Y-101941428D02*
X64736381Y-102131905D01*
X64784000Y-102227143D01*
X64831619Y-102274762D01*
X64974476Y-102370000D01*
X65164952Y-102417619D01*
X65545905Y-102417619D01*
X65641143Y-102370000D01*
X65688762Y-102322381D01*
X65736381Y-102227143D01*
X65736381Y-102036666D01*
X65688762Y-101941428D01*
X65641143Y-101893809D01*
X65545905Y-101846190D01*
X65307810Y-101846190D01*
X65212571Y-101893809D01*
X65164952Y-101941428D01*
X65117333Y-102036666D01*
X65117333Y-102227143D01*
X65164952Y-102322381D01*
X65212571Y-102370000D01*
X65307810Y-102417619D01*
X115012381Y-103973190D02*
X114012381Y-103973190D01*
X114917143Y-102925571D02*
X114964762Y-102973190D01*
X115012381Y-103116047D01*
X115012381Y-103211285D01*
X114964762Y-103354143D01*
X114869524Y-103449381D01*
X114774286Y-103497000D01*
X114583810Y-103544619D01*
X114440952Y-103544619D01*
X114250476Y-103497000D01*
X114155238Y-103449381D01*
X114060000Y-103354143D01*
X114012381Y-103211285D01*
X114012381Y-103116047D01*
X114060000Y-102973190D01*
X114107619Y-102925571D01*
X114012381Y-102592238D02*
X114012381Y-101925571D01*
X115012381Y-102354143D01*
X163272381Y-105878190D02*
X162272381Y-105878190D01*
X163177143Y-104830571D02*
X163224762Y-104878190D01*
X163272381Y-105021047D01*
X163272381Y-105116285D01*
X163224762Y-105259143D01*
X163129524Y-105354381D01*
X163034286Y-105402000D01*
X162843810Y-105449619D01*
X162700952Y-105449619D01*
X162510476Y-105402000D01*
X162415238Y-105354381D01*
X162320000Y-105259143D01*
X162272381Y-105116285D01*
X162272381Y-105021047D01*
X162320000Y-104878190D01*
X162367619Y-104830571D01*
X162700952Y-104259143D02*
X162653333Y-104354381D01*
X162605714Y-104402000D01*
X162510476Y-104449619D01*
X162462857Y-104449619D01*
X162367619Y-104402000D01*
X162320000Y-104354381D01*
X162272381Y-104259143D01*
X162272381Y-104068666D01*
X162320000Y-103973428D01*
X162367619Y-103925809D01*
X162462857Y-103878190D01*
X162510476Y-103878190D01*
X162605714Y-103925809D01*
X162653333Y-103973428D01*
X162700952Y-104068666D01*
X162700952Y-104259143D01*
X162748571Y-104354381D01*
X162796190Y-104402000D01*
X162891429Y-104449619D01*
X163081905Y-104449619D01*
X163177143Y-104402000D01*
X163224762Y-104354381D01*
X163272381Y-104259143D01*
X163272381Y-104068666D01*
X163224762Y-103973428D01*
X163177143Y-103925809D01*
X163081905Y-103878190D01*
X162891429Y-103878190D01*
X162796190Y-103925809D01*
X162748571Y-103973428D01*
X162700952Y-104068666D01*
X72347381Y-117943190D02*
X71347381Y-117943190D01*
X72252143Y-116895571D02*
X72299762Y-116943190D01*
X72347381Y-117086047D01*
X72347381Y-117181285D01*
X72299762Y-117324143D01*
X72204524Y-117419381D01*
X72109286Y-117467000D01*
X71918810Y-117514619D01*
X71775952Y-117514619D01*
X71585476Y-117467000D01*
X71490238Y-117419381D01*
X71395000Y-117324143D01*
X71347381Y-117181285D01*
X71347381Y-117086047D01*
X71395000Y-116943190D01*
X71442619Y-116895571D01*
X72347381Y-116419381D02*
X72347381Y-116228905D01*
X72299762Y-116133666D01*
X72252143Y-116086047D01*
X72109286Y-115990809D01*
X71918810Y-115943190D01*
X71537857Y-115943190D01*
X71442619Y-115990809D01*
X71395000Y-116038428D01*
X71347381Y-116133666D01*
X71347381Y-116324143D01*
X71395000Y-116419381D01*
X71442619Y-116467000D01*
X71537857Y-116514619D01*
X71775952Y-116514619D01*
X71871190Y-116467000D01*
X71918810Y-116419381D01*
X71966429Y-116324143D01*
X71966429Y-116133666D01*
X71918810Y-116038428D01*
X71871190Y-115990809D01*
X71775952Y-115943190D01*
X96477381Y-118419381D02*
X95477381Y-118419381D01*
X96382143Y-117371762D02*
X96429762Y-117419381D01*
X96477381Y-117562238D01*
X96477381Y-117657476D01*
X96429762Y-117800334D01*
X96334524Y-117895572D01*
X96239286Y-117943191D01*
X96048810Y-117990810D01*
X95905952Y-117990810D01*
X95715476Y-117943191D01*
X95620238Y-117895572D01*
X95525000Y-117800334D01*
X95477381Y-117657476D01*
X95477381Y-117562238D01*
X95525000Y-117419381D01*
X95572619Y-117371762D01*
X96477381Y-116419381D02*
X96477381Y-116990810D01*
X96477381Y-116705096D02*
X95477381Y-116705096D01*
X95620238Y-116800334D01*
X95715476Y-116895572D01*
X95763095Y-116990810D01*
X95477381Y-115800334D02*
X95477381Y-115705095D01*
X95525000Y-115609857D01*
X95572619Y-115562238D01*
X95667857Y-115514619D01*
X95858333Y-115467000D01*
X96096429Y-115467000D01*
X96286905Y-115514619D01*
X96382143Y-115562238D01*
X96429762Y-115609857D01*
X96477381Y-115705095D01*
X96477381Y-115800334D01*
X96429762Y-115895572D01*
X96382143Y-115943191D01*
X96286905Y-115990810D01*
X96096429Y-116038429D01*
X95858333Y-116038429D01*
X95667857Y-115990810D01*
X95572619Y-115943191D01*
X95525000Y-115895572D01*
X95477381Y-115800334D01*
X120607381Y-118419381D02*
X119607381Y-118419381D01*
X120512143Y-117371762D02*
X120559762Y-117419381D01*
X120607381Y-117562238D01*
X120607381Y-117657476D01*
X120559762Y-117800334D01*
X120464524Y-117895572D01*
X120369286Y-117943191D01*
X120178810Y-117990810D01*
X120035952Y-117990810D01*
X119845476Y-117943191D01*
X119750238Y-117895572D01*
X119655000Y-117800334D01*
X119607381Y-117657476D01*
X119607381Y-117562238D01*
X119655000Y-117419381D01*
X119702619Y-117371762D01*
X120607381Y-116419381D02*
X120607381Y-116990810D01*
X120607381Y-116705096D02*
X119607381Y-116705096D01*
X119750238Y-116800334D01*
X119845476Y-116895572D01*
X119893095Y-116990810D01*
X120607381Y-115467000D02*
X120607381Y-116038429D01*
X120607381Y-115752715D02*
X119607381Y-115752715D01*
X119750238Y-115847953D01*
X119845476Y-115943191D01*
X119893095Y-116038429D01*
X144737381Y-118419381D02*
X143737381Y-118419381D01*
X144642143Y-117371762D02*
X144689762Y-117419381D01*
X144737381Y-117562238D01*
X144737381Y-117657476D01*
X144689762Y-117800334D01*
X144594524Y-117895572D01*
X144499286Y-117943191D01*
X144308810Y-117990810D01*
X144165952Y-117990810D01*
X143975476Y-117943191D01*
X143880238Y-117895572D01*
X143785000Y-117800334D01*
X143737381Y-117657476D01*
X143737381Y-117562238D01*
X143785000Y-117419381D01*
X143832619Y-117371762D01*
X144737381Y-116419381D02*
X144737381Y-116990810D01*
X144737381Y-116705096D02*
X143737381Y-116705096D01*
X143880238Y-116800334D01*
X143975476Y-116895572D01*
X144023095Y-116990810D01*
X143832619Y-116038429D02*
X143785000Y-115990810D01*
X143737381Y-115895572D01*
X143737381Y-115657476D01*
X143785000Y-115562238D01*
X143832619Y-115514619D01*
X143927857Y-115467000D01*
X144023095Y-115467000D01*
X144165952Y-115514619D01*
X144737381Y-116086048D01*
X144737381Y-115467000D01*
X165568334Y-77482381D02*
X165235000Y-77006190D01*
X164996905Y-77482381D02*
X164996905Y-76482381D01*
X165377858Y-76482381D01*
X165473096Y-76530000D01*
X165520715Y-76577619D01*
X165568334Y-76672857D01*
X165568334Y-76815714D01*
X165520715Y-76910952D01*
X165473096Y-76958571D01*
X165377858Y-77006190D01*
X164996905Y-77006190D01*
X166520715Y-77482381D02*
X165949286Y-77482381D01*
X166235000Y-77482381D02*
X166235000Y-76482381D01*
X166139762Y-76625238D01*
X166044524Y-76720476D01*
X165949286Y-76768095D01*
X165568334Y-81927381D02*
X165235000Y-81451190D01*
X164996905Y-81927381D02*
X164996905Y-80927381D01*
X165377858Y-80927381D01*
X165473096Y-80975000D01*
X165520715Y-81022619D01*
X165568334Y-81117857D01*
X165568334Y-81260714D01*
X165520715Y-81355952D01*
X165473096Y-81403571D01*
X165377858Y-81451190D01*
X164996905Y-81451190D01*
X165949286Y-81022619D02*
X165996905Y-80975000D01*
X166092143Y-80927381D01*
X166330239Y-80927381D01*
X166425477Y-80975000D01*
X166473096Y-81022619D01*
X166520715Y-81117857D01*
X166520715Y-81213095D01*
X166473096Y-81355952D01*
X165901667Y-81927381D01*
X166520715Y-81927381D01*
X135278834Y-94241881D02*
X134945500Y-93765690D01*
X134707405Y-94241881D02*
X134707405Y-93241881D01*
X135088358Y-93241881D01*
X135183596Y-93289500D01*
X135231215Y-93337119D01*
X135278834Y-93432357D01*
X135278834Y-93575214D01*
X135231215Y-93670452D01*
X135183596Y-93718071D01*
X135088358Y-93765690D01*
X134707405Y-93765690D01*
X135612167Y-93241881D02*
X136278834Y-93241881D01*
X135850262Y-94241881D01*
X135151834Y-91384381D02*
X134818500Y-90908190D01*
X134580405Y-91384381D02*
X134580405Y-90384381D01*
X134961358Y-90384381D01*
X135056596Y-90432000D01*
X135104215Y-90479619D01*
X135151834Y-90574857D01*
X135151834Y-90717714D01*
X135104215Y-90812952D01*
X135056596Y-90860571D01*
X134961358Y-90908190D01*
X134580405Y-90908190D01*
X135723262Y-90812952D02*
X135628024Y-90765333D01*
X135580405Y-90717714D01*
X135532786Y-90622476D01*
X135532786Y-90574857D01*
X135580405Y-90479619D01*
X135628024Y-90432000D01*
X135723262Y-90384381D01*
X135913739Y-90384381D01*
X136008977Y-90432000D01*
X136056596Y-90479619D01*
X136104215Y-90574857D01*
X136104215Y-90622476D01*
X136056596Y-90717714D01*
X136008977Y-90765333D01*
X135913739Y-90812952D01*
X135723262Y-90812952D01*
X135628024Y-90860571D01*
X135580405Y-90908190D01*
X135532786Y-91003429D01*
X135532786Y-91193905D01*
X135580405Y-91289143D01*
X135628024Y-91336762D01*
X135723262Y-91384381D01*
X135913739Y-91384381D01*
X136008977Y-91336762D01*
X136056596Y-91289143D01*
X136104215Y-91193905D01*
X136104215Y-91003429D01*
X136056596Y-90908190D01*
X136008977Y-90860571D01*
X135913739Y-90812952D01*
X159524381Y-153328666D02*
X159048190Y-153662000D01*
X159524381Y-153900095D02*
X158524381Y-153900095D01*
X158524381Y-153519142D01*
X158572000Y-153423904D01*
X158619619Y-153376285D01*
X158714857Y-153328666D01*
X158857714Y-153328666D01*
X158952952Y-153376285D01*
X159000571Y-153423904D01*
X159048190Y-153519142D01*
X159048190Y-153900095D01*
X159524381Y-152852476D02*
X159524381Y-152662000D01*
X159476762Y-152566761D01*
X159429143Y-152519142D01*
X159286286Y-152423904D01*
X159095810Y-152376285D01*
X158714857Y-152376285D01*
X158619619Y-152423904D01*
X158572000Y-152471523D01*
X158524381Y-152566761D01*
X158524381Y-152757238D01*
X158572000Y-152852476D01*
X158619619Y-152900095D01*
X158714857Y-152947714D01*
X158952952Y-152947714D01*
X159048190Y-152900095D01*
X159095810Y-152852476D01*
X159143429Y-152757238D01*
X159143429Y-152566761D01*
X159095810Y-152471523D01*
X159048190Y-152423904D01*
X158952952Y-152376285D01*
X179336381Y-153804857D02*
X178860190Y-154138191D01*
X179336381Y-154376286D02*
X178336381Y-154376286D01*
X178336381Y-153995333D01*
X178384000Y-153900095D01*
X178431619Y-153852476D01*
X178526857Y-153804857D01*
X178669714Y-153804857D01*
X178764952Y-153852476D01*
X178812571Y-153900095D01*
X178860190Y-153995333D01*
X178860190Y-154376286D01*
X179336381Y-152852476D02*
X179336381Y-153423905D01*
X179336381Y-153138191D02*
X178336381Y-153138191D01*
X178479238Y-153233429D01*
X178574476Y-153328667D01*
X178622095Y-153423905D01*
X178336381Y-152233429D02*
X178336381Y-152138190D01*
X178384000Y-152042952D01*
X178431619Y-151995333D01*
X178526857Y-151947714D01*
X178717333Y-151900095D01*
X178955429Y-151900095D01*
X179145905Y-151947714D01*
X179241143Y-151995333D01*
X179288762Y-152042952D01*
X179336381Y-152138190D01*
X179336381Y-152233429D01*
X179288762Y-152328667D01*
X179241143Y-152376286D01*
X179145905Y-152423905D01*
X178955429Y-152471524D01*
X178717333Y-152471524D01*
X178526857Y-152423905D01*
X178431619Y-152376286D01*
X178384000Y-152328667D01*
X178336381Y-152233429D01*
X63004381Y-153931857D02*
X62528190Y-154265191D01*
X63004381Y-154503286D02*
X62004381Y-154503286D01*
X62004381Y-154122333D01*
X62052000Y-154027095D01*
X62099619Y-153979476D01*
X62194857Y-153931857D01*
X62337714Y-153931857D01*
X62432952Y-153979476D01*
X62480571Y-154027095D01*
X62528190Y-154122333D01*
X62528190Y-154503286D01*
X63004381Y-152979476D02*
X63004381Y-153550905D01*
X63004381Y-153265191D02*
X62004381Y-153265191D01*
X62147238Y-153360429D01*
X62242476Y-153455667D01*
X62290095Y-153550905D01*
X63004381Y-152027095D02*
X63004381Y-152598524D01*
X63004381Y-152312810D02*
X62004381Y-152312810D01*
X62147238Y-152408048D01*
X62242476Y-152503286D01*
X62290095Y-152598524D01*
X82689381Y-153931857D02*
X82213190Y-154265191D01*
X82689381Y-154503286D02*
X81689381Y-154503286D01*
X81689381Y-154122333D01*
X81737000Y-154027095D01*
X81784619Y-153979476D01*
X81879857Y-153931857D01*
X82022714Y-153931857D01*
X82117952Y-153979476D01*
X82165571Y-154027095D01*
X82213190Y-154122333D01*
X82213190Y-154503286D01*
X82689381Y-152979476D02*
X82689381Y-153550905D01*
X82689381Y-153265191D02*
X81689381Y-153265191D01*
X81832238Y-153360429D01*
X81927476Y-153455667D01*
X81975095Y-153550905D01*
X81784619Y-152598524D02*
X81737000Y-152550905D01*
X81689381Y-152455667D01*
X81689381Y-152217571D01*
X81737000Y-152122333D01*
X81784619Y-152074714D01*
X81879857Y-152027095D01*
X81975095Y-152027095D01*
X82117952Y-152074714D01*
X82689381Y-152646143D01*
X82689381Y-152027095D01*
X111264381Y-153804857D02*
X110788190Y-154138191D01*
X111264381Y-154376286D02*
X110264381Y-154376286D01*
X110264381Y-153995333D01*
X110312000Y-153900095D01*
X110359619Y-153852476D01*
X110454857Y-153804857D01*
X110597714Y-153804857D01*
X110692952Y-153852476D01*
X110740571Y-153900095D01*
X110788190Y-153995333D01*
X110788190Y-154376286D01*
X111264381Y-152852476D02*
X111264381Y-153423905D01*
X111264381Y-153138191D02*
X110264381Y-153138191D01*
X110407238Y-153233429D01*
X110502476Y-153328667D01*
X110550095Y-153423905D01*
X110264381Y-152519143D02*
X110264381Y-151900095D01*
X110645333Y-152233429D01*
X110645333Y-152090571D01*
X110692952Y-151995333D01*
X110740571Y-151947714D01*
X110835810Y-151900095D01*
X111073905Y-151900095D01*
X111169143Y-151947714D01*
X111216762Y-151995333D01*
X111264381Y-152090571D01*
X111264381Y-152376286D01*
X111216762Y-152471524D01*
X111169143Y-152519143D01*
X130949381Y-153804857D02*
X130473190Y-154138191D01*
X130949381Y-154376286D02*
X129949381Y-154376286D01*
X129949381Y-153995333D01*
X129997000Y-153900095D01*
X130044619Y-153852476D01*
X130139857Y-153804857D01*
X130282714Y-153804857D01*
X130377952Y-153852476D01*
X130425571Y-153900095D01*
X130473190Y-153995333D01*
X130473190Y-154376286D01*
X130949381Y-152852476D02*
X130949381Y-153423905D01*
X130949381Y-153138191D02*
X129949381Y-153138191D01*
X130092238Y-153233429D01*
X130187476Y-153328667D01*
X130235095Y-153423905D01*
X130282714Y-151995333D02*
X130949381Y-151995333D01*
X129901762Y-152233429D02*
X130616048Y-152471524D01*
X130616048Y-151852476D01*
X59533095Y-129864381D02*
X59533095Y-128864381D01*
X60104524Y-129864381D01*
X60104524Y-128864381D01*
X61104524Y-129864381D02*
X60533095Y-129864381D01*
X60818809Y-129864381D02*
X60818809Y-128864381D01*
X60723571Y-129007238D01*
X60628333Y-129102476D01*
X60533095Y-129150095D01*
X79218095Y-129864381D02*
X79218095Y-128864381D01*
X79789524Y-129864381D01*
X79789524Y-128864381D01*
X80218095Y-128959619D02*
X80265714Y-128912000D01*
X80360952Y-128864381D01*
X80599048Y-128864381D01*
X80694286Y-128912000D01*
X80741905Y-128959619D01*
X80789524Y-129054857D01*
X80789524Y-129150095D01*
X80741905Y-129292952D01*
X80170476Y-129864381D01*
X80789524Y-129864381D01*
X107793095Y-129864381D02*
X107793095Y-128864381D01*
X108364524Y-129864381D01*
X108364524Y-128864381D01*
X108745476Y-128864381D02*
X109364524Y-128864381D01*
X109031190Y-129245333D01*
X109174048Y-129245333D01*
X109269286Y-129292952D01*
X109316905Y-129340571D01*
X109364524Y-129435810D01*
X109364524Y-129673905D01*
X109316905Y-129769143D01*
X109269286Y-129816762D01*
X109174048Y-129864381D01*
X108888333Y-129864381D01*
X108793095Y-129816762D01*
X108745476Y-129769143D01*
X127478095Y-129864381D02*
X127478095Y-128864381D01*
X128049524Y-129864381D01*
X128049524Y-128864381D01*
X128954286Y-129197714D02*
X128954286Y-129864381D01*
X128716190Y-128816762D02*
X128478095Y-129531048D01*
X129097143Y-129531048D01*
X156053095Y-129864381D02*
X156053095Y-128864381D01*
X156624524Y-129864381D01*
X156624524Y-128864381D01*
X157576905Y-128864381D02*
X157100714Y-128864381D01*
X157053095Y-129340571D01*
X157100714Y-129292952D01*
X157195952Y-129245333D01*
X157434048Y-129245333D01*
X157529286Y-129292952D01*
X157576905Y-129340571D01*
X157624524Y-129435810D01*
X157624524Y-129673905D01*
X157576905Y-129769143D01*
X157529286Y-129816762D01*
X157434048Y-129864381D01*
X157195952Y-129864381D01*
X157100714Y-129816762D01*
X157053095Y-129769143D01*
X175738095Y-129864381D02*
X175738095Y-128864381D01*
X176309524Y-129864381D01*
X176309524Y-128864381D01*
X177214286Y-128864381D02*
X177023809Y-128864381D01*
X176928571Y-128912000D01*
X176880952Y-128959619D01*
X176785714Y-129102476D01*
X176738095Y-129292952D01*
X176738095Y-129673905D01*
X176785714Y-129769143D01*
X176833333Y-129816762D01*
X176928571Y-129864381D01*
X177119048Y-129864381D01*
X177214286Y-129816762D01*
X177261905Y-129769143D01*
X177309524Y-129673905D01*
X177309524Y-129435810D01*
X177261905Y-129340571D01*
X177214286Y-129292952D01*
X177119048Y-129245333D01*
X176928571Y-129245333D01*
X176833333Y-129292952D01*
X176785714Y-129340571D01*
X176738095Y-129435810D01*
X103147905Y-73670421D02*
X103147905Y-72670421D01*
X103528858Y-72670421D01*
X103624096Y-72718040D01*
X103671715Y-72765659D01*
X103719334Y-72860897D01*
X103719334Y-73003754D01*
X103671715Y-73098992D01*
X103624096Y-73146611D01*
X103528858Y-73194230D01*
X103147905Y-73194230D01*
X104671715Y-73670421D02*
X104100286Y-73670421D01*
X104386000Y-73670421D02*
X104386000Y-72670421D01*
X104290762Y-72813278D01*
X104195524Y-72908516D01*
X104100286Y-72956135D01*
X101333881Y-79033595D02*
X100333881Y-79033595D01*
X100333881Y-78652642D01*
X100381500Y-78557404D01*
X100429119Y-78509785D01*
X100524357Y-78462166D01*
X100667214Y-78462166D01*
X100762452Y-78509785D01*
X100810071Y-78557404D01*
X100857690Y-78652642D01*
X100857690Y-79033595D01*
X100429119Y-78081214D02*
X100381500Y-78033595D01*
X100333881Y-77938357D01*
X100333881Y-77700261D01*
X100381500Y-77605023D01*
X100429119Y-77557404D01*
X100524357Y-77509785D01*
X100619595Y-77509785D01*
X100762452Y-77557404D01*
X101333881Y-78128833D01*
X101333881Y-77509785D01*
X68893881Y-79224166D02*
X68417690Y-79557500D01*
X68893881Y-79795595D02*
X67893881Y-79795595D01*
X67893881Y-79414642D01*
X67941500Y-79319404D01*
X67989119Y-79271785D01*
X68084357Y-79224166D01*
X68227214Y-79224166D01*
X68322452Y-79271785D01*
X68370071Y-79319404D01*
X68417690Y-79414642D01*
X68417690Y-79795595D01*
X67893881Y-78890833D02*
X67893881Y-78271785D01*
X68274833Y-78605119D01*
X68274833Y-78462261D01*
X68322452Y-78367023D01*
X68370071Y-78319404D01*
X68465310Y-78271785D01*
X68703405Y-78271785D01*
X68798643Y-78319404D01*
X68846262Y-78367023D01*
X68893881Y-78462261D01*
X68893881Y-78747976D01*
X68846262Y-78843214D01*
X68798643Y-78890833D01*
X63777834Y-68385881D02*
X63444500Y-67909690D01*
X63206405Y-68385881D02*
X63206405Y-67385881D01*
X63587358Y-67385881D01*
X63682596Y-67433500D01*
X63730215Y-67481119D01*
X63777834Y-67576357D01*
X63777834Y-67719214D01*
X63730215Y-67814452D01*
X63682596Y-67862071D01*
X63587358Y-67909690D01*
X63206405Y-67909690D01*
X64682596Y-67385881D02*
X64206405Y-67385881D01*
X64158786Y-67862071D01*
X64206405Y-67814452D01*
X64301643Y-67766833D01*
X64539739Y-67766833D01*
X64634977Y-67814452D01*
X64682596Y-67862071D01*
X64730215Y-67957310D01*
X64730215Y-68195405D01*
X64682596Y-68290643D01*
X64634977Y-68338262D01*
X64539739Y-68385881D01*
X64301643Y-68385881D01*
X64206405Y-68338262D01*
X64158786Y-68290643D01*
X74826834Y-65226881D02*
X74493500Y-64750690D01*
X74255405Y-65226881D02*
X74255405Y-64226881D01*
X74636358Y-64226881D01*
X74731596Y-64274500D01*
X74779215Y-64322119D01*
X74826834Y-64417357D01*
X74826834Y-64560214D01*
X74779215Y-64655452D01*
X74731596Y-64703071D01*
X74636358Y-64750690D01*
X74255405Y-64750690D01*
X75683977Y-64226881D02*
X75493500Y-64226881D01*
X75398262Y-64274500D01*
X75350643Y-64322119D01*
X75255405Y-64464976D01*
X75207786Y-64655452D01*
X75207786Y-65036405D01*
X75255405Y-65131643D01*
X75303024Y-65179262D01*
X75398262Y-65226881D01*
X75588739Y-65226881D01*
X75683977Y-65179262D01*
X75731596Y-65131643D01*
X75779215Y-65036405D01*
X75779215Y-64798310D01*
X75731596Y-64703071D01*
X75683977Y-64655452D01*
X75588739Y-64607833D01*
X75398262Y-64607833D01*
X75303024Y-64655452D01*
X75255405Y-64703071D01*
X75207786Y-64798310D01*
X180765143Y-77858857D02*
X180812762Y-77906476D01*
X180860381Y-78049333D01*
X180860381Y-78144571D01*
X180812762Y-78287429D01*
X180717524Y-78382667D01*
X180622286Y-78430286D01*
X180431810Y-78477905D01*
X180288952Y-78477905D01*
X180098476Y-78430286D01*
X180003238Y-78382667D01*
X179908000Y-78287429D01*
X179860381Y-78144571D01*
X179860381Y-78049333D01*
X179908000Y-77906476D01*
X179955619Y-77858857D01*
X180860381Y-76906476D02*
X180860381Y-77477905D01*
X180860381Y-77192191D02*
X179860381Y-77192191D01*
X180003238Y-77287429D01*
X180098476Y-77382667D01*
X180146095Y-77477905D01*
X180860381Y-76430286D02*
X180860381Y-76239810D01*
X180812762Y-76144571D01*
X180765143Y-76096952D01*
X180622286Y-76001714D01*
X180431810Y-75954095D01*
X180050857Y-75954095D01*
X179955619Y-76001714D01*
X179908000Y-76049333D01*
X179860381Y-76144571D01*
X179860381Y-76335048D01*
X179908000Y-76430286D01*
X179955619Y-76477905D01*
X180050857Y-76525524D01*
X180288952Y-76525524D01*
X180384190Y-76477905D01*
X180431810Y-76430286D01*
X180479429Y-76335048D01*
X180479429Y-76144571D01*
X180431810Y-76049333D01*
X180384190Y-76001714D01*
X180288952Y-75954095D01*
X108691810Y-97111881D02*
X108691810Y-96111881D01*
X109739429Y-97016643D02*
X109691810Y-97064262D01*
X109548953Y-97111881D01*
X109453715Y-97111881D01*
X109310857Y-97064262D01*
X109215619Y-96969024D01*
X109168000Y-96873786D01*
X109120381Y-96683310D01*
X109120381Y-96540452D01*
X109168000Y-96349976D01*
X109215619Y-96254738D01*
X109310857Y-96159500D01*
X109453715Y-96111881D01*
X109548953Y-96111881D01*
X109691810Y-96159500D01*
X109739429Y-96207119D01*
X110072762Y-96111881D02*
X110691810Y-96111881D01*
X110358476Y-96492833D01*
X110501334Y-96492833D01*
X110596572Y-96540452D01*
X110644191Y-96588071D01*
X110691810Y-96683310D01*
X110691810Y-96921405D01*
X110644191Y-97016643D01*
X110596572Y-97064262D01*
X110501334Y-97111881D01*
X110215619Y-97111881D01*
X110120381Y-97064262D01*
X110072762Y-97016643D01*
X81830183Y-77773826D02*
X81877802Y-77821445D01*
X81925421Y-77964302D01*
X81925421Y-78059540D01*
X81877802Y-78202398D01*
X81782564Y-78297636D01*
X81687326Y-78345255D01*
X81496850Y-78392874D01*
X81353992Y-78392874D01*
X81163516Y-78345255D01*
X81068278Y-78297636D01*
X80973040Y-78202398D01*
X80925421Y-78059540D01*
X80925421Y-77964302D01*
X80973040Y-77821445D01*
X81020659Y-77773826D01*
X81925421Y-76821445D02*
X81925421Y-77392874D01*
X81925421Y-77107160D02*
X80925421Y-77107160D01*
X81068278Y-77202398D01*
X81163516Y-77297636D01*
X81211135Y-77392874D01*
X82644289Y-83538012D02*
X82644289Y-82776107D01*
X83025241Y-83157059D02*
X82263336Y-83157059D01*
X85477623Y-78606946D02*
X85525242Y-78654565D01*
X85572861Y-78797422D01*
X85572861Y-78892660D01*
X85525242Y-79035518D01*
X85430004Y-79130756D01*
X85334766Y-79178375D01*
X85144290Y-79225994D01*
X85001432Y-79225994D01*
X84810956Y-79178375D01*
X84715718Y-79130756D01*
X84620480Y-79035518D01*
X84572861Y-78892660D01*
X84572861Y-78797422D01*
X84620480Y-78654565D01*
X84668099Y-78606946D01*
X84572861Y-78273613D02*
X84572861Y-77606946D01*
X85572861Y-78035518D01*
X89192409Y-84772452D02*
X89192409Y-84010547D01*
X89573361Y-84391499D02*
X88811456Y-84391499D01*
X55903834Y-94019643D02*
X55856215Y-94067262D01*
X55713358Y-94114881D01*
X55618120Y-94114881D01*
X55475262Y-94067262D01*
X55380024Y-93972024D01*
X55332405Y-93876786D01*
X55284786Y-93686310D01*
X55284786Y-93543452D01*
X55332405Y-93352976D01*
X55380024Y-93257738D01*
X55475262Y-93162500D01*
X55618120Y-93114881D01*
X55713358Y-93114881D01*
X55856215Y-93162500D01*
X55903834Y-93210119D01*
X56475262Y-93543452D02*
X56380024Y-93495833D01*
X56332405Y-93448214D01*
X56284786Y-93352976D01*
X56284786Y-93305357D01*
X56332405Y-93210119D01*
X56380024Y-93162500D01*
X56475262Y-93114881D01*
X56665739Y-93114881D01*
X56760977Y-93162500D01*
X56808596Y-93210119D01*
X56856215Y-93305357D01*
X56856215Y-93352976D01*
X56808596Y-93448214D01*
X56760977Y-93495833D01*
X56665739Y-93543452D01*
X56475262Y-93543452D01*
X56380024Y-93591071D01*
X56332405Y-93638690D01*
X56284786Y-93733929D01*
X56284786Y-93924405D01*
X56332405Y-94019643D01*
X56380024Y-94067262D01*
X56475262Y-94114881D01*
X56665739Y-94114881D01*
X56760977Y-94067262D01*
X56808596Y-94019643D01*
X56856215Y-93924405D01*
X56856215Y-93733929D01*
X56808596Y-93638690D01*
X56760977Y-93591071D01*
X56665739Y-93543452D01*
X69810405Y-88653881D02*
X69810405Y-87653881D01*
X70048500Y-87653881D01*
X70191358Y-87701500D01*
X70286596Y-87796738D01*
X70334215Y-87891976D01*
X70381834Y-88082452D01*
X70381834Y-88225310D01*
X70334215Y-88415786D01*
X70286596Y-88511024D01*
X70191358Y-88606262D01*
X70048500Y-88653881D01*
X69810405Y-88653881D01*
X71334215Y-88653881D02*
X70762786Y-88653881D01*
X71048500Y-88653881D02*
X71048500Y-87653881D01*
X70953262Y-87796738D01*
X70858024Y-87891976D01*
X70762786Y-87939595D01*
X67736595Y-93643881D02*
X67736595Y-92643881D01*
X68308024Y-93643881D02*
X67879452Y-93072452D01*
X68308024Y-92643881D02*
X67736595Y-93215310D01*
X72660405Y-93408167D02*
X73136596Y-93408167D01*
X72565167Y-93693881D02*
X72898500Y-92693881D01*
X73231834Y-93693881D01*
X85337834Y-96783881D02*
X84861643Y-96783881D01*
X84861643Y-95783881D01*
X86194977Y-96783881D02*
X85623548Y-96783881D01*
X85909262Y-96783881D02*
X85909262Y-95783881D01*
X85814024Y-95926738D01*
X85718786Y-96021976D01*
X85623548Y-96069595D01*
X74390262Y-88114119D02*
X74295024Y-88066500D01*
X74199786Y-87971262D01*
X74056929Y-87828405D01*
X73961690Y-87780786D01*
X73866452Y-87780786D01*
X73914071Y-88018881D02*
X73818833Y-87971262D01*
X73723595Y-87876024D01*
X73675976Y-87685548D01*
X73675976Y-87352214D01*
X73723595Y-87161738D01*
X73818833Y-87066500D01*
X73914071Y-87018881D01*
X74104548Y-87018881D01*
X74199786Y-87066500D01*
X74295024Y-87161738D01*
X74342643Y-87352214D01*
X74342643Y-87685548D01*
X74295024Y-87876024D01*
X74199786Y-87971262D01*
X74104548Y-88018881D01*
X73914071Y-88018881D01*
X75295024Y-88018881D02*
X74723595Y-88018881D01*
X75009309Y-88018881D02*
X75009309Y-87018881D01*
X74914071Y-87161738D01*
X74818833Y-87256976D01*
X74723595Y-87304595D01*
X116228834Y-81038381D02*
X115895500Y-80562190D01*
X115657405Y-81038381D02*
X115657405Y-80038381D01*
X116038358Y-80038381D01*
X116133596Y-80086000D01*
X116181215Y-80133619D01*
X116228834Y-80228857D01*
X116228834Y-80371714D01*
X116181215Y-80466952D01*
X116133596Y-80514571D01*
X116038358Y-80562190D01*
X115657405Y-80562190D01*
X117085977Y-80371714D02*
X117085977Y-81038381D01*
X116847881Y-79990762D02*
X116609786Y-80705048D01*
X117228834Y-80705048D01*
X74104262Y-74890881D02*
X73770928Y-74414690D01*
X73532833Y-74890881D02*
X73532833Y-73890881D01*
X73913786Y-73890881D01*
X74009024Y-73938500D01*
X74056643Y-73986119D01*
X74104262Y-74081357D01*
X74104262Y-74224214D01*
X74056643Y-74319452D01*
X74009024Y-74367071D01*
X73913786Y-74414690D01*
X73532833Y-74414690D01*
X74389976Y-73890881D02*
X74723309Y-74890881D01*
X75056643Y-73890881D01*
X75913786Y-74890881D02*
X75342357Y-74890881D01*
X75628071Y-74890881D02*
X75628071Y-73890881D01*
X75532833Y-74033738D01*
X75437595Y-74128976D01*
X75342357Y-74176595D01*
X122172262Y-68643333D02*
X122219881Y-68500476D01*
X122219881Y-68262380D01*
X122172262Y-68167142D01*
X122124643Y-68119523D01*
X122029405Y-68071904D01*
X121934167Y-68071904D01*
X121838929Y-68119523D01*
X121791310Y-68167142D01*
X121743690Y-68262380D01*
X121696071Y-68452857D01*
X121648452Y-68548095D01*
X121600833Y-68595714D01*
X121505595Y-68643333D01*
X121410357Y-68643333D01*
X121315119Y-68595714D01*
X121267500Y-68548095D01*
X121219881Y-68452857D01*
X121219881Y-68214761D01*
X121267500Y-68071904D01*
X121219881Y-67738571D02*
X122219881Y-67500476D01*
X121505595Y-67309999D01*
X122219881Y-67119523D01*
X121219881Y-66881428D01*
X122219881Y-65976666D02*
X122219881Y-66548095D01*
X122219881Y-66262381D02*
X121219881Y-66262381D01*
X121362738Y-66357619D01*
X121457976Y-66452857D01*
X121505595Y-66548095D01*
X130173262Y-68643333D02*
X130220881Y-68500476D01*
X130220881Y-68262380D01*
X130173262Y-68167142D01*
X130125643Y-68119523D01*
X130030405Y-68071904D01*
X129935167Y-68071904D01*
X129839929Y-68119523D01*
X129792310Y-68167142D01*
X129744690Y-68262380D01*
X129697071Y-68452857D01*
X129649452Y-68548095D01*
X129601833Y-68595714D01*
X129506595Y-68643333D01*
X129411357Y-68643333D01*
X129316119Y-68595714D01*
X129268500Y-68548095D01*
X129220881Y-68452857D01*
X129220881Y-68214761D01*
X129268500Y-68071904D01*
X129220881Y-67738571D02*
X130220881Y-67500476D01*
X129506595Y-67309999D01*
X130220881Y-67119523D01*
X129220881Y-66881428D01*
X129316119Y-66548095D02*
X129268500Y-66500476D01*
X129220881Y-66405238D01*
X129220881Y-66167142D01*
X129268500Y-66071904D01*
X129316119Y-66024285D01*
X129411357Y-65976666D01*
X129506595Y-65976666D01*
X129649452Y-66024285D01*
X130220881Y-66595714D01*
X130220881Y-65976666D01*
X88225381Y-66293905D02*
X89034905Y-66293905D01*
X89130143Y-66246286D01*
X89177762Y-66198667D01*
X89225381Y-66103429D01*
X89225381Y-65912952D01*
X89177762Y-65817714D01*
X89130143Y-65770095D01*
X89034905Y-65722476D01*
X88225381Y-65722476D01*
X89225381Y-64722476D02*
X89225381Y-65293905D01*
X89225381Y-65008191D02*
X88225381Y-65008191D01*
X88368238Y-65103429D01*
X88463476Y-65198667D01*
X88511095Y-65293905D01*
X57808834Y-81255643D02*
X57761215Y-81303262D01*
X57618358Y-81350881D01*
X57523120Y-81350881D01*
X57380262Y-81303262D01*
X57285024Y-81208024D01*
X57237405Y-81112786D01*
X57189786Y-80922310D01*
X57189786Y-80779452D01*
X57237405Y-80588976D01*
X57285024Y-80493738D01*
X57380262Y-80398500D01*
X57523120Y-80350881D01*
X57618358Y-80350881D01*
X57761215Y-80398500D01*
X57808834Y-80446119D01*
X58285024Y-81350881D02*
X58475500Y-81350881D01*
X58570739Y-81303262D01*
X58618358Y-81255643D01*
X58713596Y-81112786D01*
X58761215Y-80922310D01*
X58761215Y-80541357D01*
X58713596Y-80446119D01*
X58665977Y-80398500D01*
X58570739Y-80350881D01*
X58380262Y-80350881D01*
X58285024Y-80398500D01*
X58237405Y-80446119D01*
X58189786Y-80541357D01*
X58189786Y-80779452D01*
X58237405Y-80874690D01*
X58285024Y-80922310D01*
X58380262Y-80969929D01*
X58570739Y-80969929D01*
X58665977Y-80922310D01*
X58713596Y-80874690D01*
X58761215Y-80779452D01*
X49019627Y-61808621D02*
X48686293Y-61332430D01*
X48448198Y-61808621D02*
X48448198Y-60808621D01*
X48829151Y-60808621D01*
X48924389Y-60856240D01*
X48972008Y-60903859D01*
X49019627Y-60999097D01*
X49019627Y-61141954D01*
X48972008Y-61237192D01*
X48924389Y-61284811D01*
X48829151Y-61332430D01*
X48448198Y-61332430D01*
X49448198Y-61284811D02*
X49781532Y-61284811D01*
X49924389Y-61808621D02*
X49448198Y-61808621D01*
X49448198Y-60808621D01*
X49924389Y-60808621D01*
X50686294Y-61284811D02*
X50352960Y-61284811D01*
X50352960Y-61808621D02*
X50352960Y-60808621D01*
X50829151Y-60808621D01*
X51352960Y-60808621D02*
X51352960Y-61046716D01*
X51114865Y-60951478D02*
X51352960Y-61046716D01*
X51591056Y-60951478D01*
X51210103Y-61237192D02*
X51352960Y-61046716D01*
X51495818Y-61237192D01*
X52114865Y-60808621D02*
X52114865Y-61046716D01*
X51876770Y-60951478D02*
X52114865Y-61046716D01*
X52352961Y-60951478D01*
X51972008Y-61237192D02*
X52114865Y-61046716D01*
X52257723Y-61237192D01*
M02*
